<svg id="Icons" xmlns="http://www.w3.org/2000/svg" width="32" height="32" viewBox="0 0 32 32"><title>actions</title><g id="Actions"><path d="M25,10H20a1,1,0,0,0,0,2h5a1,1,0,0,1,1,1V29a1,1,0,0,1-1,1H7a1,1,0,0,1-1-1V13a1,1,0,0,1,1-1h5a1,1,0,0,0,0-2H7a3,3,0,0,0-3,3V29a3,3,0,0,0,3,3H25a3,3,0,0,0,3-3V13A3,3,0,0,0,25,10Z" style="fill:#e2001a"/><path d="M10.62,6.78,15,3.28V16a1,1,0,0,0,2,0V3.28l4.38,3.5a1,1,0,1,0,1.25-1.56l-4.75-3.8a3,3,0,0,0-3.75,0L9.38,5.22a1,1,0,1,0,1.25,1.56Z" style="fill:#e2001a"/></g></svg>