<svg id="Icons" xmlns="http://www.w3.org/2000/svg" width="32" height="32" viewBox="0 0 32 32"><title>bag</title><g id="Speciality_Retailer" data-name="Speciality Retailer"><path d="M27,8.92A3.14,3.14,0,0,0,24,6H21V5A5,5,0,0,0,11,5V6H8A3.14,3.14,0,0,0,5,8.9l-2,20A2.77,2.77,0,0,0,3.73,31,3.09,3.09,0,0,0,6,32H26a3.09,3.09,0,0,0,2.28-1A2.78,2.78,0,0,0,29,28.9ZM13,5a3,3,0,0,1,6,0V6H13ZM26.8,29.69A1.09,1.09,0,0,1,26,30H6a1.09,1.09,0,0,1-.81-.31A.76.76,0,0,1,5,29.1l2-20A1.16,1.16,0,0,1,8,8h3v3a1,1,0,0,0,2,0V8h6v3a1,1,0,0,0,2,0V8h3a1.17,1.17,0,0,1,1,1.1l2,20A.77.77,0,0,1,26.8,29.69Z" style="fill:#e2001a"/></g></svg>