<svg id="Icons" xmlns="http://www.w3.org/2000/svg" width="32" height="32" viewBox="0 0 32 32"><title>basket</title><g id="Online_Retailer" data-name="Online Retailer"><path d="M31.37,14.1a2.93,2.93,0,0,0-2.3-1.1H23.58L18.77,4.68a3.12,3.12,0,0,0-5.5-.06L8.42,13H2.93a2.93,2.93,0,0,0-2.3,1.1,2.84,2.84,0,0,0-.56,2.41l3,13.3A2.92,2.92,0,0,0,5.91,32H26.09a2.93,2.93,0,0,0,2.85-2.21l3-13.27A2.84,2.84,0,0,0,31.37,14.1Zm-1.56,1.25a.85.85,0,0,1,.17.72L28.87,21H24.18l.71-6h4.18A.94.94,0,0,1,29.81,15.35ZM15,15v6H9.83l-.71-6Zm0,8v7H10.89l-.82-7Zm2,0h4.93l-.82,7H17Zm0-2V15h5.88l-.71,6ZM15,5.57A1.07,1.07,0,0,1,16,5a1.1,1.1,0,0,1,1,.62L21.27,13H10.73ZM2.19,15.35A.94.94,0,0,1,2.93,15H7.11l.71,6H3.13L2,16.07A.85.85,0,0,1,2.19,15.35ZM5,29.35,3.58,23H8.05l.82,7h-3A.92.92,0,0,1,5,29.35Zm22,0a.92.92,0,0,1-.91.68h-3l.82-7h4.47Z" style="fill:#e2001a"/></g></svg>