<svg id="Icons" xmlns="http://www.w3.org/2000/svg" width="32" height="32" viewBox="0 0 32 32"><title>calendar</title><g id="Event"><path d="M29,4H26V2a2,2,0,0,0-2-2H22a2,2,0,0,0-2,2V4H12V2a2,2,0,0,0-2-2H8A2,2,0,0,0,6,2V4H3A3,3,0,0,0,0,7V29a3,3,0,0,0,3,3H29a3,3,0,0,0,3-3V7A3,3,0,0,0,29,4ZM22,2h2V4H22ZM8,2h2V4H8ZM3,6H29a1,1,0,0,1,1,1V8H2V7A1,1,0,0,1,3,6ZM29,30H3a1,1,0,0,1-1-1V10H30V29A1,1,0,0,1,29,30Z" style="fill:#e2001a"/><path d="M18,25H14a1,1,0,0,0,0,2h4a1,1,0,0,0,0-2Z" style="fill:#e2001a"/><path d="M9,25H5a1,1,0,0,0,0,2H9a1,1,0,0,0,0-2Z" style="fill:#e2001a"/><path d="M18,21H14a1,1,0,0,0,0,2h4a1,1,0,0,0,0-2Z" style="fill:#e2001a"/><path d="M27,21H23a1,1,0,0,0,0,2h4a1,1,0,0,0,0-2Z" style="fill:#e2001a"/><path d="M9,21H5a1,1,0,0,0,0,2H9a1,1,0,0,0,0-2Z" style="fill:#e2001a"/><path d="M18,17H14a1,1,0,0,0,0,2h4a1,1,0,0,0,0-2Z" style="fill:#e2001a"/><path d="M27,17H23a1,1,0,0,0,0,2h4a1,1,0,0,0,0-2Z" style="fill:#e2001a"/><path d="M9,17H5a1,1,0,0,0,0,2H9a1,1,0,0,0,0-2Z" style="fill:#e2001a"/><path d="M18,13H14a1,1,0,0,0,0,2h4a1,1,0,0,0,0-2Z" style="fill:#e2001a"/><path d="M27,13H23a1,1,0,0,0,0,2h4a1,1,0,0,0,0-2Z" style="fill:#e2001a"/><path d="M9,13H5a1,1,0,0,0,0,2H9a1,1,0,0,0,0-2Z" style="fill:#e2001a"/></g></svg>