<svg xmlns="http://www.w3.org/2000/svg" viewBox="0 0 64 64"><title>calendar</title><g id="Calendar"><path d="M9.62,29.28V50.44H43.81V41.09H54.38V29.28Zm23.62,9.34h8.1V31.75h-8.1Zm-10.57,0h8.1V31.75h-8.1Zm0,9.34h8.1V41.09h-8.1ZM12.09,38.62h8.1V31.75h-8.1Zm0,9.34h8.1V41.09h-8.1Zm21.15,0h8.1V41.09h-8.1Zm10.57-9.34h8.1V31.75h-8.1ZM14.08,14.84a2.31,2.31,0,1,1,2.31,2.31A2.31,2.31,0,0,1,14.08,14.84Zm32.3,0a2.31,2.31,0,1,1,2.31,2.31A2.31,2.31,0,0,1,46.38,14.84Zm11-10.17H6.59A6.6,6.6,0,0,0,0,11.26V52.74a6.6,6.6,0,0,0,6.59,6.59H48.22l4.94-4.94h0l5.89-5.89L64,43.56V11.26A6.6,6.6,0,0,0,57.4,4.66ZM6.59,9.61H57.4a1.65,1.65,0,0,1,1.65,1.65v8.22H4.94V11.26A1.65,1.65,0,0,1,6.59,9.61ZM54.82,43.5a6.6,6.6,0,0,0-6.59,6.6v4.3H6.59a1.65,1.65,0,0,1-1.65-1.65V24.42H59.06V43.5Z" style="fill:#e2001a;fill-rule:evenodd"/></g></svg>