<svg id="Cat" xmlns="http://www.w3.org/2000/svg" xmlns:xlink="http://www.w3.org/1999/xlink" viewBox="0 0 64 64"><defs><style>.cls-1{fill:none;clip-rule:evenodd;}.cls-2{clip-path:url(#clip-path);}.cls-3{fill:#e2001a;}</style><clipPath id="clip-path"><path class="cls-1" d="M52.48,62.19c.9.07,1.38.1,2.29.11a1.53,1.53,0,0,0,1.39-2.13c-.24-.72-1.72-1.33-2-2a47.69,47.69,0,0,1-2-9.1c-.17-1.26-.58-2.46-.86-3.69a10.74,10.74,0,0,1-.33-2c0-.78.14-1.57.16-2.35,0-1.92.75-3.15,2.1-3.72A5.84,5.84,0,0,0,56,34.08a14.93,14.93,0,0,0,.91-2.14c.91-3.15,1.75-6.33,2.67-9.48.84-2.9,1.59-5.9,3.93-7.45a.83.83,0,0,0,.27-1.29.93.93,0,0,1,.06-.57c.35-1,.14-1.65-.67-2-.44-.19-.92-.24-1.36-.46s-.9,0-1.23.54a48.57,48.57,0,0,0-5.12,10.56,18.43,18.43,0,0,1-.79,1.8c-.26-.5-.43-.84-.61-1.17a65.62,65.62,0,0,0-3.24-5.77A22,22,0,0,1,48.68,13a3.35,3.35,0,0,1,0-3.17c.72-1.28.46-2.84.76-4.25.07-.33-.25-.84-.44-1.22s-.46-.44-.55-.73c-.39-1.23-1.05-1-1.79-.74A1.67,1.67,0,0,1,45.42,3c-1.15-.58-2.25-1-3.26.45-.36-.61-1.19-2.14-1.33-2s.2,2.1,0,2.4-1.25,1.31-1.39,1A6.47,6.47,0,0,0,39,4a16.46,16.46,0,0,0-1.54-1.82c-.55-.53-.9-.26-.94.63a8.87,8.87,0,0,0,.07,1.51c.24,1.86.66,3.7.73,5.57.11,3,.2,6,1.54,8.61a4.68,4.68,0,0,1,0,4.11c-1.49,3-12.7,14.21-13.06,14.62-2.72,3.06-3.94,7.24-5,11.57-.35,2.31-3.41,15.8-15.93,1.88C3.05,48.57,1.06,47.09.26,48.29c-.63.95.36,2.89,1.09,3.85,11.43,15.18,17.77,5.73,19.73,5.78.73,0,1.41,1,2.13,1.46a1.21,1.21,0,0,1,.54,1.17c0,1.37.36,1.85,1.3,1.88,2.17.06,4.34.11,6.51.1A2,2,0,0,0,33,62.08c.54-.57,1.09-.46,1.67-.48a8.42,8.42,0,0,0,2.4-.23c.86-.29.94-1.19.31-2l-.47-.59a4,4,0,0,1,.27-.39,13.13,13.13,0,0,0,3.78-6.52c.29-.87.06-3.29.21-3.65,1.12-2.75,4-3.49,4.65-1.93.88,2,1.69,4,2.53,6,.38.91.76,1.82,1.11,2.75.29.75.54,1.52.79,2.3s.42,1.36.7,2.3C50.92,59.7,51.4,62.11,52.48,62.19Z"/></clipPath></defs><title>cat</title><g class="cls-2"><rect class="cls-3" x="-16.9" y="-15.49" width="97.86" height="94.98"/></g></svg>