<svg id="Crown" xmlns="http://www.w3.org/2000/svg" xmlns:xlink="http://www.w3.org/1999/xlink" viewBox="0 0 64 64"><defs><style>.cls-1,.cls-2{fill:none;}.cls-1{clip-rule:evenodd;}.cls-3{clip-path:url(#clip-path);}.cls-4{clip-path:url(#clip-path-2);}.cls-5{fill:#e2001a;}</style><clipPath id="clip-path"><path class="cls-1" d="M12.68,46.08a1.88,1.88,0,0,1-1.13-3.39c5-3.74,12.65-6,20.47-6h0c7.79,0,15.42,2.24,20.42,6a1.88,1.88,0,0,1-2.26,3c-3.37-2.53-9.92-5.22-18.16-5.22h0c-8.28,0-14.84,2.7-18.21,5.22A1.86,1.86,0,0,1,12.68,46.08Zm1.72,3.22a1.29,1.29,0,0,0,.82-.29C19,45.87,25.48,43.92,32,43.92S44.9,45.82,48.78,49a1.29,1.29,0,1,0,1.63-2c-4.32-3.55-11.2-5.67-18.39-5.67S17.91,43.46,13.59,47a1.29,1.29,0,0,0,.82,2.28ZM4.31,22.19a4.32,4.32,0,0,0,0,8.64h0A4.32,4.32,0,0,0,8,24.31,4.34,4.34,0,0,0,4.31,22.19ZM32,25.51a4.32,4.32,0,1,0,4.32,4.32A4.33,4.33,0,0,0,32,25.51ZM32,14.7A4.32,4.32,0,1,0,36.32,19,4.33,4.33,0,0,0,32,14.7ZM20.51,27a4.41,4.41,0,0,0-1.14.15,4.32,4.32,0,0,0,1.12,8.49h.1a4.36,4.36,0,0,0,1.06-.15A4.32,4.32,0,0,0,20.51,27ZM9.82,31.5A4.32,4.32,0,0,0,6.11,38a4.37,4.37,0,0,0,3.7,2.12h0a4.34,4.34,0,0,0,2.2-.6,4.32,4.32,0,0,0,1.52-5.91A4.35,4.35,0,0,0,9.82,31.5Zm34.81-4.33a4.32,4.32,0,1,0,3,5.31A4.3,4.3,0,0,0,44.63,27.17Zm2.85-10.43a4.32,4.32,0,0,0-2.28,8.33,4.32,4.32,0,1,0,2.28-8.33ZM56.37,32.1a4.32,4.32,0,1,0,2,2.64A4.3,4.3,0,0,0,56.37,32.1Zm7.49-6.67a4.32,4.32,0,0,0-4.18-3.24A4.34,4.34,0,0,0,56,24.31a4.32,4.32,0,0,0,3.71,6.52,4.34,4.34,0,0,0,3.72-2.12A4.28,4.28,0,0,0,63.86,25.44Zm-46.2-.21a4.32,4.32,0,0,0,0-8.64,4.27,4.27,0,0,0-1.14.16,4.32,4.32,0,0,0,1.12,8.48Z"/></clipPath><clipPath id="clip-path-2"><rect class="cls-2" x="-140.44" y="-1083.97" width="666.67" height="1546.67"/></clipPath></defs><title>crown</title><g class="cls-3"><g class="cls-4"><rect class="cls-5" x="-8.89" y="5.81" width="81.78" height="52.38"/></g></g></svg>