<svg id="Icons" xmlns="http://www.w3.org/2000/svg" width="32" height="32" viewBox="0 0 32 32"><title>device--mobile</title><g id="Phone"><path d="M23,0H9A3,3,0,0,0,6,3V29a3,3,0,0,0,3,3H23a3,3,0,0,0,3-3V3A3,3,0,0,0,23,0Zm1,29a1,1,0,0,1-1,1H9a1,1,0,0,1-1-1V3A1,1,0,0,1,9,2H23a1,1,0,0,1,1,1Z" style="fill:#e2001a"/><path d="M16.71,26.29a1,1,0,0,0-1.42,0,1.15,1.15,0,0,0-.21.33A1,1,0,0,0,15,27a1,1,0,0,0,1.71.71l.12-.15a.78.78,0,0,0,.09-.18A.62.62,0,0,0,17,27.2a1.26,1.26,0,0,0,0-.2,1,1,0,0,0-.08-.38A1.15,1.15,0,0,0,16.71,26.29Z" style="fill:#e2001a"/></g></svg>