<svg id="Dog" xmlns="http://www.w3.org/2000/svg" xmlns:xlink="http://www.w3.org/1999/xlink" viewBox="0 0 64 64"><defs><style>.cls-1{fill:none;clip-rule:evenodd;}.cls-2{clip-path:url(#clip-path);}.cls-3{fill:#e2001a;}</style><clipPath id="clip-path"><path class="cls-1" d="M53.83,58.88v.91c-.2.26-.34.62-.61.78a5.61,5.61,0,0,1-4.58.63c-.65-.19-1.17-.53-1.91-.27a1.46,1.46,0,0,1-1.6-.64c-.41-.47-.61-1.14-1.28-1.39A14.44,14.44,0,0,1,41,57.32c-.2-.13-.39-.42-.75-.2a3.08,3.08,0,0,0,1.39,2.43,4.73,4.73,0,0,1,1.62,1.71,2.28,2.28,0,0,1-.14,2.09c-.28.57-.94.47-1.49.4-.4,0-.8-.15-1.08.25H37.18a4.11,4.11,0,0,1-1.26-3.16,23.24,23.24,0,0,0-.25-4.15c0-.12,0-.26-.11-.28s-.25.11-.3.26a3.51,3.51,0,0,1-1.17.17h-4a5.83,5.83,0,0,0-.7-.42.4.4,0,0,0-.49.16c-.15.25.1.29.26.37l.42.19c.25.18.57.44.81.32.71-.34,1.27.16,1.85.29a1.76,1.76,0,0,1,1.47,1.43c.22,1.12-.64,1.69-1.17,2.32-1.17,1.4-3.95,1.69-4.93-.46A6.91,6.91,0,0,0,24.5,57.9c-1.26-.71-2.62-1.5-4.2-.74a.92.92,0,0,1-.46,0c-2.29-.17-4.62,0-6.88-.48a4.83,4.83,0,0,1-2.8-1.13v-.73a2.15,2.15,0,0,1,.85-.25,26.15,26.15,0,0,0,7.74-1c.56-.14.54-.27.47-.75a13.43,13.43,0,0,1,.33-6.57,36.17,36.17,0,0,1,3.16-6.78,8.63,8.63,0,0,0,.73-1.57c1.12-3.06,2.31-6.09,4.53-8.59a4.88,4.88,0,0,0,1.13-2.46,9.55,9.55,0,0,1,1.59-3.76c1.84-2.67,2.32-5.7,2.71-8.79a1.69,1.69,0,0,0-1-2.09A3.19,3.19,0,0,1,31.09,11,1.74,1.74,0,0,1,31,9a44.74,44.74,0,0,1,3.28-4.85,1.87,1.87,0,0,1,2.13-.72,4.33,4.33,0,0,0,2.87-.22c.76-.24,1.52-.51,2.26-.81a1.2,1.2,0,0,1,1.38.16c.76.74,1.49.49,2.25,0C46.65,1.73,48.12.87,49.58,0h.55c.81.8,1.65,1.59,1.16,2.91-.05.14.06.35.12.52a3.9,3.9,0,0,1-1.14,4.26c-.9.91-1.77,1.85-2.68,2.76-.59.6-.86,1.1-.18,1.81a3.48,3.48,0,0,1,.58,1c.63,1.46.32,2.07-1.26,2.41-.38.08-.51.16-.53.62a32.87,32.87,0,0,0,.67,7,2.69,2.69,0,0,0,.92,1.82,4.32,4.32,0,0,1,1.44,2.58c.89,3.79-.31,7.28-1.49,10.79A10.46,10.46,0,0,0,47.22,44a78.52,78.52,0,0,0,2.18,8.21,4.64,4.64,0,0,1,.23,2.07,4.71,4.71,0,0,0,.49,2.47c.15.36.34.77.82.75a3.56,3.56,0,0,1,2.88,1.32m-10-11.58a3.68,3.68,0,0,0,0,.72,6.07,6.07,0,0,1-.67,4.14,7,7,0,0,0-.45,1.48,1.58,1.58,0,0,0,.82,1.92,7.44,7.44,0,0,0,1.83.59c.9.29,1.29,0,1.15-.95A17.43,17.43,0,0,0,46,52.89a23.14,23.14,0,0,0-2.15-5.59m-.73-4.2-1.46.84c-.29.16-.33.33-.07.55l1.56,1.28.22-.12a3.1,3.1,0,0,1-.25-2.55"/></clipPath></defs><title>dog</title><g class="cls-2"><rect class="cls-3" x="-5.83" y="-16" width="75.67" height="96"/></g></svg>