<svg id="Icons" xmlns="http://www.w3.org/2000/svg" width="32" height="32" viewBox="0 0 32 32"><title>category--dog</title><g id="Category_-_Dog" data-name="Category - Dog"><circle cx="11.5" cy="9.5" r="1.5" style="fill:#e2001a"/><circle cx="20.5" cy="9.5" r="1.5" style="fill:#e2001a"/><path d="M27,0H5A5,5,0,0,0,0,5V16a3,3,0,0,0,3,3,3,3,0,0,0,1-.18v3A6.17,6.17,0,0,0,9.37,28a6.22,6.22,0,0,0,1,0,6,6,0,0,0,11.31,0L22,28a6.36,6.36,0,0,0,.64,0A6.17,6.17,0,0,0,28,21.79v-3A3,3,0,0,0,29,19a3,3,0,0,0,3-3V5A5,5,0,0,0,27,0ZM3,17a1,1,0,0,1-1-1V5A3,3,0,0,1,5,2H9.23L4.71,9.54A5,5,0,0,0,4,12.11V16A1,1,0,0,1,3,17ZM16,30a4,4,0,0,1-3.68-2.46A6,6,0,0,0,15.66,24,2,2,0,0,0,16,24a2,2,0,0,0,.34,0,5.84,5.84,0,0,0,3.36,3.57A4,4,0,0,1,16,30Zm1.92-11.27-1.78,3.14c-.11.19-.18.19-.29,0l-1.78-3.14a.63.63,0,0,1,0-.61s.07-.12.14-.12h3.56c.06,0,.13.1.14.12A.63.63,0,0,1,17.92,18.73ZM26,21.79A4.15,4.15,0,0,1,22.43,26a4,4,0,0,1-4.37-3.43l1.61-2.83a2.62,2.62,0,0,0,0-2.6A2.16,2.16,0,0,0,17.78,16H14.22a2.16,2.16,0,0,0-1.87,1.12,2.62,2.62,0,0,0,0,2.6l1.61,2.84a4,4,0,0,1-1.38,2.52,4,4,0,0,1-3,.91A4.15,4.15,0,0,1,6,21.79V12.11a3,3,0,0,1,.43-1.54L11.57,2h8.87l5.14,8.56A3,3,0,0,1,26,12.11ZM29,17a1,1,0,0,1-1-1V12.11a5,5,0,0,0-.71-2.57L22.77,2H27a3,3,0,0,1,3,3V16A1,1,0,0,1,29,17Z" style="fill:#e2001a"/></g></svg>