<svg id="Icons" xmlns="http://www.w3.org/2000/svg" width="32" height="32" viewBox="0 0 32 32"><title>feedback--warning</title><g id="Warning"><path d="M16,0A16,16,0,1,0,32,16,16,16,0,0,0,16,0Zm0,30A14,14,0,1,1,30,16,14,14,0,0,1,16,30Z" style="fill:#e2001a"/><path d="M16,9a1,1,0,0,0-1,1v8a1,1,0,0,0,2,0V10A1,1,0,0,0,16,9Z" style="fill:#e2001a"/><path d="M16.92,21.62a.77.77,0,0,0-.09-.18,1.47,1.47,0,0,0-.12-.15,1,1,0,0,0-1.42,0,1.48,1.48,0,0,0-.12.15.77.77,0,0,0-.09.18.63.63,0,0,0-.06.18,1,1,0,0,0,0,.4.63.63,0,0,0,.06.18.76.76,0,0,0,.09.18,1.6,1.6,0,0,0,.12.15,1,1,0,0,0,.33.21A1,1,0,0,0,16,23a1.05,1.05,0,0,0,.71-.29,1.59,1.59,0,0,0,.12-.15.76.76,0,0,0,.09-.18A.65.65,0,0,0,17,22.2a1,1,0,0,0,0-.4A.65.65,0,0,0,16.92,21.62Z" style="fill:#e2001a"/></g></svg>