<svg id="Icons" xmlns="http://www.w3.org/2000/svg" width="32" height="32" viewBox="0 0 32 32"><title>filter</title><g id="Filter"><path d="M31,15H12.86a4,4,0,0,0-7.72,0H1a1,1,0,0,0,0,2H5.14a4,4,0,0,0,7.72,0H31a1,1,0,0,0,0-2ZM9,18a2,2,0,1,1,2-2A2,2,0,0,1,9,18Z" style="fill:#e2001a"/><path d="M1,7H21.14a4,4,0,0,0,7.72,0L29,7h2a1,1,0,0,0,0-2H29l-.13,0a4,4,0,0,0-7.72,0H1A1,1,0,0,0,1,7ZM25,4a2,2,0,1,1-2,2A2,2,0,0,1,25,4Z" style="fill:#e2001a"/><path d="M31,25H22.86a4,4,0,0,0-7.72,0H1a1,1,0,0,0,0,2H15.14a4,4,0,0,0,7.72,0H31a1,1,0,0,0,0-2ZM19,28a2,2,0,1,1,2-2A2,2,0,0,1,19,28Z" style="fill:#e2001a"/></g></svg>