<svg id="Icons" xmlns="http://www.w3.org/2000/svg" width="32" height="32" viewBox="0 0 32 32"><title>help</title><g id="Help"><path d="M17,24a4,4,0,1,0,4,4A4,4,0,0,0,17,24Zm0,6a2,2,0,1,1,2-2A2,2,0,0,1,17,30Z" style="fill:#e2001a"/><path d="M17,0A9,9,0,0,0,8,9v1a3,3,0,0,0,6,0V9a3,3,0,0,1,6,0c0,1-1.12,2.08-2.11,3-.31.28-.6.55-.85.81A9.48,9.48,0,0,0,14,20a3,3,0,0,0,6,0c0-1.89,1.25-3.22,2.7-4.75S26,11.76,26,9A9,9,0,0,0,17,0Zm4.25,13.87C19.73,15.48,18,17.31,18,20a1,1,0,0,1-2,0,7.57,7.57,0,0,1,2.48-5.81c.23-.23.49-.48.77-.73C20.47,12.33,22,10.92,22,9A5,5,0,0,0,12,9v1a1,1,0,0,1-2,0V9A7,7,0,0,1,24,9C24,11,22.66,12.38,21.25,13.87Z" style="fill:#e2001a"/></g></svg>