<svg id="Icons" xmlns="http://www.w3.org/2000/svg" width="32" height="32" viewBox="0 0 32 32"><title>home</title><g id="Home"><path d="M30.83,10.61,18.06.8a3.07,3.07,0,0,0-4.13,0L8,5.36V3A1,1,0,0,0,7,2H3A1,1,0,0,0,2,3v7l-.83.64A3,3,0,0,0,0,13V29.08A3,3,0,0,0,3,32H29a3,3,0,0,0,3-2.92V13A3,3,0,0,0,30.83,10.61ZM4,4H6V6.9L4,8.43ZM18,30H14V26a2,2,0,0,1,4,0Zm12-.92A1,1,0,0,1,29,30H20V26a4,4,0,0,0-8,0v4H3a1,1,0,0,1-1-.92V13a1,1,0,0,1,.39-.79L15.2,2.36l.08-.07a1.06,1.06,0,0,1,1.44,0l.08.07,12.8,9.83A1,1,0,0,1,30,13Z" style="fill:#e2001a"/><path d="M9,14H5a1,1,0,0,0-1,1v4a1,1,0,0,0,1,1H9a1,1,0,0,0,1-1V15A1,1,0,0,0,9,14ZM8,18H6V16H8Z" style="fill:#e2001a"/><path d="M18,14H14a1,1,0,0,0-1,1v4a1,1,0,0,0,1,1h4a1,1,0,0,0,1-1V15A1,1,0,0,0,18,14Zm-1,4H15V16h2Z" style="fill:#e2001a"/><path d="M27,14H23a1,1,0,0,0-1,1v4a1,1,0,0,0,1,1h4a1,1,0,0,0,1-1V15A1,1,0,0,0,27,14Zm-1,4H24V16h2Z" style="fill:#e2001a"/><path d="M9,22H5a1,1,0,0,0-1,1v4a1,1,0,0,0,1,1H9a1,1,0,0,0,1-1V23A1,1,0,0,0,9,22ZM8,26H6V24H8Z" style="fill:#e2001a"/><path d="M27,22H23a1,1,0,0,0-1,1v4a1,1,0,0,0,1,1h4a1,1,0,0,0,1-1V23A1,1,0,0,0,27,22Zm-1,4H24V24h2Z" style="fill:#e2001a"/></g></svg>