<svg id="Icons" xmlns="http://www.w3.org/2000/svg" width="32" height="32" viewBox="0 0 32 32"><title>info</title><g id="Information"><path d="M22,26H21V15a3,3,0,0,0-3-3H11a1,1,0,0,0-1,1v4a1,1,0,0,0,1,1,1,1,0,0,1,1,1v7H11a1,1,0,0,0-1,1v4a1,1,0,0,0,1,1H22a1,1,0,0,0,1-1V27A1,1,0,0,0,22,26Zm-1,4H12V28h1a1,1,0,0,0,1-1V19a3,3,0,0,0-2-2.83V14h6a1,1,0,0,1,1,1V27a1,1,0,0,0,1,1h1Z" style="fill:#e2001a"/><path d="M16,10a5,5,0,1,0-5-5A5,5,0,0,0,16,10Zm0-8a3,3,0,1,1-3,3A3,3,0,0,1,16,2Z" style="fill:#e2001a"/></g></svg>