<svg id="Icons" xmlns="http://www.w3.org/2000/svg" width="32" height="32" viewBox="0 0 32 32"><title>category--kitten</title><g id="Category_Kitten" data-name="Category Kitten"><circle cx="19.5" cy="13.5" r="1.5" style="fill:#e2001a"/><circle cx="12.5" cy="13.5" r="1.5" style="fill:#e2001a"/><path d="M18.83,20.56A1,1,0,0,1,17,20v-.5l1.2-.9A2,2,0,0,0,17,15H15a2,2,0,0,0-1.2,3.6l1.2.9V20a1,1,0,0,1-1.87.5,1,1,0,1,0-1.73,1A3,3,0,0,0,14,23a3,3,0,0,0,2-.78,3,3,0,0,0,4.49-.54,1,1,0,1,0-1.66-1.12ZM15,17h2l-1,.75L15,17Z" style="fill:#e2001a"/><path d="M31,20a1,1,0,0,0,.11-2l-4.48-.5,4.68-1.56a1,1,0,1,0-.63-1.9L27,15.28V6.76a2,2,0,0,0-3.54-1.28l-2.53,3A10.26,10.26,0,0,0,16,7.33a10.22,10.22,0,0,0-4.93,1.19l-2.54-3A2,2,0,0,0,5,6.76v8.52L1.32,14.05a1,1,0,1,0-.63,1.9l4.68,1.56L.89,18A1,1,0,0,0,1,20h.11L6,19.45.45,23.17a1,1,0,1,0,1.11,1.66l4.73-3.15A11.1,11.1,0,0,0,16,27a11.11,11.11,0,0,0,9.72-5.32l4.73,3.15a1,1,0,1,0,1.11-1.66L26,19.45l4.91.55ZM16,25a9.21,9.21,0,0,1-8-4.44l2.59-1.73h0a1,1,0,0,0,.17-.16l0,0,0,0a1,1,0,0,0,0-.1,1,1,0,0,0,.08-.16v0s0,0,0-.06a1,1,0,0,0,0-.19,1,1,0,0,0,0-.15s0,0,0,0v0a4.82,4.82,0,0,0-.1-.32l0-.05v0a.93.93,0,0,0-.09-.09,1,1,0,0,0-.11-.12l-.05,0a1,1,0,0,0-.16-.09l-.11-.06L7,15.95V6.76l3.09,3.71a1,1,0,0,0,1.36.16A8,8,0,0,1,16,9.33a8,8,0,0,1,4.51,1.28,1,1,0,0,0,1.39-.14L25,6.76v9.18l-3.32,1.11-.1.06a1,1,0,0,0-.17.09l-.05,0a1,1,0,0,0-.11.12.94.94,0,0,0-.09.09v0l0,.05a5.18,5.18,0,0,0-.1.32v0s0,0,0,0a1,1,0,0,0,0,.15,1,1,0,0,0,0,.19s0,0,0,.06v0a1,1,0,0,0,.08.16,1,1,0,0,0,0,.1l0,0,0,0a1,1,0,0,0,.17.16h0L24,20.56A9.21,9.21,0,0,1,16,25Z" style="fill:#e2001a"/></g></svg>