<svg id="Icons" xmlns="http://www.w3.org/2000/svg" width="32" height="32" viewBox="0 0 32 32"><title>like</title><path id="Like" d="M31.84,8.84A8.51,8.51,0,0,0,16,6.5,8.5,8.5,0,0,0,.68,13.82a8.42,8.42,0,0,0,1.74,2.52L13.84,28.2a3,3,0,0,0,4.32,0L29.6,16.31a8.32,8.32,0,0,0,1.73-2.53A8.53,8.53,0,0,0,31.84,8.84ZM29.5,13a6.38,6.38,0,0,1-1.33,1.92L16.72,26.81a1,1,0,0,1-1.44,0L3.86,15A6.46,6.46,0,0,1,2.52,13a6.53,6.53,0,0,1-.4-3.81A6.46,6.46,0,0,1,7.21,4.12a6.56,6.56,0,0,1,5.43,1.37,6.48,6.48,0,0,1,2.36,5,1,1,0,0,0,2,0,6.48,6.48,0,0,1,2.36-5,6.55,6.55,0,0,1,5.43-1.37,6.46,6.46,0,0,1,5.09,5.09A6.53,6.53,0,0,1,29.5,13Z" style="fill:#e2001a"/></svg>