<svg id="Icons" xmlns="http://www.w3.org/2000/svg" width="32" height="32" viewBox="0 0 32 32"><title>news</title><g id="News"><path d="M29,5H27V3a3,3,0,0,0-3-3H3A3,3,0,0,0,0,3V29a3,3,0,0,0,3,3H29a3,3,0,0,0,3-3V8A3,3,0,0,0,29,5Zm1,24a1,1,0,0,1-1,1H3a1,1,0,0,1-1-1V3A1,1,0,0,1,3,2H24a1,1,0,0,1,1,1V26a1,1,0,0,0,2,0V7h2a1,1,0,0,1,1,1Z" style="fill:#e2001a"/><path d="M6,11h7a2,2,0,0,0,2-2V7a2,2,0,0,0-2-2H6A2,2,0,0,0,4,7V9A2,2,0,0,0,6,11ZM6,7h7V9H6Z" style="fill:#e2001a"/><path d="M22,5H18a1,1,0,0,0,0,2h4a1,1,0,0,0,0-2Z" style="fill:#e2001a"/><path d="M22,9H18a1,1,0,0,0,0,2h4a1,1,0,0,0,0-2Z" style="fill:#e2001a"/><path d="M22,13H5a1,1,0,0,0,0,2H22a1,1,0,0,0,0-2Z" style="fill:#e2001a"/><path d="M22,17H5a1,1,0,0,0,0,2H22a1,1,0,0,0,0-2Z" style="fill:#e2001a"/><path d="M22,21H5a1,1,0,0,0,0,2H22a1,1,0,0,0,0-2Z" style="fill:#e2001a"/><path d="M22,25H5a1,1,0,0,0,0,2H22a1,1,0,0,0,0-2Z" style="fill:#e2001a"/></g></svg>