<svg id="Partners" xmlns="http://www.w3.org/2000/svg" xmlns:xlink="http://www.w3.org/1999/xlink" viewBox="0 0 64 64"><defs><style>.cls-1,.cls-2{fill:none;}.cls-1{clip-rule:evenodd;}.cls-3{clip-path:url(#clip-path);}.cls-4{clip-path:url(#clip-path-2);}.cls-5{fill:#e0071b;}</style><clipPath id="clip-path"><path class="cls-1" d="M9.11,34.64H2.78A17.54,17.54,0,0,1,.19,28c-.41-3.41.29-6.31,2.12-8.35a9.67,9.67,0,0,1,7.56-3c4.36,0,7.77,3.57,9.89,6,2.08-2.49,5.15-6,10-6a9.61,9.61,0,0,1,7.48,3A10.48,10.48,0,0,1,39.4,28a16.1,16.1,0,0,1-2,5.67H26.91a1.25,1.25,0,0,0-.95.43L21.82,39,16.88,28.14a1.25,1.25,0,0,0-2.09-.28Zm13.34,7.42a1.24,1.24,0,0,1-.95.43h-.17a1.25,1.25,0,0,1-1-.72L15.43,31l-4.79,5.72a1.24,1.24,0,0,1-1,.45H4.43c5.39,7.48,14,14.3,14.5,14.71l.87.71.87-.71c.52-.43,9.84-7.82,15.16-15.64H27.48ZM47.18,35.2c3.35-3.25,5.49-9.16,5.49-14.63,0-9.79-4.33-17.73-15.28-17.73C28.3,2.83,23.93,8,22.58,15.18a13.53,13.53,0,0,1,4.7-1.85c2.39-6.4,7.95-6.43,10.11-6.43,7.45,0,11.23,4.6,11.23,13.66,0,4.46-1.75,9.27-4.25,11.7a4.08,4.08,0,0,0,1.51,6.78c8.76,3,14,9.06,14,16.27,0,.6,0,1.2,0,1.78h-40l-.06.05-.06-.05H14.91c0-.58,0-1.18,0-1.78a14.45,14.45,0,0,1,.16-2c-1-.84-2.19-1.88-3.5-3.09a18.71,18.71,0,0,0-.7,5.12q0,.9,0,1.78c0,1.4,0,2.76.11,4.07H63.81c.08-1.31.1-2.67.11-4.07q0-.88,0-1.78C63.92,45.72,57,38.54,47.18,35.2Z"/></clipPath><clipPath id="clip-path-2"><rect class="cls-2" x="-515.2" y="-905.22" width="729.17" height="1691.67"/></clipPath></defs><title>partners</title><g class="cls-3"><g class="cls-4"><rect class="cls-5" x="-9.64" y="-6.89" width="83.29" height="77.78"/></g></g></svg>