<svg id="Icons" xmlns="http://www.w3.org/2000/svg" width="32" height="32" viewBox="0 0 32 32"><title>category--puppy</title><g id="Category_-_Puppy" data-name="Category - Puppy"><circle cx="11.5" cy="11.5" r="1.5" style="fill:#e2001a"/><circle cx="20.5" cy="11.5" r="1.5" style="fill:#e2001a"/><path d="M27,5H5a5,5,0,0,0-5,5v8a1,1,0,0,0,.68.95A1,1,0,0,0,1,19a1,1,0,0,0,.8-.4L6,13v6.5A5.51,5.51,0,0,0,11.5,25h.18a1,1,0,0,0,0,.19,4.39,4.39,0,0,0,8.64,0,1,1,0,0,0,0-.19h.18A5.51,5.51,0,0,0,26,19.5V13l4.2,5.6a1,1,0,0,0,.8.4,1,1,0,0,0,.32-.05A1,1,0,0,0,32,18V10A5,5,0,0,0,27,5ZM2,10A3,3,0,0,1,5,7H8L2,15ZM18.35,24.83a2.39,2.39,0,0,1-4.7,0,1,1,0,0,0-.09-.23A5.5,5.5,0,0,0,16,22.67a5.5,5.5,0,0,0,2.44,1.93A1,1,0,0,0,18.35,24.83ZM16,19.73,15.05,18H17Zm8-.23a3.5,3.5,0,0,1-6.55,1.7s.07-.08.1-.13L18.73,19a2.08,2.08,0,0,0,0-2.07A1.77,1.77,0,0,0,17.19,16H14.81a1.77,1.77,0,0,0-1.53.91,2.08,2.08,0,0,0,0,2.06l1.19,2.09s.07.09.1.13A3.5,3.5,0,0,1,8,19.5V10.33L10.5,7h11L24,10.33ZM30,15,24,7h3a3,3,0,0,1,3,3Z" style="fill:#e2001a"/></g></svg>