<svg id="Science" xmlns="http://www.w3.org/2000/svg" xmlns:xlink="http://www.w3.org/1999/xlink" viewBox="0 0 64 64"><defs><style>.cls-1,.cls-2{fill:none;}.cls-1{clip-rule:evenodd;}.cls-3{clip-path:url(#clip-path);}.cls-4{clip-path:url(#clip-path-2);}.cls-5{fill:#e2001a;}</style><clipPath id="clip-path"><path class="cls-1" d="M50.33,29,35.82,14.49l-1.41-1.41A1.28,1.28,0,0,0,32.6,14.9L34,16.31,3.82,46.49A10.26,10.26,0,0,0,18.34,61L48.52,30.82l1.41,1.41a1.28,1.28,0,1,0,1.81-1.81Zm-7.72,4.1L39.46,30a1.28,1.28,0,0,0-1.81,1.81l3.15,3.14L39,36.75l-3.14-3.14A1.28,1.28,0,0,0,34,35.42l3.14,3.15L35.32,40.4l-3.14-3.14a1.28,1.28,0,0,0-1.81,1.81l3.14,3.14L31.67,44,28.52,40.9a1.28,1.28,0,0,0-1.81,1.81l3.14,3.14L28,47.69l-3.14-3.14a1.28,1.28,0,0,0-1.81,1.81l3.14,3.14-1.83,1.83-3.14-3.14A1.28,1.28,0,0,0,19.42,50l3.14,3.14-6,6A7.7,7.7,0,0,1,5.64,48.3L35.82,18.12,46.71,29Zm14-7.51a6.6,6.6,0,1,0-4.67-1.93A6.58,6.58,0,0,0,56.58,25.59Zm-2.86-9.46A4,4,0,1,1,52.53,19,4,4,0,0,1,53.72,16.13Zm-10-1.67A5,5,0,1,0,40.18,13,5,5,0,0,0,43.71,14.46ZM42,7.75a2.43,2.43,0,1,1-.71,1.72A2.43,2.43,0,0,1,42,7.75ZM55,8a4,4,0,0,0,2.86-6.9,4.14,4.14,0,0,0-5.71,0A4,4,0,0,0,55,8ZM53.92,3A1.48,1.48,0,0,1,56,5a1.51,1.51,0,0,1-2.09,0A1.48,1.48,0,0,1,53.92,3ZM26,16.25a4,4,0,0,0,2.86-6.9,4.13,4.13,0,0,0-5.71,0A4,4,0,0,0,26,16.25Zm-1-5.08a1.48,1.48,0,0,1,2.09,0,1.48,1.48,0,0,1,0,2.09h0a1.51,1.51,0,0,1-2.09,0A1.48,1.48,0,0,1,25,11.16ZM54.7,33.67a4,4,0,1,0,5.71,0A4,4,0,0,0,54.7,33.67Zm3.9,3.9a1.48,1.48,0,1,1,0-2.09A1.48,1.48,0,0,1,58.61,37.57Z"/></clipPath><clipPath id="clip-path-2"><rect class="cls-2" x="-122.38" y="-731.2" width="600" height="1392"/></clipPath></defs><title>master-icons</title><g class="cls-3"><g class="cls-4"><rect class="cls-5" x="-7.18" y="-8" width="78.35" height="80"/></g></g></svg>