<svg id="Icons" xmlns="http://www.w3.org/2000/svg" width="32" height="32" viewBox="0 0 32 32"><title>shelter</title><g id="Shelter"><path d="M30.83,10.61,18.06.8a3.07,3.07,0,0,0-4.12,0L1.17,10.61A3,3,0,0,0,0,13V29.08A3,3,0,0,0,3,32H29a3,3,0,0,0,3-2.92V13A3,3,0,0,0,30.83,10.61ZM12,30V21a4,4,0,0,1,8,0v9Zm18-.92A1,1,0,0,1,29,30H22V21a6,6,0,0,0-12,0v9H3a1,1,0,0,1-1-.92V13a1,1,0,0,1,.39-.79L15.2,2.36l.08-.07a1,1,0,0,1,1.44,0l.08.07,12.8,9.83A1,1,0,0,1,30,13Z" style="fill:#e2001a"/><path d="M19,9H13a1,1,0,0,0,0,2h6a1,1,0,0,0,0-2Z" style="fill:#e2001a"/></g></svg>