<svg id="Icons" xmlns="http://www.w3.org/2000/svg" width="32" height="32" viewBox="0 0 32 32"><title>sustainable-development</title><path id="Sustainable_Development" data-name="Sustainable Development" d="M28.78,24.43c-.08-.09-1.88-2.32-4.28-2.32A5.87,5.87,0,0,0,20.59,24,6,6,0,0,0,17,25.54V19.46c1.22-1.08,5-4.82,5-9.46C22,4.58,16.84.39,16.62.22a1,1,0,0,0-1.25,0C15.16.39,10,4.58,10,10c0,4.64,3.78,8.37,5,9.46v3.08A6,6,0,0,0,11.41,21,5.87,5.87,0,0,0,7.5,19.11c-2.4,0-4.21,2.22-4.28,2.32a1,1,0,0,0,0,1.25C3.29,22.78,5.1,25,7.5,25a5.89,5.89,0,0,0,4-2A4,4,0,0,1,15,27v4a1,1,0,0,0,2,0V30a4,4,0,0,1,3.55-4,5.89,5.89,0,0,0,4,2c2.4,0,4.21-2.22,4.28-2.32A1,1,0,0,0,28.78,24.43ZM7.5,23a3.51,3.51,0,0,1-2.09-.94,3.45,3.45,0,0,1,2.09-.94,3.51,3.51,0,0,1,2.09.94A3.45,3.45,0,0,1,7.5,23ZM12,10c0-3.44,2.74-6.45,4-7.66,1.26,1.21,4,4.22,4,7.66,0,2.69-1.67,5.11-3,6.62V12a1,1,0,0,0-2,0v4.61C13.67,15.11,12,12.69,12,10ZM24.5,26a3.51,3.51,0,0,1-2.09-.94,3.45,3.45,0,0,1,2.09-.94,3.51,3.51,0,0,1,2.09.94A3.45,3.45,0,0,1,24.5,26Z" style="fill:#e2001a"/></svg>