<svg id="Icons" xmlns="http://www.w3.org/2000/svg" width="32" height="32" viewBox="0 0 32 32"><title>unlock</title><g id="Unlock"><path d="M25,12H11V7a5,5,0,0,1,9.15-2.79A1,1,0,0,0,21.8,3.09,7,7,0,0,0,9,7v5H7a3,3,0,0,0-3,3V29a3,3,0,0,0,3,3H25a3,3,0,0,0,3-3V15A3,3,0,0,0,25,12Zm1,17a1,1,0,0,1-1,1H7a1,1,0,0,1-1-1V15a1,1,0,0,1,1-1H25a1,1,0,0,1,1,1Z" style="fill:#e2001a"/><path d="M16,16a4,4,0,0,0-1,7.86V26a1,1,0,0,0,2,0V23.86A4,4,0,0,0,16,16Zm0,6a2,2,0,1,1,2-2A2,2,0,0,1,16,22Z" style="fill:#e2001a"/></g></svg>