<svg xmlns="http://www.w3.org/2000/svg" viewBox="0 0 64 64"><title>vet</title><g id="Vet-2" data-name="Vet"><path d="M55.86,45.22a7.69,7.69,0,0,0-12.87,4,8.34,8.34,0,0,0,.61,5l-.78.7a8.57,8.57,0,0,1-9.39,1.48,8.3,8.3,0,0,1-4.87-7.65V31.85a19.64,19.64,0,0,0,16-19.13V6.61A6.61,6.61,0,0,0,37.94,0h-2a3.4,3.4,0,0,0-3.39,3.39,3.34,3.34,0,0,0,3.39,3.39h1.83v5.93a12.61,12.61,0,0,1-25.22,0V6.78h1.83a3.4,3.4,0,0,0,3.39-3.39A3.34,3.34,0,0,0,14.38,0h-2A6.61,6.61,0,0,0,5.77,6.61v6.11a19.47,19.47,0,0,0,16,19V48.43a16.11,16.11,0,0,0,4,10.7,15.29,15.29,0,0,0,21.3,1l2.09-1.83a7.48,7.48,0,0,0,3.39-.17A7.8,7.8,0,0,0,58.12,52,7.57,7.57,0,0,0,55.86,45.22Zm-5,7.75a2.29,2.29,0,1,1,2.29-2.29A2.29,2.29,0,0,1,50.82,53Z" style="fill:#e2001a"/></g></svg>