<svg id="Icons" xmlns="http://www.w3.org/2000/svg" width="32" height="32" viewBox="0 0 32 32"><title>video--rewind</title><g id="Rewind"><path d="M16,0A16,16,0,1,0,32,16,16,16,0,0,0,16,0Zm0,30A14,14,0,1,1,30,16,14,14,0,0,1,16,30Z" style="fill:#e2001a"/><path d="M22.77,10.36a1,1,0,0,0-1.41-.13l-6,5a1,1,0,0,0,0,1.54l6,5a1,1,0,1,0,1.28-1.54L17.56,16l5.08-4.23A1,1,0,0,0,22.77,10.36Z" style="fill:#e2001a"/><path d="M10.56,16l5.08-4.23a1,1,0,1,0-1.28-1.54l-6,5a1,1,0,0,0,0,1.54l6,5a1,1,0,1,0,1.28-1.54Z" style="fill:#e2001a"/></g></svg>