<svg id="Icons" xmlns="http://www.w3.org/2000/svg" width="32" height="32" viewBox="0 0 32 32"><title>video--expand</title><g id="Video_Expand" data-name="Video Expand"><path d="M9,30H3a1,1,0,0,1-1-1V23a1,1,0,0,0-2,0v6a3,3,0,0,0,3,3H9a1,1,0,0,0,0-2Z" style="fill:#e2001a"/><path d="M31,22a1,1,0,0,0-1,1v6a1,1,0,0,1-1,1H23a1,1,0,0,0,0,2h6a3,3,0,0,0,3-3V23A1,1,0,0,0,31,22Z" style="fill:#e2001a"/><path d="M9,0H3A3,3,0,0,0,0,3V9A1,1,0,0,0,2,9V3A1,1,0,0,1,3,2H9A1,1,0,0,0,9,0Z" style="fill:#e2001a"/><path d="M29,0H23a1,1,0,0,0,0,2h6a1,1,0,0,1,1,1V9a1,1,0,0,0,2,0V3A3,3,0,0,0,29,0Z" style="fill:#e2001a"/></g></svg>