<svg id="Icons" xmlns="http://www.w3.org/2000/svg" width="32" height="32" viewBox="0 0 32 32"><title>video--collapse</title><g id="Video_Collapse" data-name="Video Collapse"><path d="M9,0A1,1,0,0,0,8,1V7A1,1,0,0,1,7,8H1a1,1,0,0,0,0,2H7a3,3,0,0,0,3-3V1A1,1,0,0,0,9,0Z" style="fill:#e2001a"/><path d="M7,22H1a1,1,0,0,0,0,2H7a1,1,0,0,1,1,1v6a1,1,0,0,0,2,0V25A3,3,0,0,0,7,22Z" style="fill:#e2001a"/><path d="M25,10h6a1,1,0,0,0,0-2H25a1,1,0,0,1-1-1V1a1,1,0,0,0-2,0V7A3,3,0,0,0,25,10Z" style="fill:#e2001a"/><path d="M31,22H25a3,3,0,0,0-3,3v6a1,1,0,0,0,2,0V25a1,1,0,0,1,1-1h6a1,1,0,0,0,0-2Z" style="fill:#e2001a"/></g></svg>