<svg xmlns="http://www.w3.org/2000/svg" viewBox="0 0 64 64"><title>volume</title><g id="Volume"><path d="M30.73,13.54l0,36.9-4.13-3.33-.25-.2a8,8,0,0,0-4.74-1.55H7V18.64H21.57a7.94,7.94,0,0,0,4.74-1.55l.24-.19,4.18-3.36M36.74,0a1,1,0,0,0-.59.2l-14,11.25a1,1,0,0,1-.59.19H1a1,1,0,0,0-1,1V51.37a1,1,0,0,0,1,1H21.57a1,1,0,0,1,.59.19L36.09,63.81a1,1,0,0,0,.59.2,1,1,0,0,0,1-1l.06-62a1,1,0,0,0-1-1m6,54.14a22.25,22.25,0,0,0,0-44.46,1,1,0,0,0-1,1v5a1,1,0,0,0,1,1,15.25,15.25,0,0,1,0,30.45,1,1,0,0,0-1,1v5a1,1,0,0,0,1,1m.1-11.46a10.83,10.83,0,0,0,0-21.54,1,1,0,0,0-1.12,1V27.2a1,1,0,0,0,.83,1,3.83,3.83,0,0,1,0,7.48,1,1,0,0,0-.83,1v5.06a1,1,0,0,0,1.12,1" style="fill:#e2001a;fill-rule:evenodd"/></g></svg>