<svg id="Icons" xmlns="http://www.w3.org/2000/svg" width="32" height="32" viewBox="0 0 32 32"><title>weight</title><g id="Weigh"><path d="M16,5a6,6,0,1,0,6,6A6,6,0,0,0,16,5Zm0,10a4,4,0,0,1-1-7.86V11a1,1,0,0,0,2,0V7.14A4,4,0,0,1,16,15Z" style="fill:#e2001a"/><path d="M29,5H24.65a1,1,0,0,1-.87-.53,9,9,0,0,0-15.55,0A1,1,0,0,1,7.35,5H3A3,3,0,0,0,0,8V29a3,3,0,0,0,3,3H29a3,3,0,0,0,3-3V8A3,3,0,0,0,29,5Zm1,24a1,1,0,0,1-1,1H3a1,1,0,0,1-1-1V8A1,1,0,0,1,3,7H7.35A3,3,0,0,0,10,5.48,7,7,0,0,1,22,5.48,3,3,0,0,0,24.65,7H29a1,1,0,0,1,1,1Z" style="fill:#e2001a"/></g></svg>