<svg id="Icons" xmlns="http://www.w3.org/2000/svg" width="32" height="32" viewBox="0 0 32 32"><title>social--youtube</title><path id="YouTube" d="M31.68,9.75a6.67,6.67,0,0,0-1.27-3.1A4.64,4.64,0,0,0,27.2,5.32C22.72,5,16,5,16,5h0S9.28,5,4.8,5.32A4.64,4.64,0,0,0,1.59,6.64,6.67,6.67,0,0,0,.32,9.75,46.28,46.28,0,0,0,0,14.81v2.37a46.28,46.28,0,0,0,.32,5.06,6.67,6.67,0,0,0,1.27,3.1,5.5,5.5,0,0,0,3.53,1.34C7.68,26.93,16,27,16,27s6.72,0,11.2-.33a4.64,4.64,0,0,0,3.21-1.33,6.67,6.67,0,0,0,1.27-3.1A46.31,46.31,0,0,0,32,17.18V14.81a46.31,46.31,0,0,0-.32-5.06m-19,10.31V11.27l8.65,4.41Z" style="fill:#e2001a"/></svg>