<svg id="Icons" xmlns="http://www.w3.org/2000/svg" viewBox="0 0 32 32"><title>address-book</title><g id="Address_Book" data-name="Address Book"><path d="M26,32H7a3,3,0,0,1-3-3V3A3,3,0,0,1,7,0H26a3,3,0,0,1,3,3V29A3,3,0,0,1,26,32ZM7,2A1,1,0,0,0,6,3V29a1,1,0,0,0,1,1H26a1,1,0,0,0,1-1V3a1,1,0,0,0-1-1Z" style="fill:#444"/><path d="M24,19H9a1,1,0,0,1,0-2H24a1,1,0,0,1,0,2Z" style="fill:#444"/><path d="M24,15H9a1,1,0,0,1,0-2H24a1,1,0,0,1,0,2Z" style="fill:#444"/><path d="M24,10a1,1,0,0,1-.71-.29L22,8.41,20.71,9.71A1,1,0,0,1,19,9V1a1,1,0,0,1,1-1h4a1,1,0,0,1,1,1V9a1,1,0,0,1-1,1ZM22,6a1,1,0,0,1,.71.29l.29.29V2H21V6.59l.29-.29A1,1,0,0,1,22,6Z" style="fill:#444"/><path d="M7,6H3A1,1,0,0,1,3,4H7A1,1,0,0,1,7,6Z" style="fill:#444"/><path d="M7,28H3a1,1,0,0,1,0-2H7a1,1,0,0,1,0,2Z" style="fill:#444"/><path d="M7,24H3a1,1,0,0,1,0-2H7a1,1,0,0,1,0,2Z" style="fill:#444"/><path d="M7,10H3A1,1,0,0,1,3,8H7a1,1,0,0,1,0,2Z" style="fill:#444"/></g></svg>