<svg id="Icons" xmlns="http://www.w3.org/2000/svg" width="32" height="32" viewBox="0 0 32 32"><title>address-book</title><g id="Address_Book" data-name="Address Book"><path d="M26,0H7A3,3,0,0,0,4,3V4H3A1,1,0,0,0,3,6H4V8H3a1,1,0,0,0,0,2H4V22H3a1,1,0,0,0,0,2H4v2H3a1,1,0,0,0,0,2H4v1a3,3,0,0,0,3,3H26a3,3,0,0,0,3-3V3A3,3,0,0,0,26,0ZM21,2h2V6.59l-.29-.29a1,1,0,0,0-1.41,0L21,6.59Zm6,27a1,1,0,0,1-1,1H7a1,1,0,0,1-1-1V28H7a1,1,0,0,0,0-2H6V24H7a1,1,0,0,0,0-2H6V10H7A1,1,0,0,0,7,8H6V6H7A1,1,0,0,0,7,4H6V3A1,1,0,0,1,7,2H19V9a1,1,0,0,0,1.71.71L22,8.41l1.29,1.29A1,1,0,0,0,25,9V2h1a1,1,0,0,1,1,1Z" style="fill:#e2001a"/><path d="M24,17H9a1,1,0,0,0,0,2H24a1,1,0,0,0,0-2Z" style="fill:#e2001a"/><path d="M24,13H9a1,1,0,0,0,0,2H24a1,1,0,0,0,0-2Z" style="fill:#e2001a"/></g></svg>