<svg id="Icons" xmlns="http://www.w3.org/2000/svg" viewBox="0 0 32 32"><title>calendar</title><g id="Event"><path d="M18,27H14a1,1,0,0,1,0-2h4a1,1,0,0,1,0,2Z" style="fill:#444"/><path d="M9,27H5a1,1,0,0,1,0-2H9a1,1,0,0,1,0,2Z" style="fill:#444"/><path d="M18,23H14a1,1,0,0,1,0-2h4a1,1,0,0,1,0,2Z" style="fill:#444"/><path d="M27,23H23a1,1,0,0,1,0-2h4a1,1,0,0,1,0,2Z" style="fill:#444"/><path d="M9,23H5a1,1,0,0,1,0-2H9a1,1,0,0,1,0,2Z" style="fill:#444"/><path d="M18,19H14a1,1,0,0,1,0-2h4a1,1,0,0,1,0,2Z" style="fill:#444"/><path d="M27,19H23a1,1,0,0,1,0-2h4a1,1,0,0,1,0,2Z" style="fill:#444"/><path d="M9,19H5a1,1,0,0,1,0-2H9a1,1,0,0,1,0,2Z" style="fill:#444"/><path d="M18,15H14a1,1,0,0,1,0-2h4a1,1,0,0,1,0,2Z" style="fill:#444"/><path d="M27,15H23a1,1,0,0,1,0-2h4a1,1,0,0,1,0,2Z" style="fill:#444"/><path d="M9,15H5a1,1,0,0,1,0-2H9a1,1,0,0,1,0,2Z" style="fill:#444"/><path d="M29,4H26V2a2,2,0,0,0-2-2H22a2,2,0,0,0-2,2V4H12V2a2,2,0,0,0-2-2H8A2,2,0,0,0,6,2V4H3A3,3,0,0,0,0,7V29a3,3,0,0,0,3,3H29a3,3,0,0,0,3-3V7A3,3,0,0,0,29,4ZM22,2h2V4H22ZM8,2h2V4H8ZM30,29a1,1,0,0,1-1,1H3a1,1,0,0,1-1-1V10H30ZM30,8H2V7A1,1,0,0,1,3,6H29a1,1,0,0,1,1,1Z" style="fill:#444"/></g></svg>