<svg id="Icons" xmlns="http://www.w3.org/2000/svg" viewBox="0 0 32 32"><title>device--tablet</title><g id="Tablet"><path d="M26,32H6a3,3,0,0,1-3-3V3A3,3,0,0,1,6,0H26a3,3,0,0,1,3,3V29A3,3,0,0,1,26,32ZM6,2A1,1,0,0,0,5,3V29a1,1,0,0,0,1,1H26a1,1,0,0,0,1-1V3a1,1,0,0,0-1-1Z" style="fill:#444"/><path d="M16,28a1.05,1.05,0,0,1-.71-.29,1,1,0,0,1-.21-.33A.83.83,0,0,1,15,27a1,1,0,0,1,.29-.71,1,1,0,0,1,.33-.21,1,1,0,0,1,.76,0,1.16,1.16,0,0,1,.33.21A1.05,1.05,0,0,1,17,27a1,1,0,0,1-.08.38,1,1,0,0,1-.21.33A1.05,1.05,0,0,1,16,28Z" style="fill:#444"/></g></svg>