<svg id="Icons" xmlns="http://www.w3.org/2000/svg" viewBox="0 0 32 32"><title>device--computer</title><g id="Computer"><path d="M29,0H3A3,3,0,0,0,0,3V24a3,3,0,0,0,3,3h8.86A4,4,0,0,1,8,30a1,1,0,0,0,0,2H24a1,1,0,0,0,0-2,4,4,0,0,1-3.86-3H29a3,3,0,0,0,3-3V3A3,3,0,0,0,29,0ZM3,2H29a1,1,0,0,1,1,1V19H2V3A1,1,0,0,1,3,2ZM19.53,30H12.47a6,6,0,0,0,1.44-3h4.19A6,6,0,0,0,19.53,30ZM29,25H3a1,1,0,0,1-1-1V21H30v3A1,1,0,0,1,29,25Z" style="fill:#444"/><path d="M16,24a1.05,1.05,0,0,1-.71-.29,1,1,0,0,1-.21-.33.94.94,0,0,1,0-.76,1.15,1.15,0,0,1,.21-.33,1,1,0,0,1,1.42,0,1.15,1.15,0,0,1,.21.33A1,1,0,0,1,17,23a1,1,0,0,1-1,1Z" style="fill:#444"/></g></svg>