<svg id="Icons" xmlns="http://www.w3.org/2000/svg" viewBox="0 0 32 32"><title>device--mobile</title><g id="Phone"><path d="M23,32H9a3,3,0,0,1-3-3V3A3,3,0,0,1,9,0H23a3,3,0,0,1,3,3V29A3,3,0,0,1,23,32ZM9,2A1,1,0,0,0,8,3V29a1,1,0,0,0,1,1H23a1,1,0,0,0,1-1V3a1,1,0,0,0-1-1Z" style="fill:#444"/><path d="M16,28a1,1,0,0,1-1-1,1,1,0,0,1,.08-.38,1.15,1.15,0,0,1,.21-.33,1,1,0,0,1,1.42,0,1.15,1.15,0,0,1,.21.33A1,1,0,0,1,17,27a1.26,1.26,0,0,1,0,.2.62.62,0,0,1-.06.18.78.78,0,0,1-.09.18l-.12.15A1,1,0,0,1,16,28Z" style="fill:#444"/></g></svg>