<svg id="Icons" xmlns="http://www.w3.org/2000/svg" width="32" height="32" viewBox="0 0 32 32"><title>device--computer</title><g id="Computer"><path d="M29,0H3A3,3,0,0,0,0,3V24a3,3,0,0,0,3,3h8.86A4,4,0,0,1,8,30a1,1,0,0,0,0,2H24a1,1,0,0,0,0-2,4,4,0,0,1-3.86-3H29a3,3,0,0,0,3-3V3A3,3,0,0,0,29,0ZM12.47,30a6,6,0,0,0,1.44-3h4.19a6,6,0,0,0,1.44,3ZM30,24a1,1,0,0,1-1,1H3a1,1,0,0,1-1-1V21H30Zm0-5H2V3A1,1,0,0,1,3,2H29a1,1,0,0,1,1,1Z" style="fill:#e2001a"/><path d="M15.29,23.71A1,1,0,0,0,17,23a1,1,0,0,0-.08-.38,1.15,1.15,0,0,0-.21-.33,1,1,0,0,0-1.42,0,1.15,1.15,0,0,0-.21.33.94.94,0,0,0,0,.76A1,1,0,0,0,15.29,23.71Z" style="fill:#e2001a"/></g></svg>