<svg id="Icons" xmlns="http://www.w3.org/2000/svg" viewBox="0 0 32 32"><title>device--tablet--small</title><g id="Tablet"><path d="M20,24H12a3,3,0,0,1-3-3V11a3,3,0,0,1,3-3h8a3,3,0,0,1,3,3V21A3,3,0,0,1,20,24ZM12,10a1,1,0,0,0-1,1V21a1,1,0,0,0,1,1h8a1,1,0,0,0,1-1V11a1,1,0,0,0-1-1Z" style="fill:#444"/><path d="M16,21a1,1,0,0,1-.71-.29,1.16,1.16,0,0,1-.21-.33A1,1,0,0,1,15,20a1,1,0,0,1,.29-.71l.15-.12a.74.74,0,0,1,.18-.09A.65.65,0,0,1,15.8,19a1,1,0,0,1,.58.06,1.16,1.16,0,0,1,.33.21A1.05,1.05,0,0,1,17,20a1,1,0,0,1-.08.38,1.16,1.16,0,0,1-.21.33A1,1,0,0,1,16,21Z" style="fill:#444"/></g></svg>