<svg id="Icons" xmlns="http://www.w3.org/2000/svg" width="32" height="32" viewBox="0 0 32 32"><title>device--tablet</title><g id="Tablet"><path d="M26,0H6A3,3,0,0,0,3,3V29a3,3,0,0,0,3,3H26a3,3,0,0,0,3-3V3A3,3,0,0,0,26,0Zm1,29a1,1,0,0,1-1,1H6a1,1,0,0,1-1-1V3A1,1,0,0,1,6,2H26a1,1,0,0,1,1,1Z" style="fill:#e2001a"/><path d="M16.38,26.08a1,1,0,0,0-.76,0,1,1,0,0,0-.33.21A1,1,0,0,0,15,27a.83.83,0,0,0,.08.38,1,1,0,0,0,.21.33,1,1,0,0,0,1.42,0,1,1,0,0,0,.21-.33A1,1,0,0,0,17,27a1.05,1.05,0,0,0-.29-.71A1.16,1.16,0,0,0,16.38,26.08Z" style="fill:#e2001a"/></g></svg>