<svg id="Icons" xmlns="http://www.w3.org/2000/svg" viewBox="0 0 32 32"><title>doc--image</title><path id="Image" d="M29,8H28V6a3,3,0,0,0-3-3H3A3,3,0,0,0,0,6V22a3,3,0,0,0,3,3H4v1a3,3,0,0,0,3,3H29a3,3,0,0,0,3-3V11A3,3,0,0,0,29,8ZM3,5H25a1,1,0,0,1,1,1v9.59l-3.29-3.29a1,1,0,0,0-1.35-.06l-5.3,4.42L8.71,9.29a1,1,0,0,0-1.36-.05L2,13.83V6A1,1,0,0,1,3,5ZM3,23a1,1,0,0,1-1-1V16.46l5.95-5.1,7.35,7.35a1,1,0,0,0,1.35.06l5.3-4.42L26,18.41V22a1,1,0,0,1-1,1Zm27,3a1,1,0,0,1-1,1H7a1,1,0,0,1-1-1V25H25a3,3,0,0,0,3-3V10h1a1,1,0,0,1,1,1Z" style="fill:#444"/></svg>