<svg id="Icons" xmlns="http://www.w3.org/2000/svg" viewBox="0 0 32 32"><title>doc--video</title><g id="Video"><path d="M14,20a1,1,0,0,1-1-1V13a1,1,0,0,1,1.45-.89l6,3a1,1,0,0,1,0,1.79l-6,3A1,1,0,0,1,14,20Zm1-5.38v2.76L17.76,16Z" style="fill:#444"/><path d="M29,3H3A3,3,0,0,0,0,6V26a3,3,0,0,0,3,3H29a3,3,0,0,0,3-3V6A3,3,0,0,0,29,3Zm1,3V8H27V5h2A1,1,0,0,1,30,6ZM22,8V5h3V8ZM17,8V5h3V8ZM12,8V5h3V8ZM7,8V5h3V8ZM3,5H5V8H2V6A1,1,0,0,1,3,5ZM5,27H3a1,1,0,0,1-1-1V24H5Zm5,0H7V24h3Zm5,0H12V24h3Zm5,0H17V24h3Zm5,0H22V24h3Zm5-1a1,1,0,0,1-1,1H27V24h3ZM2,22V10H30V22Z" style="fill:#444"/></g></svg>