<svg id="Icons" xmlns="http://www.w3.org/2000/svg" width="32" height="32" viewBox="0 0 32 32"><title>doc--video</title><g id="Doc_-_Video" data-name="Doc - Video"><path d="M29,3H3A3,3,0,0,0,0,6V26a3,3,0,0,0,3,3H29a3,3,0,0,0,3-3V6A3,3,0,0,0,29,3ZM10,24v3H7V24Zm2,0h3v3H12Zm5,0h3v3H17Zm5,0h3v3H22ZM2,22V10H30V22ZM22,8V5h3V8ZM20,8H17V5h3ZM15,8H12V5h3ZM10,8H7V5h3ZM30,6V8H27V5h2A1,1,0,0,1,30,6ZM3,5H5V8H2V6A1,1,0,0,1,3,5ZM2,26V24H5v3H3A1,1,0,0,1,2,26Zm27,1H27V24h3v2A1,1,0,0,1,29,27Z" style="fill:#e2001a"/><path d="M20.45,15.11l-6-3A1,1,0,0,0,13,13v6a1,1,0,0,0,1.45.89l6-3a1,1,0,0,0,0-1.79ZM15,17.38V14.62L17.76,16Z" style="fill:#e2001a"/></g></svg>