<svg id="Icons" xmlns="http://www.w3.org/2000/svg" width="32" height="32" viewBox="0 0 32 32"><title>documents</title><g id="Documents"><path d="M29,0H15a3,3,0,0,0-3,3V5H3A3,3,0,0,0,0,8V29a3,3,0,0,0,3,3H17a3,3,0,0,0,3-3V27h9a3,3,0,0,0,3-3V3A3,3,0,0,0,29,0ZM18,29a1,1,0,0,1-1,1H3a1,1,0,0,1-1-1V8A1,1,0,0,1,3,7H17a1,1,0,0,1,1,1Zm12-5a1,1,0,0,1-1,1H20V23h4a1,1,0,0,0,0-2H20V19h7a1,1,0,0,0,0-2H20V15h7a1,1,0,0,0,0-2H20V11h7a1,1,0,0,0,0-2H20V8a3,3,0,0,0-3-3H14V3a1,1,0,0,1,1-1H29a1,1,0,0,1,1,1Z" style="fill:#e2001a"/><path d="M15,14H5a1,1,0,0,0,0,2H15a1,1,0,0,0,0-2Z" style="fill:#e2001a"/><path d="M15,10H5a1,1,0,0,0,0,2H15a1,1,0,0,0,0-2Z" style="fill:#e2001a"/><path d="M15,18H5a1,1,0,0,0,0,2H15a1,1,0,0,0,0-2Z" style="fill:#e2001a"/><path d="M15,22H5a1,1,0,0,0,0,2H15a1,1,0,0,0,0-2Z" style="fill:#e2001a"/><path d="M12,26H5a1,1,0,0,0,0,2h7a1,1,0,0,0,0-2Z" style="fill:#e2001a"/><path d="M27,5H23a1,1,0,0,0,0,2h4a1,1,0,0,0,0-2Z" style="fill:#e2001a"/></g></svg>