<svg id="Icons" xmlns="http://www.w3.org/2000/svg" viewBox="0 0 32 32"><title>documents</title><g id="Documents"><path d="M29,0H15a3,3,0,0,0-3,3V5H3A3,3,0,0,0,0,8V29a3,3,0,0,0,3,3H17a3,3,0,0,0,3-3V27h9a3,3,0,0,0,3-3V3A3,3,0,0,0,29,0ZM18,29a1,1,0,0,1-1,1H3a1,1,0,0,1-1-1V8A1,1,0,0,1,3,7H17a1,1,0,0,1,1,1Zm12-5a1,1,0,0,1-1,1H20V8a3,3,0,0,0-3-3H14V3a1,1,0,0,1,1-1H29a1,1,0,0,1,1,1Z" style="fill:#444"/><path d="M15,16H5a1,1,0,0,1,0-2H15a1,1,0,0,1,0,2Z" style="fill:#444"/><path d="M15,12H5a1,1,0,0,1,0-2H15a1,1,0,0,1,0,2Z" style="fill:#444"/><path d="M15,20H5a1,1,0,0,1,0-2H15a1,1,0,0,1,0,2Z" style="fill:#444"/><path d="M15,24H5a1,1,0,0,1,0-2H15a1,1,0,0,1,0,2Z" style="fill:#444"/><path d="M12,28H5a1,1,0,0,1,0-2h7a1,1,0,0,1,0,2Z" style="fill:#444"/><path d="M27,11H19a1,1,0,0,1,0-2h8a1,1,0,0,1,0,2Z" style="fill:#444"/><path d="M27,7H23a1,1,0,0,1,0-2h4a1,1,0,0,1,0,2Z" style="fill:#444"/><path d="M27,15H19a1,1,0,0,1,0-2h8a1,1,0,0,1,0,2Z" style="fill:#444"/><path d="M27,19H19a1,1,0,0,1,0-2h8a1,1,0,0,1,0,2Z" style="fill:#444"/><path d="M24,23H19a1,1,0,0,1,0-2h5a1,1,0,0,1,0,2Z" style="fill:#444"/></g></svg>