<svg id="Icons" xmlns="http://www.w3.org/2000/svg" viewBox="0 0 32 32"><title>expert-advice</title><g id="Expert_Advice" data-name="Expert Advice"><path d="M29,12H23V3a3,3,0,0,0-3-3H3A3,3,0,0,0,0,3V13a3,3,0,0,0,3,3H4v1.59A2,2,0,0,0,7.41,19L9,17.41V25a3,3,0,0,0,3,3h7.59l3,3A2,2,0,0,0,26,29.59V28h3a3,3,0,0,0,3-3V15A3,3,0,0,0,29,12ZM6,17.59V16a2,2,0,0,0-2-2H3a1,1,0,0,1-1-1V3A1,1,0,0,1,3,2H20a1,1,0,0,1,1,1v9H12a3,3,0,0,0-3,2.54ZM30,25a1,1,0,0,1-1,1H26a2,2,0,0,0-2,2v1.59l-3-3A2,2,0,0,0,19.59,26H12a1,1,0,0,1-1-1V15a1,1,0,0,1,1-1H29a1,1,0,0,1,1,1Z" style="fill:#444"/><path d="M26,21H15a1,1,0,0,1,0-2H26a1,1,0,0,1,0,2Z" style="fill:#444"/><path d="M17,9H6A1,1,0,0,1,6,7H17a1,1,0,0,1,0,2Z" style="fill:#444"/></g></svg>