<svg id="Icons" xmlns="http://www.w3.org/2000/svg" viewBox="0 0 32 32"><title>feedback--warning--small</title><g id="Warning"><path d="M16,24a8,8,0,1,1,8-8A8,8,0,0,1,16,24Zm0-14a6,6,0,1,0,6,6A6,6,0,0,0,16,10Z" style="fill:#444"/><path d="M16,17a1,1,0,0,1-1-1V13a1,1,0,0,1,2,0v3A1,1,0,0,1,16,17Z" style="fill:#444"/><path d="M16,20a1,1,0,0,1-.92-1.38,1.15,1.15,0,0,1,.21-.33,1,1,0,0,1,.16-.12.55.55,0,0,1,.17-.09A.65.65,0,0,1,15.8,18a1,1,0,0,1,.58.06.9.9,0,0,1,.54.54A1,1,0,0,1,16,20Z" style="fill:#444"/></g></svg>