<svg id="Icons" xmlns="http://www.w3.org/2000/svg" viewBox="0 0 32 32"><title>filter--small</title><g id="Filter"><path d="M23,15H15.82a3,3,0,0,0-5.63,0H9a1,1,0,0,0,0,2h1.18a3,3,0,0,0,5.63,0H23a1,1,0,0,0,0-2ZM13,17a1,1,0,1,1,1-1A1,1,0,0,1,13,17Z" style="fill:#444"/><path d="M9,12h9.18a3,3,0,1,0,0-2H9a1,1,0,0,0,0,2Zm12-2a1,1,0,1,1-1,1A1,1,0,0,1,21,10Z" style="fill:#444"/><path d="M23,20H22a1,1,0,0,0-.17,0,3,3,0,0,0-5.64,0H9a1,1,0,0,0,0,2h7.18a3,3,0,0,0,5.64,0A1,1,0,0,0,22,22h1a1,1,0,0,0,0-2Zm-4,2a1,1,0,1,1,1-1A1,1,0,0,1,19,22Z" style="fill:#444"/></g></svg>