<svg id="Icons" xmlns="http://www.w3.org/2000/svg" viewBox="0 0 32 32"><title>get-location--2</title><g id="Get_Location_2_" data-name="Get Location(2)"><path d="M31,15H28.95A13,13,0,0,0,17,3.05V1a1,1,0,0,0-2,0V3.05A13,13,0,0,0,3,15H1a1,1,0,0,0,0,2H3A13,13,0,0,0,15,28.95V31a1,1,0,0,0,2,0V29A13,13,0,0,0,28.95,17H31a1,1,0,0,0,0-2Zm-6,2h1.95A11,11,0,0,1,17,27V25a1,1,0,0,0-2,0v1.95A11,11,0,0,1,5,17H7a1,1,0,0,0,0-2H5A11,11,0,0,1,15,5.05V7a1,1,0,0,0,2,0V5.05A11,11,0,0,1,26.95,15H25a1,1,0,0,0,0,2Z" style="fill:#444"/><path d="M16,20a4,4,0,1,1,4-4A4,4,0,0,1,16,20Zm0-6a2,2,0,1,0,2,2A2,2,0,0,0,16,14Z" style="fill:#444"/></g></svg>