<svg id="Icons" xmlns="http://www.w3.org/2000/svg" viewBox="0 0 32 32"><title>get-location--2--small</title><path id="Get_Location_2_" data-name="Get Location (2)" d="M23,15h-.08A7,7,0,0,0,17,9.08V9a1,1,0,0,0-2,0v.08A7,7,0,0,0,9.08,15H9a1,1,0,0,0,0,2h.08A7,7,0,0,0,15,22.92V23a1,1,0,0,0,2,0v-.08A7,7,0,0,0,22.92,17H23a1,1,0,0,0,0-2Zm-2.1,0H18.82A3,3,0,0,0,17,13.18V11.1A5,5,0,0,1,20.9,15ZM16,17a1,1,0,1,1,1-1A1,1,0,0,1,16,17Zm-1-5.9v2.08A3,3,0,0,0,13.18,15H11.1A5,5,0,0,1,15,11.1ZM11.1,17h2.08A3,3,0,0,0,15,18.82V20.9A5,5,0,0,1,11.1,17ZM17,20.9V18.82A3,3,0,0,0,18.82,17H20.9A5,5,0,0,1,17,20.9Z" style="fill:#444"/></svg>