<svg id="Icons" xmlns="http://www.w3.org/2000/svg" viewBox="0 0 32 32"><title>google-plus--small</title><g id="Google_" data-name="Google+"><path d="M8,15.34a5.09,5.09,0,0,0,3.23,5A5,5,0,0,0,17,18.8a5.83,5.83,0,0,0,.92-3.93c-1.62,0-3.24,0-4.86,0,0,.58,0,1.15,0,1.73,1,0,1.94,0,2.91,0-.43,2.15-3.35,2.84-4.89,1.44A3.25,3.25,0,0,1,11.24,13a3.35,3.35,0,0,1,4,.1,18.09,18.09,0,0,0,1.29-1.33,5.15,5.15,0,0,0-3.39-1.25A5.07,5.07,0,0,0,8,15.34ZM21.1,13.41q0,.72,0,1.45H19.63v1.44h1.45c0,.48,0,1,0,1.45h1.45q0-.72,0-1.45H24V14.87H22.55c0-.48,0-1,0-1.45Z" style="fill:#444"/><path d="M8,15.34a5.07,5.07,0,0,1,5.07-4.82,5.15,5.15,0,0,1,3.39,1.25,18.09,18.09,0,0,1-1.29,1.33,3.35,3.35,0,0,0-4-.1,3.25,3.25,0,0,0-.14,5.07c1.55,1.4,4.47.71,4.89-1.44-1,0-1.94,0-2.91,0,0-.58,0-1.15,0-1.73,1.62,0,3.24,0,4.86,0A5.83,5.83,0,0,1,17,18.8a5,5,0,0,1-5.78,1.54A5.09,5.09,0,0,1,8,15.34Z" style="fill:#444"/><path d="M21.1,13.41h1.44c0,.48,0,1,0,1.45H24v1.44H22.55q0,.73,0,1.45H21.09c0-.48,0-1,0-1.45H19.63V14.87h1.45Q21.09,14.13,21.1,13.41Z" style="fill:#444"/></g></svg>