<svg id="Icons" xmlns="http://www.w3.org/2000/svg" width="32" height="32" viewBox="0 0 32 32"><title>social--google-plus</title><g id="Google_Plus" data-name="Google Plus"><path d="M0,16.08a10.17,10.17,0,0,0,6.45,10c4,1.52,9,.49,11.56-3.07a11.65,11.65,0,0,0,1.83-7.86c-3.24,0-6.48,0-9.71,0,0,1.15,0,2.31,0,3.46,1.94.06,3.88,0,5.81.06-.85,4.29-6.7,5.69-9.79,2.88A6.51,6.51,0,0,1,6.47,11.4c2.31-1.84,5.59-1.39,7.9.21A36.18,36.18,0,0,0,17,8.94a10.3,10.3,0,0,0-6.79-2.51A10.14,10.14,0,0,0,0,16.08Zm26.16-3.86q0,1.45,0,2.9l-2.9,0V18l2.9,0c0,1,0,1.93,0,2.9h2.89q0-1.45,0-2.9L32,18V15.14l-2.9,0c0-1,0-1.94,0-2.9Z" style="fill:#e2001a"/></g></svg>