<svg id="Icons" xmlns="http://www.w3.org/2000/svg" viewBox="0 0 32 32"><title>google-plus</title><g id="Google_" data-name="Google+"><path d="M0,15.08a10.17,10.17,0,0,0,6.45,10c4,1.52,9,.49,11.56-3.07a11.65,11.65,0,0,0,1.83-7.86c-3.24,0-6.48,0-9.71,0,0,1.15,0,2.31,0,3.46,1.94.06,3.88,0,5.81.06-.85,4.29-6.7,5.69-9.79,2.88A6.51,6.51,0,0,1,6.47,10.4c2.31-1.84,5.59-1.39,7.9.21A36.18,36.18,0,0,0,17,7.94a10.3,10.3,0,0,0-6.79-2.51A10.14,10.14,0,0,0,0,15.08Zm26.16-3.86q0,1.45,0,2.9l-2.9,0V17l2.9,0c0,1,0,1.93,0,2.9h2.89q0-1.45,0-2.9L32,17V14.14l-2.9,0c0-1,0-1.94,0-2.9Z" style="fill:#444"/><path d="M0,15.08A10.14,10.14,0,0,1,10.16,5.44,10.3,10.3,0,0,1,17,7.94a36.18,36.18,0,0,1-2.58,2.67C12.07,9,8.78,8.56,6.47,10.4a6.51,6.51,0,0,0-.28,10.14C9.29,23.35,15.13,22,16,17.66c-1.94,0-3.88,0-5.81-.06,0-1.15,0-2.31,0-3.46,3.24,0,6.47,0,9.71,0A11.65,11.65,0,0,1,18,22c-2.53,3.56-7.6,4.6-11.56,3.07A10.17,10.17,0,0,1,0,15.08Z" style="fill:#444"/><path d="M26.19,11.22h2.89c0,1,0,1.94,0,2.9l2.9,0V17l-2.9,0q0,1.46,0,2.9H26.19c0-1,0-1.93,0-2.9l-2.9,0V14.14l2.9,0Q26.17,12.67,26.19,11.22Z" style="fill:#444"/></g></svg>