<svg id="Icons" xmlns="http://www.w3.org/2000/svg" viewBox="0 0 32 32"><title>help</title><g id="Help"><path d="M17,32a4,4,0,1,1,4-4A4,4,0,0,1,17,32Zm0-6a2,2,0,1,0,2,2A2,2,0,0,0,17,26Z" style="fill:#444"/><path d="M17,23a3,3,0,0,1-3-3,9.48,9.48,0,0,1,3-7.2c.25-.26.54-.53.85-.81C18.88,11.08,20,10,20,9a3,3,0,0,0-6,0v1a3,3,0,0,1-6,0V9A9,9,0,0,1,26,9c0,2.76-1.75,4.61-3.3,6.25S20,18.11,20,20A3,3,0,0,1,17,23ZM17,4a5,5,0,0,1,5,5c0,1.92-1.53,3.33-2.76,4.46-.28.26-.54.5-.77.73A7.57,7.57,0,0,0,16,20a1,1,0,0,0,2,0c0-2.69,1.73-4.52,3.25-6.13S24,11,24,9A7,7,0,0,0,10,9v1a1,1,0,0,0,2,0V9A5,5,0,0,1,17,4Z" style="fill:#444"/></g></svg>