<svg id="Icons" xmlns="http://www.w3.org/2000/svg" width="32" height="32" viewBox="0 0 32 32"><title>view--hide</title><g id="Hide"><path d="M31.71,15.29a30.44,30.44,0,0,0-7-5,1,1,0,1,0-.91,1.78A29.46,29.46,0,0,1,29.52,16c-2,1.72-7.5,6-13.52,6q-.57,0-1.13,0a1,1,0,0,0-1.08.91,1,1,0,0,0,.91,1.08c.43,0,.87.06,1.3.06,8.32,0,15.41-7,15.71-7.29a1,1,0,0,0,0-1.41Z" style="fill:#e2001a"/><path d="M21,16a5,5,0,0,0-1.17-3.18l5-6.19a1,1,0,0,0-1.56-1.25L20.57,8.68A16.82,16.82,0,0,0,16,8C7.68,8,.59,15,.29,15.29a1,1,0,0,0,0,1.41,29.92,29.92,0,0,0,9.12,5.93L7.22,25.38a1,1,0,0,0,1.56,1.25l3.08-3.85h0l1.87-2.34A4.94,4.94,0,0,0,16,21,5,5,0,0,0,21,16Zm-8.83,3.18L10.73,21a27.79,27.79,0,0,1-8.25-5c2-1.72,7.5-6,13.52-6a14.33,14.33,0,0,1,3.21.39l-.94,1.18A4.94,4.94,0,0,0,16,11a5,5,0,0,0-5,5A5,5,0,0,0,12.17,19.18Zm1.28-1.6A3,3,0,0,1,13,16a3,3,0,0,1,3-3,3,3,0,0,1,1,.18Zm5.08-3.15A3,3,0,0,1,19,16a3,3,0,0,1-3,3,3,3,0,0,1-1-.18Z" style="fill:#e2001a"/></g></svg>