<svg id="Icons" xmlns="http://www.w3.org/2000/svg" viewBox="0 0 32 32"><title>instagram--small</title><g id="Instagram"><path d="M16,9.44c2.14,0,2.39,0,3.23,0a4.43,4.43,0,0,1,1.49.28,2.65,2.65,0,0,1,1.52,1.52,4.43,4.43,0,0,1,.28,1.49c0,.84,0,1.1,0,3.23s0,2.39,0,3.23a4.43,4.43,0,0,1-.28,1.49,2.65,2.65,0,0,1-1.52,1.52,4.43,4.43,0,0,1-1.49.28c-.84,0-1.1,0-3.23,0s-2.39,0-3.23,0a4.43,4.43,0,0,1-1.49-.28,2.65,2.65,0,0,1-1.52-1.52,4.43,4.43,0,0,1-.28-1.49c0-.84,0-1.1,0-3.23s0-2.39,0-3.23a4.43,4.43,0,0,1,.28-1.49,2.65,2.65,0,0,1,1.52-1.52,4.43,4.43,0,0,1,1.49-.28c.84,0,1.1,0,3.23,0M16,8c-2.17,0-2.45,0-3.3,0a5.87,5.87,0,0,0-1.94.37,4.09,4.09,0,0,0-2.34,2.34A5.87,5.87,0,0,0,8,12.7c0,.85,0,1.13,0,3.3s0,2.45,0,3.3a5.87,5.87,0,0,0,.37,1.94,4.09,4.09,0,0,0,2.34,2.34A5.87,5.87,0,0,0,12.7,24c.85,0,1.13,0,3.3,0s2.45,0,3.3,0a5.87,5.87,0,0,0,1.94-.37,4.09,4.09,0,0,0,2.34-2.34A5.87,5.87,0,0,0,24,19.3c0-.85,0-1.13,0-3.3s0-2.45,0-3.3a5.87,5.87,0,0,0-.37-1.94,4.09,4.09,0,0,0-2.34-2.34A5.87,5.87,0,0,0,19.3,8c-.85,0-1.13,0-3.3,0Z" style="fill:#444"/><path d="M16,11.89A4.11,4.11,0,1,0,20.11,16,4.11,4.11,0,0,0,16,11.89Zm0,6.77A2.67,2.67,0,1,1,18.67,16,2.67,2.67,0,0,1,16,18.67Z" style="fill:#444"/><circle cx="20.27" cy="11.73" r="0.96" style="fill:#444"/></g></svg>