<svg id="Icons" xmlns="http://www.w3.org/2000/svg" viewBox="0 0 32 32"><title>instagram</title><g id="Instagram"><path d="M16,2.88c4.27,0,4.78,0,6.47.09a8.85,8.85,0,0,1,3,.55,5,5,0,0,1,1.84,1.2,5,5,0,0,1,1.2,1.84,8.85,8.85,0,0,1,.55,3c.08,1.69.09,2.19.09,6.47s0,4.78-.09,6.47a8.85,8.85,0,0,1-.55,3,5.3,5.3,0,0,1-3,3,8.85,8.85,0,0,1-3,.55c-1.69.08-2.19.09-6.47.09s-4.78,0-6.47-.09a8.85,8.85,0,0,1-3-.55,5,5,0,0,1-1.84-1.2,5,5,0,0,1-1.2-1.84,8.85,8.85,0,0,1-.55-3c-.08-1.69-.09-2.19-.09-6.47s0-4.78.09-6.47a8.85,8.85,0,0,1,.55-3,5,5,0,0,1,1.2-1.84,5,5,0,0,1,1.84-1.2,8.85,8.85,0,0,1,3-.55c1.69-.08,2.19-.09,6.47-.09M16,0c-4.35,0-4.89,0-6.6.1A11.74,11.74,0,0,0,5.52.84,7.84,7.84,0,0,0,2.69,2.69,7.84,7.84,0,0,0,.84,5.52,11.74,11.74,0,0,0,.1,9.4C0,11.11,0,11.65,0,16s0,4.89.1,6.6a11.74,11.74,0,0,0,.74,3.88,7.84,7.84,0,0,0,1.85,2.83,7.84,7.84,0,0,0,2.83,1.85,11.74,11.74,0,0,0,3.88.74c1.71.08,2.25.1,6.6.1s4.89,0,6.6-.1a11.74,11.74,0,0,0,3.88-.74,8.18,8.18,0,0,0,4.68-4.68,11.74,11.74,0,0,0,.74-3.88c.08-1.71.1-2.25.1-6.6s0-4.89-.1-6.6a11.74,11.74,0,0,0-.74-3.88,7.84,7.84,0,0,0-1.85-2.83A7.84,7.84,0,0,0,26.48.84,11.74,11.74,0,0,0,22.6.1C20.89,0,20.35,0,16,0Z" style="fill:#444"/><path d="M16,7.78A8.22,8.22,0,1,0,24.22,16,8.22,8.22,0,0,0,16,7.78Zm0,13.55A5.33,5.33,0,1,1,21.33,16,5.33,5.33,0,0,1,16,21.33Z" style="fill:#444"/><circle cx="24.54" cy="7.46" r="1.92" style="fill:#444"/></g></svg>