<svg id="Icons" xmlns="http://www.w3.org/2000/svg" viewBox="0 0 32 32"><title>like</title><g id="Like"><path d="M16,29.12a3,3,0,0,1-2.16-.92h0L2.42,16.34A8.42,8.42,0,0,1,.68,13.82,8.5,8.5,0,0,1,16,6.5a8.5,8.5,0,0,1,15.34,7.28,8.32,8.32,0,0,1-1.73,2.53L18.16,28.2A3,3,0,0,1,16,29.12Zm-.72-2.31a1,1,0,0,0,1.44,0L28.16,14.92A6.38,6.38,0,0,0,29.5,13a6.53,6.53,0,0,0,.38-3.79,6.46,6.46,0,0,0-5.09-5.09,6.55,6.55,0,0,0-5.43,1.37,6.48,6.48,0,0,0-2.36,5,1,1,0,0,1-2,0,6.48,6.48,0,0,0-2.36-5A6.56,6.56,0,0,0,7.21,4.12,6.46,6.46,0,0,0,2.12,9.23,6.53,6.53,0,0,0,2.52,13,6.46,6.46,0,0,0,3.86,15Z" style="fill:#444"/></g></svg>