<svg id="Icons" xmlns="http://www.w3.org/2000/svg" viewBox="0 0 32 32"><title>like--small</title><g id="Like"><path d="M16,23a1.93,1.93,0,0,1-1.4-.61h0L9.27,16.73a4.54,4.54,0,0,1-.91-1.36,4.68,4.68,0,0,1-.28-2.66,4.54,4.54,0,0,1,3.54-3.62,4.47,4.47,0,0,1,3.71.93,4.62,4.62,0,0,1,.67.68,4.6,4.6,0,0,1,.67-.68,4.47,4.47,0,0,1,3.71-.93,4.54,4.54,0,0,1,3.54,3.61,4.68,4.68,0,0,1-.26,2.65,4.5,4.5,0,0,1-.91,1.37L17.4,22.39A1.93,1.93,0,0,1,16,23ZM12.5,11a2.56,2.56,0,0,0-.5,0,2.52,2.52,0,0,0-2,2,2.68,2.68,0,0,0,.16,1.53,2.58,2.58,0,0,0,.52.76L16,21l5.27-5.64a2.55,2.55,0,0,0,.52-.76A2.64,2.64,0,0,0,22,13.06a2.52,2.52,0,0,0-2-2,2.43,2.43,0,0,0-2.05.51,2.61,2.61,0,0,0-.94,2,1,1,0,0,1-2,0,2.61,2.61,0,0,0-.94-2A2.42,2.42,0,0,0,12.5,11Z" style="fill:#444"/></g></svg>