<svg id="Icons" xmlns="http://www.w3.org/2000/svg" viewBox="0 0 32 32"><title>lock</title><g id="Lock"><path d="M25,12H23V7A7,7,0,0,0,9,7v5H7a3,3,0,0,0-3,3V29a3,3,0,0,0,3,3H25a3,3,0,0,0,3-3V15A3,3,0,0,0,25,12ZM11,7A5,5,0,0,1,21,7v5H11ZM26,29a1,1,0,0,1-1,1H7a1,1,0,0,1-1-1V15a1,1,0,0,1,1-1H25a1,1,0,0,1,1,1Z" style="fill:#444"/><path d="M16,27a1,1,0,0,1-1-1V23a1,1,0,0,1,2,0v3A1,1,0,0,1,16,27Z" style="fill:#444"/><path d="M16,24a4,4,0,1,1,4-4A4,4,0,0,1,16,24Zm0-6a2,2,0,1,0,2,2A2,2,0,0,0,16,18Z" style="fill:#444"/></g></svg>