<svg id="Icons" xmlns="http://www.w3.org/2000/svg" viewBox="0 0 32 32"><title>news</title><g id="News"><path d="M29,32H3a3,3,0,0,1-3-3V3A3,3,0,0,1,3,0H24a3,3,0,0,1,3,3V5h2a3,3,0,0,1,3,3V29A3,3,0,0,1,29,32ZM3,2A1,1,0,0,0,2,3V29a1,1,0,0,0,1,1H29a1,1,0,0,0,1-1V8a1,1,0,0,0-1-1H27V26a1,1,0,0,1-2,0V3a1,1,0,0,0-1-1Z" style="fill:#444"/><path d="M13,11H6A2,2,0,0,1,4,9V7A2,2,0,0,1,6,5h7a2,2,0,0,1,2,2V9A2,2,0,0,1,13,11ZM6,7V9h7V7Z" style="fill:#444"/><path d="M22,7H18a1,1,0,0,1,0-2h4a1,1,0,0,1,0,2Z" style="fill:#444"/><path d="M22,11H18a1,1,0,0,1,0-2h4a1,1,0,0,1,0,2Z" style="fill:#444"/><path d="M22,15H5a1,1,0,0,1,0-2H22a1,1,0,0,1,0,2Z" style="fill:#444"/><path d="M22,19H5a1,1,0,0,1,0-2H22a1,1,0,0,1,0,2Z" style="fill:#444"/><path d="M22,23H5a1,1,0,0,1,0-2H22a1,1,0,0,1,0,2Z" style="fill:#444"/><path d="M22,27H5a1,1,0,0,1,0-2H22a1,1,0,0,1,0,2Z" style="fill:#444"/></g></svg>