<svg id="Icons" xmlns="http://www.w3.org/2000/svg" viewBox="0 0 32 32"><title>news--small</title><g id="News"><path d="M22.07,24H9.93A1.94,1.94,0,0,1,8,22.07V9.93A1.94,1.94,0,0,1,9.93,8H19a2.05,2.05,0,0,1,2,2v.33h1.07A1.94,1.94,0,0,1,24,12.27v9.8A1.94,1.94,0,0,1,22.07,24ZM9.93,10,10,22.07,22.07,22,22,12.27l-1,0V20a1,1,0,0,1-2,0V10Z" style="fill:#444"/><path d="M16,19H12a1,1,0,0,1,0-2h4a1,1,0,0,1,0,2Z" style="fill:#444"/><path d="M17,16H12a1,1,0,0,1,0-2h5a1,1,0,0,1,0,2Z" style="fill:#444"/><path d="M17,13H12a1,1,0,0,1,0-2h5a1,1,0,0,1,0,2Z" style="fill:#444"/></g></svg>