<svg id="Icons" xmlns="http://www.w3.org/2000/svg" viewBox="0 0 32 32"><title>pin--small</title><g id="Pin-2" data-name="Pin"><path d="M16,24a1.8,1.8,0,0,1-1.47-.76c0-.06-4.53-6.32-4.53-9.4a6,6,0,0,1,12,0c0,3.07-4.48,9.33-4.53,9.4A1.8,1.8,0,0,1,16,24Zm.15-1.93h0ZM16,10a3.93,3.93,0,0,0-4,3.85c0,1.57,2.31,5.64,4,8,1.69-2.37,4-6.44,4-8A3.93,3.93,0,0,0,16,10Z" style="fill:#444"/><path d="M16,16a2,2,0,1,1,2-2A2,2,0,0,1,16,16Zm0-2h0Zm0,0h0Zm0,0h0Zm0,0h0Zm0,0h0Zm0,0h0Zm0,0h0Zm0,0h0Z" style="fill:#444"/></g></svg>