<svg id="Icons" xmlns="http://www.w3.org/2000/svg" viewBox="0 0 32 32"><title>pin</title><g id="Pin"><path d="M16,32a2.79,2.79,0,0,1-2.26-1.14C11.22,27.47,4,16.61,4,11.39,4,5.11,9.38,0,16,0S28,5.11,28,11.39c0,5.23-7.22,16.08-9.74,19.47A2.79,2.79,0,0,1,16,32ZM16,2C10.49,2,6,6.21,6,11.39c0,4.06,6.09,13.9,9.35,18.27a.8.8,0,0,0,1.31,0C19.91,25.29,26,15.44,26,11.39,26,6.21,21.51,2,16,2Z" style="fill:#444"/><path d="M16,17a6,6,0,1,1,6-6A6,6,0,0,1,16,17ZM16,7a4,4,0,1,0,4,4A4,4,0,0,0,16,7Z" style="fill:#444"/></g></svg>