<svg id="Icons" xmlns="http://www.w3.org/2000/svg" viewBox="0 0 32 32"><title>pinterest--small</title><g id="Pinterest"><path d="M16,8a8,8,0,0,0-3.21,15.33,7,7,0,0,1,.14-1.84l1-4.36a3.07,3.07,0,0,1-.26-1.27c0-1.19.69-2.07,1.54-2.07A1.07,1.07,0,0,1,16.32,15a17.26,17.26,0,0,1-.71,2.84,1.24,1.24,0,0,0,1.26,1.54c1.52,0,2.54-1.95,2.54-4.25a3,3,0,0,0-3.33-3.07,3.79,3.79,0,0,0-3.94,3.83,2.31,2.31,0,0,0,.53,1.57.39.39,0,0,1,.12.45l-.16.64a.28.28,0,0,1-.4.2,3.08,3.08,0,0,1-1.64-3.06c0-2.27,1.92-5,5.72-5a4.78,4.78,0,0,1,5.06,4.58c0,3.14-1.74,5.48-4.32,5.48a2.29,2.29,0,0,1-2-1s-.46,1.84-.56,2.2a6.69,6.69,0,0,1-.81,1.71A8,8,0,1,0,16,8" style="fill:#444"/></g></svg>