<svg id="Icons" xmlns="http://www.w3.org/2000/svg" viewBox="0 0 32 32"><title>pinterest</title><g id="Pinterest"><path d="M16,0A16,16,0,0,0,9.58,30.65,14.1,14.1,0,0,1,9.86,27l2.06-8.72a6.14,6.14,0,0,1-.51-2.53c0-2.37,1.37-4.14,3.09-4.14A2.14,2.14,0,0,1,16.65,14c0,1.46-.93,3.65-1.41,5.68a2.48,2.48,0,0,0,2.53,3.08c3,0,5.07-3.89,5.07-8.51,0-3.51-2.36-6.13-6.66-6.13A7.58,7.58,0,0,0,8.3,15.77a4.62,4.62,0,0,0,1.05,3.14.77.77,0,0,1,.23.89l-.33,1.28a.55.55,0,0,1-.8.4c-2.24-.91-3.28-3.36-3.28-6.11,0-4.55,3.83-10,11.44-10,6.11,0,10.13,4.42,10.13,9.17,0,6.28-3.49,11-8.63,11a4.59,4.59,0,0,1-3.91-2s-.93,3.69-1.13,4.4a13.38,13.38,0,0,1-1.61,3.43A16,16,0,1,0,16,0" style="fill:#444"/></g></svg>