<svg id="Icons" xmlns="http://www.w3.org/2000/svg" width="32" height="32" viewBox="0 0 32 32"><title>print</title><g id="Print"><path d="M10,13H6a1,1,0,0,0,0,2h4a1,1,0,0,0,0-2Z" style="fill:#e2001a"/><path d="M29,8H27V3a3,3,0,0,0-3-3H8A3,3,0,0,0,5,3V8H3a3,3,0,0,0-3,3V24a3,3,0,0,0,3,3H5v2a3,3,0,0,0,3,3H24a3,3,0,0,0,3-3V27h2a3,3,0,0,0,3-3V11A3,3,0,0,0,29,8ZM7,3A1,1,0,0,1,8,2H24a1,1,0,0,1,1,1V8H7ZM25,29a1,1,0,0,1-1,1H8a1,1,0,0,1-1-1V20H25Zm5-5a1,1,0,0,1-1,1H27V19a1,1,0,0,0-1-1H6a1,1,0,0,0-1,1v6H3a1,1,0,0,1-1-1V11a1,1,0,0,1,1-1H29a1,1,0,0,1,1,1Z" style="fill:#e2001a"/><path d="M22,26H10a1,1,0,0,0,0,2H22a1,1,0,0,0,0-2Z" style="fill:#e2001a"/><path d="M22,22H10a1,1,0,0,0,0,2H22a1,1,0,0,0,0-2Z" style="fill:#e2001a"/></g></svg>