<svg id="Icons" xmlns="http://www.w3.org/2000/svg" viewBox="0 0 32 32"><title>quality--small</title><g id="Quality"><path d="M22,14a6,6,0,1,0-12,0,5.94,5.94,0,0,0,2,4.46V23a1,1,0,0,0,1.55.83L16,22.2l2.45,1.63A1,1,0,0,0,20,23V18.46A5.94,5.94,0,0,0,22,14Zm-3.6,3.2,0,.05a1.08,1.08,0,0,0-.34.68s0,0,0,.07v3.13l-1.45-1a1,1,0,0,0-1.11,0l-1.45,1V18s0,0,0-.06a1.09,1.09,0,0,0-.34-.69l0,0a4,4,0,1,1,4.8,0Z" style="fill:#444"/><path d="M16,11a3,3,0,1,0,3,3A3,3,0,0,0,16,11Zm0,4a1,1,0,1,1,1-1A1,1,0,0,1,16,15Z" style="fill:#444"/></g></svg>