<svg id="Icons" xmlns="http://www.w3.org/2000/svg" viewBox="0 0 32 32"><title>rate</title><g id="Star"><path d="M16,2c.19,0,.26.15.3.27l2.14,6.88a4.49,4.49,0,0,0,4.28,3.21h6.92c.06,0,.21,0,.3.26a.46.46,0,0,1-.14.55l-5.6,4.25a4.67,4.67,0,0,0-1.6,5.1L24.7,29.4a.46.46,0,0,1-.05.44.37.37,0,0,1-.26.16.27.27,0,0,1-.15-.07l-5.6-4.25a4.4,4.4,0,0,0-5.35,0L7.7,29.93a.27.27,0,0,1-.15.07.37.37,0,0,1-.26-.16.46.46,0,0,1-.05-.44l2.14-6.88a4.67,4.67,0,0,0-1.6-5.1l-5.6-4.25A.46.46,0,0,1,2,12.62c.09-.26.23-.26.3-.26H9.25a4.49,4.49,0,0,0,4.28-3.21l2.14-6.88c0-.13.11-.27.3-.27m0-2a2.29,2.29,0,0,0-2.21,1.68L11.62,8.56a2.5,2.5,0,0,1-2.37,1.8H2.33A2.45,2.45,0,0,0,1,14.76L6.56,19a2.67,2.67,0,0,1,.9,2.91L5.33,28.81A2.42,2.42,0,0,0,7.55,32a2.23,2.23,0,0,0,1.36-.48l5.6-4.25a2.4,2.4,0,0,1,2.93,0L23,31.52a2.23,2.23,0,0,0,1.36.48,2.42,2.42,0,0,0,2.22-3.19l-2.14-6.88a2.67,2.67,0,0,1,.9-2.91L31,14.76a2.45,2.45,0,0,0-1.37-4.4H22.69a2.5,2.5,0,0,1-2.37-1.8L18.18,1.68A2.29,2.29,0,0,0,16,0Z" style="fill:#444"/></g></svg>