<svg id="Icons" xmlns="http://www.w3.org/2000/svg" viewBox="0 0 32 32"><title>rate--small</title><g id="Star"><path d="M20,23a1,1,0,0,1-.6-.2L16,20.25,12.6,22.8a1,1,0,0,1-1.58-1l.88-4.38L8.4,14.8A1,1,0,0,1,9,13h4.32l1.75-4.37a1,1,0,0,1,1.86,0L18.68,13H23a1,1,0,0,1,.6,1.8l-3.5,2.62L21,21.8A1,1,0,0,1,20,23Zm-4-5a1,1,0,0,1,.6.2l1.91,1.43L18,17.2a1,1,0,0,1,.38-1L20,15H18a1,1,0,0,1-.93-.63L16,11.69l-1.07,2.68A1,1,0,0,1,14,15H12l1.6,1.2a1,1,0,0,1,.38,1l-.49,2.43L15.4,18.2A1,1,0,0,1,16,18Z" style="fill:#444"/></g></svg>