<svg id="Icons" xmlns="http://www.w3.org/2000/svg" viewBox="0 0 32 32"><title>refresh</title><g id="Refresh"><path d="M31.41,12.08a1,1,0,0,0-1.37.34l-1.51,2.51-.09.12A13,13,0,0,0,4.58,8.91,1,1,0,1,0,6.26,10a11,11,0,0,1,20.2,5.55l-.15-.07L23.8,14a1,1,0,1,0-1,1.71l2.51,1.51a3.62,3.62,0,0,0,5-1.24l1.51-2.51A1,1,0,0,0,31.41,12.08Z" style="fill:#444"/><path d="M27.44,21.42a1,1,0,0,0-1.38.29,11,11,0,0,1-20.2-5.55l.15.07,2.51,1.51a1,1,0,0,0,1-1.71L7,14.52a3.62,3.62,0,0,0-5,1.24L.56,18.27a1,1,0,0,0,1.71,1l1.51-2.51.09-.12A13,13,0,0,0,27.73,22.8,1,1,0,0,0,27.44,21.42Z" style="fill:#444"/></g></svg>