<svg id="Icons" xmlns="http://www.w3.org/2000/svg" viewBox="0 0 32 32"><title>refresh--small</title><g id="Refresh"><path d="M23.51,13.93a1,1,0,0,0-1.37.34l0,.07a6.7,6.7,0,0,0-12-1.75,1,1,0,0,0,1.68,1.09A4.69,4.69,0,0,1,20.2,15l-.29-.18a1,1,0,1,0-1,1.71l1.19.72a2.24,2.24,0,0,0,3.08-.77l.72-1.19A1,1,0,0,0,23.51,13.93Z" style="fill:#444"/><path d="M21.65,18.38a1,1,0,0,0-1.38.29,4.69,4.69,0,0,1-8.46-1.33l.29.18a1,1,0,1,0,1-1.71l-1.19-.72a2.24,2.24,0,0,0-3.08.77l-.72,1.19a1,1,0,0,0,1.71,1l0-.07a6.7,6.7,0,0,0,12,1.75A1,1,0,0,0,21.65,18.38Z" style="fill:#444"/></g></svg>