<svg id="Icons" xmlns="http://www.w3.org/2000/svg" viewBox="0 0 32 32"><title>rss</title><g id="RSS"><path d="M10,25a3,3,0,1,1,3-3A3,3,0,0,1,10,25Zm0-4a1,1,0,1,0,1,1A1,1,0,0,0,10,21Z" style="fill:#444"/><path d="M29,32H3a3,3,0,0,1-3-3V3A3,3,0,0,1,3,0H29a3,3,0,0,1,3,3V29A3,3,0,0,1,29,32ZM3,2A1,1,0,0,0,2,3V29a1,1,0,0,0,1,1H29a1,1,0,0,0,1-1V3a1,1,0,0,0-1-1Z" style="fill:#444"/><path d="M24,25a1,1,0,0,1-1-1A15,15,0,0,0,8,9,1,1,0,0,1,8,7,17,17,0,0,1,25,24,1,1,0,0,1,24,25Z" style="fill:#444"/><path d="M18.4,25a1,1,0,0,1-1-1A9.41,9.41,0,0,0,8,14.6a1,1,0,0,1,0-2A11.41,11.41,0,0,1,19.4,24,1,1,0,0,1,18.4,25Z" style="fill:#444"/></g></svg>