<svg id="Icons" xmlns="http://www.w3.org/2000/svg" width="32" height="32" viewBox="0 0 32 32"><title>rss</title><g id="RSS"><path d="M10,19a3,3,0,1,0,3,3A3,3,0,0,0,10,19Zm0,4a1,1,0,1,1,1-1A1,1,0,0,1,10,23Z" style="fill:#e2001a"/><path d="M29,0H3A3,3,0,0,0,0,3V29a3,3,0,0,0,3,3H29a3,3,0,0,0,3-3V3A3,3,0,0,0,29,0Zm1,29a1,1,0,0,1-1,1H3a1,1,0,0,1-1-1V3A1,1,0,0,1,3,2H29a1,1,0,0,1,1,1Z" style="fill:#e2001a"/><path d="M8,7A1,1,0,0,0,8,9,15,15,0,0,1,23,24a1,1,0,0,0,2,0A17,17,0,0,0,8,7Z" style="fill:#e2001a"/><path d="M8,12.6a1,1,0,0,0,0,2A9.41,9.41,0,0,1,17.4,24a1,1,0,0,0,2,0A11.41,11.41,0,0,0,8,12.6Z" style="fill:#e2001a"/></g></svg>