<svg id="Icons" xmlns="http://www.w3.org/2000/svg" viewBox="0 0 32 32"><title>settings--small</title><g id="Settings"><circle cx="16" cy="16" r="2" style="fill:#444"/><path d="M17,24H15a1.5,1.5,0,0,1-1.5-1.5V22l-.33.33a1.49,1.49,0,0,1-1.06.44h0A1.49,1.49,0,0,1,11,22.36L9.64,20.95a1.5,1.5,0,0,1,0-2.12L10,18.5H9.5A1.5,1.5,0,0,1,8,17V15a1.5,1.5,0,0,1,1.5-1.5H10l-.33-.33a1.5,1.5,0,0,1,0-2.12l1.41-1.41a1.49,1.49,0,0,1,1.06-.44h0a1.49,1.49,0,0,1,1.06.44l.33.33V9.5A1.5,1.5,0,0,1,15,8h2a1.5,1.5,0,0,1,1.5,1.5V10l.33-.33a1.49,1.49,0,0,1,1.06-.44h0A1.49,1.49,0,0,1,21,9.64l1.41,1.41a1.5,1.5,0,0,1,0,2.12L22,13.5h.46A1.5,1.5,0,0,1,24,15v2a1.5,1.5,0,0,1-1.5,1.5H22l.33.33a1.5,1.5,0,0,1,0,2.12l-1.41,1.41a1.49,1.49,0,0,1-1.06.44h0a1.49,1.49,0,0,1-1.06-.44L18.5,22v.46A1.5,1.5,0,0,1,17,24Zm-1.5-2h1v-.88a1.5,1.5,0,0,1,.94-1.39l.17-.07a1.5,1.5,0,0,1,1.66.31l.62.62.71-.71L20,19.27a1.5,1.5,0,0,1-.31-1.66l.07-.16a1.5,1.5,0,0,1,1.39-.94H22v-1h-.88a1.5,1.5,0,0,1-1.39-.94l-.07-.17A1.5,1.5,0,0,1,20,12.73l.62-.62-.71-.71-.62.62a1.5,1.5,0,0,1-1.66.31l-.16-.07a1.5,1.5,0,0,1-.94-1.39V10h-1v.88a1.5,1.5,0,0,1-.94,1.39l-.17.07A1.5,1.5,0,0,1,12.73,12l-.62-.62-.71.71.62.62a1.5,1.5,0,0,1,.31,1.66l-.07.16a1.5,1.5,0,0,1-1.39.94H10v1h.88a1.5,1.5,0,0,1,1.39.94l.07.17A1.5,1.5,0,0,1,12,19.27l-.62.62.71.71.62-.62a1.5,1.5,0,0,1,1.66-.31l.16.07a1.5,1.5,0,0,1,.94,1.39Zm4-1h0Zm-7.07,0h0ZM21,19.54h0Zm-9.9,0h0ZM21,12.46h0Zm-9.9,0h0ZM19.54,11h0Zm-7.07,0h0Z" style="fill:#444"/></g></svg>