<svg id="Icons" xmlns="http://www.w3.org/2000/svg" width="32" height="32" viewBox="0 0 32 32"><title>settings</title><g id="Settings"><path d="M16,11a5,5,0,1,0,5,5A5,5,0,0,0,16,11Zm0,8a3,3,0,1,1,3-3A3,3,0,0,1,16,19Z" style="fill:#e2001a"/><path d="M29,12l-2.75,0c-.06-.15-.12-.3-.18-.44l2-1.95a2,2,0,0,0,0-2.83L25.19,4a2,2,0,0,0-2.83,0l-1.93,2L20,5.76V3a2,2,0,0,0-2-2H14a2,2,0,0,0-2,2l0,2.75-.44.18L9.64,4A2,2,0,0,0,6.81,4L4,6.81A2,2,0,0,0,4,9.64l2,1.93c-.07.15-.13.3-.18.43H3a2,2,0,0,0-2,2v4a2,2,0,0,0,2,2l2.75,0c.06.15.12.3.18.44L4,22.36a2,2,0,0,0,0,2.83L6.81,28a2,2,0,0,0,2.83,0l1.93-2,.44.18V29a2,2,0,0,0,2,2h4a2,2,0,0,0,2-2l0-2.75.43-.18,2,1.95a2,2,0,0,0,2.83,0L28,25.19a2,2,0,0,0,0-2.83l-2-1.93c.07-.15.13-.3.18-.43H29a2,2,0,0,0,2-2V14A2,2,0,0,0,29,12Zm0,6H26.24a2,2,0,0,0-1.85,1.25l-.16.37a2,2,0,0,0,.42,2.21l2,2-2.83,2.83-1.95-1.95a2,2,0,0,0-2.21-.42l-.37.15A2,2,0,0,0,18,26.24V29H14V26.24a2,2,0,0,0-1.25-1.85l-.37-.16a1.94,1.94,0,0,0-.79-.17,2,2,0,0,0-1.42.59l-2,1.95L5.39,23.78l2-2a2,2,0,0,0,.42-2.21l-.16-.37A2,2,0,0,0,5.76,18H3V14H5.76a2,2,0,0,0,1.85-1.25l.16-.37a2,2,0,0,0-.42-2.21l-2-2L8.22,5.39l1.95,1.95a2,2,0,0,0,2.21.42l.37-.16A2,2,0,0,0,14,5.76V3h4V5.76a2,2,0,0,0,1.25,1.85l.37.16a2,2,0,0,0,2.21-.42l2-1.95,2.83,2.83-2,2a2,2,0,0,0-.42,2.21l.16.37A2,2,0,0,0,26.24,14H29Z" style="fill:#e2001a"/></g></svg>