<svg id="Icons" xmlns="http://www.w3.org/2000/svg" viewBox="0 0 32 32"><title>settings</title><g id="Settings"><path d="M16,21a5,5,0,1,1,5-5A5,5,0,0,1,16,21Zm0-8a3,3,0,1,0,3,3A3,3,0,0,0,16,13Z" style="fill:#444"/><path d="M18,31H14a2,2,0,0,1-2-2V26.24l-.44-.18L9.64,28a2,2,0,0,1-2.83,0L4,25.19a2,2,0,0,1,0-2.83l2-1.95c-.06-.13-.12-.28-.18-.44L3,20a2,2,0,0,1-2-2V14a2,2,0,0,1,2-2H5.76c0-.13.11-.28.18-.43L4,9.64A2,2,0,0,1,4,6.81L6.81,4A2,2,0,0,1,9.64,4l2,1.95L12,5.75,12,3a2,2,0,0,1,2-2h4a2,2,0,0,1,2,2V5.76l.44.18,1.93-2a2,2,0,0,1,2.83,0L28,6.81a2,2,0,0,1,0,2.83l-2,1.95c.06.13.13.28.18.44L29,12a2,2,0,0,1,2,2v4a2,2,0,0,1-2,2H26.24c0,.13-.11.28-.18.43l2,1.93a2,2,0,0,1,0,2.83L25.19,28a2,2,0,0,1-2.83,0l-2-1.95-.43.18L20,29A2,2,0,0,1,18,31Zm-6.41-6.93a1.94,1.94,0,0,1,.79.17l.37.16A2,2,0,0,1,14,26.24V29h4V26.24a2,2,0,0,1,1.25-1.85l.37-.15a2,2,0,0,1,2.21.42l1.95,1.95,2.83-2.83-2-2a2,2,0,0,1-.42-2.21l.16-.37A2,2,0,0,1,26.24,18H29V14H26.24a2,2,0,0,1-1.85-1.25l-.16-.37a2,2,0,0,1,.42-2.21l2-2L23.78,5.39l-2,1.95a2,2,0,0,1-2.21.42l-.37-.16A2,2,0,0,1,18,5.76V3H14V5.76a2,2,0,0,1-1.25,1.85l-.37.16a2,2,0,0,1-2.21-.42L8.22,5.39,5.39,8.22l2,2a2,2,0,0,1,.42,2.21l-.16.37A2,2,0,0,1,5.76,14H3v4H5.76a2,2,0,0,1,1.85,1.25l.16.37a2,2,0,0,1-.42,2.21l-2,2,2.83,2.83,2-1.95A2,2,0,0,1,11.59,24.07Z" style="fill:#444"/></g></svg>