<svg id="Icons" xmlns="http://www.w3.org/2000/svg" viewBox="0 0 32 32"><title>shelter--small</title><g id="Shelter-2" data-name="Shelter"><path d="M23.24,13.06,17.31,8.5a2,2,0,0,0-2.61,0L8.76,13.06A2,2,0,0,0,8,14.59V22.1A1.92,1.92,0,0,0,9.93,24H22.07A1.92,1.92,0,0,0,24,22.1V14.59A2,2,0,0,0,23.24,13.06ZM15,22V19a1,1,0,0,1,2,0v3Zm7,0H19V19a3,3,0,0,0-6,0v3H10l0-7.35L16,10l.08.07L22,14.63Z" style="fill:#444"/><path d="M14,14a1,1,0,0,0,1,1h2a1,1,0,0,0,0-2H15A1,1,0,0,0,14,14Z" style="fill:#444"/></g></svg>