<svg id="Icons" xmlns="http://www.w3.org/2000/svg" viewBox="0 0 32 32"><title>shop</title><g id="Shop"><path d="M9,27H5a1,1,0,0,1-1-1V22a1,1,0,0,1,1-1H9a1,1,0,0,1,1,1v4A1,1,0,0,1,9,27ZM6,25H8V23H6Z" style="fill:#444"/><path d="M27,27H23a1,1,0,0,1-1-1V22a1,1,0,0,1,1-1h4a1,1,0,0,1,1,1v4A1,1,0,0,1,27,27Zm-3-2h2V23H24Z" style="fill:#444"/><path d="M20,20H12a1,1,0,0,1,0-2h8a1,1,0,0,1,0,2Z" style="fill:#444"/><path d="M29,0H3A3,3,0,0,0,0,3V29a3,3,0,0,0,3,3H29a3,3,0,0,0,3-3V3A3,3,0,0,0,29,0Zm1,3v8a2,2,0,0,1-4,0V2h3A1,1,0,0,1,30,3ZM8,2h4v9a2,2,0,0,1-4,0Zm6,0h4v9a2,2,0,0,1-4,0Zm6,0h4v9a2,2,0,0,1-4,0ZM2,3A1,1,0,0,1,3,2H6v9a2,2,0,0,1-4,0ZM18,30H14V26a2,2,0,0,1,4,0Zm11,0H20V26a4,4,0,0,0-8,0v4H3a1,1,0,0,1-1-1V14.44a3.92,3.92,0,0,0,5-.83,3.95,3.95,0,0,0,6,0,3.95,3.95,0,0,0,6,0,3.95,3.95,0,0,0,6,0,3.92,3.92,0,0,0,5,.83V29A1,1,0,0,1,29,30Z" style="fill:#444"/></g></svg>