<svg id="Icons" xmlns="http://www.w3.org/2000/svg" viewBox="0 0 32 32"><title>text--decrease--small</title><g id="Text_-_Decrease" data-name="Text - Decrease"><path d="M20,8H12a4,4,0,0,0-4,4,1,1,0,0,0,2,0,2,2,0,0,1,2-2h3V22H13a1,1,0,0,0,0,2h6a1,1,0,0,0,0-2H17V10h3a2,2,0,0,1,2,2,1,1,0,0,0,2,0A4,4,0,0,0,20,8Z" style="fill:#444"/><path d="M13.71,17.29a1,1,0,0,0-1.41,0l-.29.29V15a1,1,0,0,0-2,0v2.59l-.29-.29a1,1,0,0,0-1.41,1.41l2,2a1,1,0,0,0,1.42,0l2-2A1,1,0,0,0,13.71,17.29Z" style="fill:#444"/></g></svg>