<svg id="Icons" xmlns="http://www.w3.org/2000/svg" viewBox="0 0 32 32"><title>text--increase--small</title><g id="Text_-_Enlarge" data-name="Text - Enlarge"><path d="M20,8H12a4,4,0,0,0-4,4,1,1,0,0,0,2,0,2,2,0,0,1,2-2h3V22H13a1,1,0,0,0,0,2h6a1,1,0,0,0,0-2H17V10h3a2,2,0,0,1,2,2,1,1,0,0,0,2,0A4,4,0,0,0,20,8Z" style="fill:#444"/><path d="M13.72,16.37l-2-2.06h0a1,1,0,0,0-.31-.22h0a1,1,0,0,0-.16,0A1,1,0,0,0,11,14l-.15,0a1,1,0,0,0-.22,0h0a1,1,0,0,0-.21.14.94.94,0,0,0-.1.07h0l-2,2a1,1,0,1,0,1.41,1.41l.29-.29V20a1,1,0,0,0,2,0V17.47l.28.29a1,1,0,0,0,1.44-1.39Z" style="fill:#444"/></g></svg>