<svg id="Icons" xmlns="http://www.w3.org/2000/svg" width="32" height="32" viewBox="0 0 32 32"><title>text--decrease</title><g id="Text_Decrease" data-name="Text Decrease"><path d="M23,2H9A4,4,0,0,0,5,6,1,1,0,0,0,7,6,2,2,0,0,1,9,4h6V27H13a1,1,0,0,0,0,2h6a1,1,0,0,0,0-2H17V4h6a2,2,0,0,1,2,2,1,1,0,0,0,2,0A4,4,0,0,0,23,2Z" style="fill:#e2001a"/><path d="M8.4,22.7,6,24.5v-13a1,1,0,0,0-2,0v13L1.6,22.7A1,1,0,1,0,.4,24.3l2.8,2.1a3,3,0,0,0,3.6,0l2.8-2.1a1,1,0,1,0-1.2-1.6Z" style="fill:#e2001a"/></g></svg>