<svg id="Icons" xmlns="http://www.w3.org/2000/svg" viewBox="0 0 32 32"><title>twitter</title><g id="Twitter"><path d="M10.06,29A18.58,18.58,0,0,1,0,26.05a13.36,13.36,0,0,0,1.57.09,13.17,13.17,0,0,0,8.15-2.81,6.57,6.57,0,0,1-6.13-4.56,6.58,6.58,0,0,0,3-.11,6.57,6.57,0,0,1-5.27-6.44s0-.06,0-.08a6.54,6.54,0,0,0,3,.82,6.57,6.57,0,0,1-2-8.76,18.64,18.64,0,0,0,13.53,6.86,6.57,6.57,0,0,1,11.19-6,13.15,13.15,0,0,0,4.17-1.59,6.58,6.58,0,0,1-2.89,3.63,13.13,13.13,0,0,0,3.77-1,13.34,13.34,0,0,1-3.28,3.4q0,.42,0,.85C28.74,19,22.14,29,10.06,29" style="fill:#444"/></g></svg>