<svg id="Icons" xmlns="http://www.w3.org/2000/svg" width="32" height="32" viewBox="0 0 32 32"><title>social--twitter</title><g id="Twitter"><path d="M10.06,28A18.58,18.58,0,0,1,0,25.05a13.35,13.35,0,0,0,1.57.09,13.17,13.17,0,0,0,8.15-2.81,6.57,6.57,0,0,1-6.13-4.56,6.58,6.58,0,0,0,3-.11,6.57,6.57,0,0,1-5.27-6.44s0-.06,0-.08a6.54,6.54,0,0,0,3,.82,6.57,6.57,0,0,1-2-8.76,18.63,18.63,0,0,0,13.53,6.86,6.57,6.57,0,0,1,11.18-6,13.14,13.14,0,0,0,4.17-1.59,6.58,6.58,0,0,1-2.89,3.63,13.12,13.12,0,0,0,3.77-1,13.34,13.34,0,0,1-3.28,3.4q0,.42,0,.85C28.74,18,22.13,28,10.06,28" style="fill:#e2001a"/></g></svg>