<svg id="Icons" xmlns="http://www.w3.org/2000/svg" viewBox="0 0 32 32"><title>twitter--small</title><g id="Twitter"><path d="M13,22.79a9.29,9.29,0,0,1-5-1.47,6.68,6.68,0,0,0,.78,0A6.59,6.59,0,0,0,12.86,20a3.29,3.29,0,0,1-3.07-2.28,3.29,3.29,0,0,0,1.48-.06A3.28,3.28,0,0,1,8.64,14.4v0a3.27,3.27,0,0,0,1.49.41,3.29,3.29,0,0,1-1-4.38,9.32,9.32,0,0,0,6.77,3.43,3.28,3.28,0,0,1,5.59-3,6.57,6.57,0,0,0,2.08-.8,3.29,3.29,0,0,1-1.44,1.82A6.56,6.56,0,0,0,24,11.33,6.67,6.67,0,0,1,22.36,13q0,.21,0,.42A9.28,9.28,0,0,1,13,22.79" style="fill:#444"/></g></svg>