<svg id="Icons" xmlns="http://www.w3.org/2000/svg" viewBox="0 0 32 32"><title>unlock--small</title><g id="Unlock"><path d="M20,13H14v-.8A2.11,2.11,0,0,1,16,10a1.83,1.83,0,0,1,.91.24,2.1,2.1,0,0,1,.79.81,1,1,0,1,0,1.74-1A4.11,4.11,0,0,0,17.9,8.5,3.87,3.87,0,0,0,16,8a4.11,4.11,0,0,0-4,4.2V13a3,3,0,0,0-3,3v5a3,3,0,0,0,3,3h8a3,3,0,0,0,3-3V16A3,3,0,0,0,20,13Zm1,8a1,1,0,0,1-1,1H12a1,1,0,0,1-1-1V16a1,1,0,0,1,1-1h8a1,1,0,0,1,1,1Z" style="fill:#444"/><path d="M18,18a2,2,0,1,0-3,1.72V20a1,1,0,0,0,2,0v-.28A2,2,0,0,0,18,18Z" style="fill:#444"/></g></svg>