<svg id="Icons" xmlns="http://www.w3.org/2000/svg" viewBox="0 0 32 32"><title>user-add</title><g id="Create_Account" data-name="Create Account"><path d="M26.25,18.09a14.26,14.26,0,0,0-5.85-3.42,8,8,0,1,0-8.81,0A13.38,13.38,0,0,0,2,27.2V29a3,3,0,0,0,3,3H27a3,3,0,0,0,3-3V26.81A12.2,12.2,0,0,0,26.25,18.09ZM10,8a6,6,0,1,1,6,6A6,6,0,0,1,10,8ZM28,29a1,1,0,0,1-1,1H5a1,1,0,0,1-1-1V27.2C4,21.13,9.28,16.11,15.77,16a12.65,12.65,0,0,1,9.08,3.51A10.21,10.21,0,0,1,28,26.81Z" style="fill:#444"/><path d="M29,6a1,1,0,0,1-1-1V1a1,1,0,0,1,2,0V5A1,1,0,0,1,29,6Z" style="fill:#444"/><path d="M31,4H27a1,1,0,0,1,0-2h4a1,1,0,0,1,0,2Z" style="fill:#444"/></g></svg>