<svg id="Icons" xmlns="http://www.w3.org/2000/svg" width="32" height="32" viewBox="0 0 32 32"><title>user-add</title><g id="Add_User" data-name="Add User"><path d="M20.41,14.67a8,8,0,1,0-8.81,0A13.38,13.38,0,0,0,2,27.2V29a3,3,0,0,0,3,3H27a3,3,0,0,0,3-3V26.81a12.2,12.2,0,0,0-3.75-8.72A14.26,14.26,0,0,0,20.41,14.67ZM10,8a6,6,0,1,1,6,6A6,6,0,0,1,10,8ZM28,29a1,1,0,0,1-1,1H5a1,1,0,0,1-1-1V27.2C4,21.13,9.28,16.11,15.77,16a12.65,12.65,0,0,1,9.08,3.51A10.21,10.21,0,0,1,28,26.81Z" style="fill:#e2001a"/><path d="M31,2H30V1a1,1,0,0,0-2,0V2H27a1,1,0,0,0,0,2h1V5a1,1,0,0,0,2,0V4h1a1,1,0,0,0,0-2Z" style="fill:#e2001a"/></g></svg>