<svg id="Icons" xmlns="http://www.w3.org/2000/svg" viewBox="0 0 32 32"><title>view--show</title><g id="View_Show" data-name="View/Show"><path d="M16,24C7.68,24,.59,17,.29,16.71a1,1,0,0,1,0-1.41C.59,15,7.68,8,16,8s15.41,7,15.71,7.29a1,1,0,0,1,0,1.41C31.41,17,24.32,24,16,24ZM2.48,16c2,1.72,7.51,6,13.52,6s11.54-4.27,13.52-6c-2-1.72-7.51-6-13.52-6S4.46,14.27,2.48,16Z" style="fill:#444"/><path d="M16,21a5,5,0,1,1,5-5A5,5,0,0,1,16,21Zm0-8a3,3,0,1,0,3,3A3,3,0,0,0,16,13Z" style="fill:#444"/><path d="M16,17a1,1,0,0,1-.71-1.71,1,1,0,0,1,.9-.27.61.61,0,0,1,.19.06.76.76,0,0,1,.18.09l.15.12a1,1,0,0,1,0,1.42l-.15.12a.76.76,0,0,1-.18.09.62.62,0,0,1-.19.06Z" style="fill:#444"/></g></svg>