<svg id="Icons" xmlns="http://www.w3.org/2000/svg" viewBox="0 0 32 32"><title>view--hide</title><g id="View_Hide" data-name="View/Hide"><path d="M16,24c-.44,0-.87,0-1.3-.06a1,1,0,0,1-.91-1.08A1,1,0,0,1,14.87,22q.56,0,1.13,0c6,0,11.54-4.28,13.52-6a29.46,29.46,0,0,0-5.73-3.9,1,1,0,1,1,.91-1.78,30.44,30.44,0,0,1,7,5,1,1,0,0,1,0,1.41C31.41,17,24.32,24,16,24Z" style="fill:#444"/><path d="M24.63,5.22a1,1,0,0,0-1.41.16L20.57,8.68A16.82,16.82,0,0,0,16,8C7.68,8,.59,15,.29,15.29a1,1,0,0,0,0,1.41,29.92,29.92,0,0,0,9.12,5.93L7.22,25.38a1,1,0,0,0,1.56,1.25l3.08-3.85h0L24.78,6.62A1,1,0,0,0,24.63,5.22ZM2.48,16c2-1.72,7.5-6,13.52-6a14.33,14.33,0,0,1,3.21.39L10.73,21A27.79,27.79,0,0,1,2.48,16Z" style="fill:#444"/><path d="M16,21a5,5,0,1,1,5-5A5,5,0,0,1,16,21Zm0-8a3,3,0,1,0,3,3A3,3,0,0,0,16,13Z" style="fill:#444"/></g></svg>