<svg id="Icons" xmlns="http://www.w3.org/2000/svg" viewBox="0 0 32 32"><title>youtube--small</title><g id="YouTube"><path d="M23.84,12.93a3.37,3.37,0,0,0-.64-1.56,2.31,2.31,0,0,0-1.6-.67c-2.24-.16-5.6-.16-5.6-.16h0s-3.36,0-5.6.16a2.31,2.31,0,0,0-1.6.67,3.37,3.37,0,0,0-.64,1.56A23.46,23.46,0,0,0,8,15.48v1.19a23.46,23.46,0,0,0,.16,2.55,3.37,3.37,0,0,0,.64,1.56,2.74,2.74,0,0,0,1.76.67c1.28.12,5.44.16,5.44.16s3.36,0,5.6-.16a2.31,2.31,0,0,0,1.6-.67,3.37,3.37,0,0,0,.64-1.56A23.48,23.48,0,0,0,24,16.67V15.48a23.48,23.48,0,0,0-.16-2.55m-9.49,5.19V13.69l4.32,2.22Z" style="fill:#444"/></g></svg>