<svg id="Icons" xmlns="http://www.w3.org/2000/svg" viewBox="0 0 32 32"><title>youtube</title><g id="YouTube"><path d="M31.68,9.78a6.75,6.75,0,0,0-1.27-3.13A4.62,4.62,0,0,0,27.2,5.32C22.72,5,16,5,16,5h0S9.28,5,4.8,5.32A4.62,4.62,0,0,0,1.59,6.65,6.75,6.75,0,0,0,.32,9.78,46.92,46.92,0,0,0,0,14.88v2.39a46.92,46.92,0,0,0,.32,5.1,6.75,6.75,0,0,0,1.27,3.13,5.48,5.48,0,0,0,3.53,1.35c2.56.24,10.88.32,10.88.32s6.72,0,11.2-.33a4.62,4.62,0,0,0,3.21-1.33,6.75,6.75,0,0,0,1.27-3.13,47,47,0,0,0,.32-5.1V14.88a47,47,0,0,0-.32-5.1m-19,10.38V11.31l8.65,4.44Z" style="fill:#444"/></g></svg>