<svg xmlns="http://www.w3.org/2000/svg" viewBox="0 0 220 101.83">
  <defs>
    <style>
      .cls-1 {
        fill: #e2001a;
        fill-rule: evenodd;
      }
    </style>
  </defs>
  <title>Royal Canin logo - crown</title>
  <g id="Crown">
    <path class="cls-1" d="M53.16,92.36a5.54,5.54,0,0,1-3.33-10c14.72-11,37.24-17.59,60.24-17.59h0c22.92,0,45.38,6.58,60.09,17.59a5.54,5.54,0,0,1-6.64,8.87c-9.93-7.43-29.19-15.37-53.45-15.37h0c-24.37,0-43.66,7.94-53.6,15.38A5.48,5.48,0,0,1,53.16,92.36Zm5.06,9.47a3.81,3.81,0,0,0,2.41-.86c11.23-9.24,30.19-15,49.45-15,19.45,0,37.88,5.6,49.3,15a3.79,3.79,0,1,0,4.81-5.86c-12.72-10.46-32.95-16.69-54.1-16.69S68.55,84.65,55.82,95.1a3.79,3.79,0,0,0,2.4,6.72ZM28.53,22a12.71,12.71,0,0,0,0,25.42h.08A12.71,12.71,0,0,0,39.5,28.29,12.79,12.79,0,0,0,28.53,22ZM110,31.82a12.71,12.71,0,1,0,12.7,12.7A12.73,12.73,0,0,0,110,31.82ZM110,0a12.71,12.71,0,1,0,12.7,12.7A12.73,12.73,0,0,0,110,0ZM76.2,36.25a13,13,0,0,0-3.36.44,12.71,12.71,0,0,0,3.3,25h.29a12.82,12.82,0,0,0,3.13-.45,12.71,12.71,0,0,0-3.36-25ZM44.73,49.44A12.71,12.71,0,0,0,33.81,68.62a12.85,12.85,0,0,0,10.89,6.23h.07a12.78,12.78,0,0,0,6.46-1.77,12.73,12.73,0,0,0,4.46-17.41A12.81,12.81,0,0,0,44.73,49.44ZM147.16,36.7a12.71,12.71,0,1,0,8.91,15.61A12.64,12.64,0,0,0,147.16,36.7ZM155.56,6a12.71,12.71,0,1,0,8.91,15.62A12.77,12.77,0,0,0,155.56,6Zm26.16,45.21A12.72,12.72,0,1,0,187.55,59,12.65,12.65,0,0,0,181.71,51.21Zm22-19.62A12.7,12.7,0,0,0,191.46,22a12.78,12.78,0,0,0-10.95,6.24,12.72,12.72,0,0,0,10.93,19.18,12.76,12.76,0,0,0,11-6.25A12.6,12.6,0,0,0,203.76,31.59ZM67.81,31a12.71,12.71,0,0,0,0-25.43A12.58,12.58,0,0,0,64.44,6a12.71,12.71,0,0,0,3.29,25Z"/>
  </g>
</svg>
