<svg xmlns="http://www.w3.org/2000/svg" viewBox="0 0 64 64"><title>view</title><g id="View"><path d="M63.57,30.72c-3.34-4-14.65-16.07-31.57-16.07S3.77,26.74.43,30.72a2.13,2.13,0,0,0,0,2.56C3.7,37.26,15.08,49.35,32,49.35S60.23,37.26,63.57,33.28a2.13,2.13,0,0,0,0-2.56M32,45.16A13.16,13.16,0,1,1,45.16,32,13.17,13.17,0,0,1,32,45.16m4.2-13.94a3.31,3.31,0,0,1-3.27-3.27,3.16,3.16,0,0,1,2.13-3.06A7.38,7.38,0,0,0,32,24.25a7.75,7.75,0,1,0,7.75,7.82,7.51,7.51,0,0,0-.57-2.85,3.11,3.11,0,0,1-3,2" style="fill:#e2001a;fill-rule:evenodd"/></g></svg>