<?xml version="1.0" encoding="utf-8"?>
<!-- Generator: Adobe Illustrator 21.1.0, SVG Export Plug-In . SVG Version: 6.00 Build 0)  -->
<svg version="1.1" id="Layer_1" xmlns="http://www.w3.org/2000/svg" xmlns:xlink="http://www.w3.org/1999/xlink" x="0px" y="0px"
	 viewBox="0 0 73.1 35.8" style="enable-background:new 0 0 73.1 35.8;" xml:space="preserve">
<style type="text/css">
	.st0{fill-rule:evenodd;clip-rule:evenodd;fill:#E2001A;}
</style>
<path class="st0" d="M14.5,35.8c-0.7,0-1.3-0.3-1.7-0.9c-0.7-1-0.5-2.3,0.4-3c5.7-4.3,14.5-6.8,23.4-6.8h0c8.9,0,17.7,2.6,23.4,6.8
	c1,0.7,1.2,2.1,0.4,3c-0.7,1-2.1,1.1-3,0.4c-3.9-2.9-11.4-6-20.8-6h0c-9.5,0-17,3.1-20.9,6C15.4,35.7,15,35.8,14.5,35.8 M4.9,8.6
	c-0.9,0-1.7,0.2-2.5,0.7c-1.1,0.7-1.9,1.7-2.3,3C-0.2,13.5,0,14.9,0.7,16c0.9,1.5,2.5,2.4,4.2,2.4l0,0c0.9,0,1.8-0.2,2.5-0.7
	c1.1-0.7,1.9-1.7,2.3-3c0.3-1.3,0.1-2.6-0.5-3.7C8.3,9.5,6.7,8.6,4.9,8.6 M36.7,12.3c-2.7,0-5,2.2-5,4.9c0,2.7,2.2,4.9,5,4.9
	c2.7,0,4.9-2.2,4.9-4.9C41.6,14.6,39.4,12.3,36.7,12.3 M36.7,0c-2.7,0-5,2.2-5,4.9c0,2.7,2.2,4.9,5,4.9c2.7,0,4.9-2.2,4.9-4.9
	C41.6,2.2,39.4,0,36.7,0 M23.5,14.1c-0.4,0-0.9,0.1-1.3,0.2c-2.6,0.7-4.2,3.4-3.5,6.1c0.6,2.1,2.5,3.6,4.8,3.6l0.1,0
	c0.4,0,0.8-0.1,1.2-0.2c1.3-0.3,2.3-1.2,3-2.3c0.7-1.1,0.8-2.5,0.5-3.7C27.7,15.6,25.7,14.1,23.5,14.1 M11.2,19.2
	c-0.9,0-1.7,0.2-2.5,0.7c-1.1,0.7-1.9,1.7-2.3,3c-0.3,1.3-0.1,2.6,0.5,3.7c0.9,1.5,2.5,2.4,4.2,2.4l0,0c0.9,0,1.7-0.2,2.5-0.7
	c1.1-0.7,1.9-1.7,2.3-3c0.3-1.3,0.1-2.6-0.5-3.7C14.6,20.1,13,19.2,11.2,19.2 M51.1,14.2c-0.4-0.1-0.9-0.2-1.3-0.2
	c-2.2,0-4.2,1.5-4.8,3.6c-0.7,2.6,0.8,5.3,3.5,6.1c0.4,0.1,0.9,0.2,1.3,0.2c2.2,0,4.2-1.5,4.8-3.6C55.3,17.7,53.8,15,51.1,14.2
	 M54.4,2.3c-0.4-0.1-0.9-0.2-1.3-0.2c-2.2,0-4.2,1.5-4.8,3.6c-0.7,2.6,0.8,5.3,3.5,6.1c0.4,0.1,0.9,0.2,1.3,0.2
	c2.2,0,4.2-1.5,4.8-3.6C58.6,5.8,57,3,54.4,2.3 M64.6,19.9c-0.8-0.4-1.6-0.7-2.5-0.7c-1.7,0-3.4,0.9-4.3,2.4
	c-0.7,1.1-0.9,2.5-0.5,3.7c0.3,1.3,1.1,2.3,2.3,3c0.8,0.4,1.6,0.7,2.5,0.7c1.7,0,3.4-0.9,4.3-2.4c0.7-1.1,0.9-2.5,0.5-3.7
	C66.5,21.6,65.7,20.5,64.6,19.9 M73.1,12.3c-0.3-1.3-1.1-2.3-2.3-3c-0.8-0.4-1.6-0.7-2.5-0.7c-1.7,0-3.4,0.9-4.3,2.4
	c-0.7,1.1-0.9,2.5-0.5,3.7c0.3,1.3,1.1,2.3,2.3,3c0.8,0.5,1.6,0.7,2.5,0.7c1.7,0,3.4-0.9,4.3-2.4C73.3,14.9,73.5,13.5,73.1,12.3
	 M20.2,12c0.4,0,0.9-0.1,1.3-0.2c2.6-0.7,4.2-3.4,3.5-6.1c-0.6-2.1-2.5-3.6-4.8-3.6c-0.4,0-0.9,0.1-1.3,0.2
	c-2.6,0.7-4.2,3.4-3.5,6.1C16,10.5,18,12,20.2,12L20.2,12z"/>
</svg>
