<?xml version="1.0" encoding="utf-8"?>
<!-- Generator: Adobe Illustrator 21.1.0, SVG Export Plug-In . SVG Version: 6.00 Build 0)  -->
<svg version="1.1" id="Layer_1" xmlns="http://www.w3.org/2000/svg" xmlns:xlink="http://www.w3.org/1999/xlink" x="0px" y="0px"
	 viewBox="0 0 199.7 69.7" style="enable-background:new 0 0 199.7 69.7;" xml:space="preserve">
<style type="text/css">
	.st0{fill-rule:evenodd;clip-rule:evenodd;fill:#E2001A;}
</style>
<path class="st0" d="M197,46.8c0.3,0,0.4-0.1,0.4-0.3c0-0.3-0.2-0.4-0.4-0.4h-0.6v0.7H197z M196.4,48.3c0,0.2-0.1,0.4-0.4,0.4
	c-0.3,0-0.3-0.1-0.3-0.4v-2.4c0-0.2,0.1-0.3,0.4-0.3h0.9c0.6,0,1.2,0.2,1.2,0.9c0,0.6-0.3,0.8-0.8,0.9l0.6,0.9l0,0.2
	c0,0.2-0.1,0.3-0.4,0.3c-0.2,0-0.3-0.2-0.4-0.4l-0.5-0.9h-0.2V48.3z M196.9,49.2c1.2,0,2.2-1,2.2-2.2c0-1.2-1-2.2-2.2-2.2
	c-1.2,0-2.2,1-2.2,2.2C194.7,48.3,195.7,49.2,196.9,49.2z M196.9,44.2c1.6,0,2.9,1.3,2.9,2.9c0,1.6-1.3,2.9-2.9,2.9
	c-1.6,0-2.9-1.3-2.9-2.9C194,45.5,195.3,44.2,196.9,44.2z"/>
<path class="st0" d="M73.9,35.7c-0.7,0-1.3-0.3-1.7-0.9c-0.7-0.9-0.5-2.3,0.4-3C78.3,27.6,87,25,95.9,25h0c8.9,0,17.5,2.5,23.2,6.8
	c1,0.7,1.1,2,0.4,3c-0.7,0.9-2,1.1-3,0.4c-3.8-2.9-11.3-5.9-20.7-5.9h0c-9.4,0-16.9,3.1-20.7,5.9C74.8,35.5,74.3,35.7,73.9,35.7z
	 M75.8,39.3c0.3,0,0.7-0.1,0.9-0.3c4.3-3.6,11.7-5.8,19.1-5.8c7.5,0,14.6,2.2,19,5.8c0.6,0.5,1.5,0.4,2.1-0.2
	c0.5-0.6,0.4-1.5-0.2-2.1c-4.9-4-12.7-6.5-20.9-6.5c-8.2,0-16,2.4-21,6.5c-0.6,0.5-0.7,1.4-0.2,2.1C75,39.2,75.4,39.3,75.8,39.3z
	 M64.4,8.5c-0.9,0-1.7,0.2-2.5,0.7c-1.1,0.7-1.9,1.7-2.3,3c-0.3,1.3-0.1,2.6,0.5,3.7c0.9,1.5,2.5,2.4,4.2,2.4l0,0
	c0.9,0,1.7-0.2,2.5-0.7c1.1-0.7,1.9-1.7,2.3-3c0.3-1.3,0.1-2.6-0.5-3.7C67.7,9.4,66.1,8.5,64.4,8.5z M95.8,12.3
	c-2.7,0-4.9,2.2-4.9,4.9c0,2.7,2.2,4.9,4.9,4.9c2.7,0,4.9-2.2,4.9-4.9C100.7,14.5,98.5,12.3,95.8,12.3z M95.8,0
	c-2.7,0-4.9,2.2-4.9,4.9c0,2.7,2.2,4.9,4.9,4.9c2.7,0,4.9-2.2,4.9-4.9C100.7,2.2,98.5,0,95.8,0z M82.8,14c-0.4,0-0.9,0.1-1.3,0.2
	c-2.6,0.7-4.2,3.4-3.4,6c0.6,2.1,2.5,3.6,4.7,3.6l0.1,0c0.4,0,0.8-0.1,1.2-0.2c1.3-0.3,2.3-1.2,3-2.3c0.6-1.1,0.8-2.5,0.5-3.7
	C86.9,15.5,85,14,82.8,14z M70.6,19.1c-0.9,0-1.7,0.2-2.5,0.7c-1.1,0.7-1.9,1.7-2.3,3c-0.3,1.3-0.1,2.6,0.5,3.7
	c0.9,1.5,2.5,2.4,4.2,2.4l0,0c0.9,0,1.7-0.2,2.5-0.7c1.1-0.7,1.9-1.7,2.3-3c0.3-1.3,0.1-2.6-0.5-3.7C74,20,72.4,19.1,70.6,19.1z
	 M110.2,14.2c-0.4-0.1-0.9-0.2-1.3-0.2c-2.2,0-4.2,1.5-4.7,3.6c-0.7,2.6,0.8,5.3,3.4,6c0.4,0.1,0.9,0.2,1.3,0.2
	c2.2,0,4.2-1.5,4.7-3.6C114.4,17.6,112.8,14.9,110.2,14.2z M113.4,2.3c-0.4-0.1-0.9-0.2-1.3-0.2c-2.2,0-4.1,1.5-4.7,3.6
	c-0.7,2.6,0.8,5.3,3.4,6c0.4,0.1,0.9,0.2,1.3,0.2c2.2,0,4.2-1.5,4.7-3.6C117.6,5.7,116.1,3,113.4,2.3z M123.5,19.8
	c-0.8-0.4-1.6-0.7-2.5-0.7c-1.7,0-3.4,0.9-4.2,2.4c-0.7,1.1-0.9,2.4-0.5,3.7c0.3,1.3,1.1,2.3,2.3,3c0.8,0.4,1.6,0.7,2.5,0.7
	c1.7,0,3.3-0.9,4.2-2.4c0.7-1.1,0.9-2.5,0.5-3.7C125.5,21.5,124.7,20.4,123.5,19.8z M132.1,12.2c-0.3-1.3-1.1-2.3-2.3-3
	c-0.8-0.4-1.6-0.7-2.5-0.7c-1.7,0-3.3,0.9-4.2,2.4c-0.7,1.1-0.9,2.5-0.5,3.7c0.3,1.3,1.1,2.3,2.3,3c0.8,0.4,1.6,0.7,2.5,0.7
	c1.7,0,3.4-0.9,4.2-2.4C132.2,14.8,132.4,13.5,132.1,12.2z M79.5,12c0.4,0,0.9-0.1,1.3-0.2c2.6-0.7,4.1-3.4,3.4-6
	c-0.6-2.1-2.5-3.6-4.7-3.6c-0.4,0-0.9,0.1-1.3,0.2c-2.6,0.7-4.2,3.4-3.4,6C75.4,10.5,77.3,11.9,79.5,12L79.5,12z M163.6,66.8
	c0,1.6,1.3,2.8,2.8,2.8c1.6,0,2.8-1.3,2.8-2.8V47.1c0-1.6-1.3-2.8-2.8-2.8c-1.6,0-2.8,1.3-2.8,2.8V66.8z M82.6,64.1
	c-0.2,0-0.3-0.1-0.3-0.3l0-16.3c0-1.5-1.2-2.8-2.8-2.8c-1.5,0-2.8,1.2-2.8,2.8v20.3c0,0.9,0.7,1.5,1.5,1.5l9.7,0
	c1.4,0,2.6-1.2,2.6-2.6c0-1.4-1.2-2.6-2.6-2.6L82.6,64.1z M148.5,46.7L148.5,46.7c-0.6-1.2-1.8-1.8-3.3-1.8c-1.9,0-3.5,1.6-3.5,3.5
	V67c0,1.5,1.2,2.6,2.7,2.6c1.5,0,2.7-1.2,2.7-2.6l0-11.4c0-0.1,0.1-0.2,0.2-0.2l0.1,0.1l6.8,12c0.6,1.1,1.7,1.8,3,1.8
	c1.9,0,3.5-1.6,3.5-3.5l0-19c0-1.5-1.2-2.6-2.6-2.6c-1.5,0-2.6,1.2-2.6,2.6v11.4l-0.2,0.2l-0.1-0.1L148.5,46.7z M179,46.7L179,46.7
	c-0.6-1.2-1.8-1.8-3.3-1.8c-1.9,0-3.5,1.6-3.5,3.5l0,18.7c0,1.5,1.2,2.6,2.7,2.6c1.5,0,2.7-1.2,2.7-2.6l0-11.4
	c0-0.1,0.1-0.2,0.2-0.2l0.1,0.1l6.8,12c0.6,1.1,1.7,1.8,3,1.8c1.9,0,3.5-1.6,3.5-3.5v-19c0-1.5-1.2-2.6-2.6-2.6
	c-1.5,0-2.6,1.2-2.6,2.6l0,11.4l-0.2,0.2l-0.1-0.1L179,46.7z M49.8,52.2c-0.1,0-0.2,0-0.3-0.1l-6.1-6.4c-0.5-0.5-1.1-0.8-1.9-0.8
	c-1.4,0-2.6,1.2-2.6,2.6c0,0.7,0.3,1.3,0.7,1.7l7.4,8.5l0.1,9c0,1.4,1.2,2.6,2.6,2.6c1.4,0,2.6-1.2,2.6-2.6l0.1-9l7.4-8.5
	c0.4-0.5,0.7-1.1,0.7-1.7c0-1.4-1.2-2.6-2.6-2.6c-0.7,0-1.4,0.3-1.9,0.8L50,52.1C50,52.2,49.9,52.2,49.8,52.2z M29,50.6
	c3.6,0,6.6,2.9,6.6,6.6c0,3.6-2.9,6.6-6.6,6.6c-3.6,0-6.6-2.9-6.6-6.6C22.4,53.6,25.4,50.6,29,50.6z M41.2,57.2
	C41.2,50.4,35.8,45,29,45c-6.8,0-12.2,5.5-12.2,12.2c0,6.8,5.5,12.2,12.2,12.2C35.8,69.4,41.2,64,41.2,57.2z M128.8,58.8l0,0.1
	c0,0.1-0.1,0.2-0.2,0.2l-2.5,0v-4L128.8,58.8z M125.5,45.7c-0.5-0.6-1.3-1-2.1-1c-1.5,0-2.8,0.8-2.8,2.3v19.6c0,1.5,1.2,2.7,2.7,2.7
	c1.5,0,2.8-1.2,2.8-2.7l0-2.2h6.7l2.8,3.8c0.5,0.6,1.2,1.1,2.1,1.1c1.5,0,2.6-1.2,2.6-2.6c0-0.6-0.2-1.1-0.5-1.6L125.5,45.7z
	 M67.9,55.1v4l-2.5,0c-0.1,0-0.2-0.1-0.2-0.2l0-0.1L67.9,55.1z M54.1,65.1c-0.3,0.4-0.5,1-0.5,1.6c0,1.5,1.2,2.6,2.6,2.6
	c0.9,0,1.6-0.4,2.1-1.1l2.8-3.8h6.7l0,2.2c0,1.5,1.3,2.7,2.8,2.7c1.5,0,2.7-1.2,2.7-2.7V47.5c0-1.5-1.3-2.8-2.8-2.8
	c-0.8,0-1.6,0.4-2.1,1L54.1,65.1z M97.9,57.3c0,7.6,6.4,12.2,11.5,12.2c3.5,0,7.2-1.5,9.2-3.9c0.4-0.5,0.6-1,0.6-1.7
	c0-1.4-1.2-2.6-2.6-2.6c-0.4,0-0.8,0.1-1.2,0.3l-2.1,1.4c-1,0.7-2.2,1-3.5,1c-3.6,0-6.5-3-6.5-6.7c0-3.7,2.9-6.7,6.5-6.7
	c1.3,0,2.5,0.4,3.5,1l2.1,1.4c0.4,0.2,0.8,0.3,1.2,0.3c1.4,0,2.6-1.2,2.6-2.6c0-0.6-0.2-1.2-0.6-1.7c-2-2.4-5-3.8-8.5-3.8
	C103.3,45.1,97.9,50.6,97.9,57.3z M7.9,50.5c1.6,0,2.9,1.2,2.9,2.6c0,1.5-1.3,2.6-2.9,2.6S5,54.6,5,53.2C5,51.7,6.3,50.5,7.9,50.5z
	 M0.4,66.8c0,1.4,1.2,2.6,2.6,2.6c1.4,0,2.6-1.2,2.6-2.6l0.1-6.5C5.7,60.2,5.8,60,6,60l0.1,0l6.4,8.7c0.4,0.4,1,0.7,1.7,0.7
	c1.4,0,2.6-1.1,2.6-2.5c0-0.4-0.1-0.8-0.3-1.1l-4-6.3c2-1,3.5-3.5,3.5-6.2c0-4.5-3.2-8-7.9-8.2c-2.6-0.2-4.5,0.8-6,2.1
	C0.5,48.7,0,50.9,0,53.3L0.4,66.8z"/>
</svg>
