<svg id="Icons" xmlns="http://www.w3.org/2000/svg" viewBox="0 0 32 32"><title>video--rewind</title><g id="Rewind"><path d="M16,32A16,16,0,1,1,32,16,16,16,0,0,1,16,32ZM16,2A14,14,0,1,0,30,16,14,14,0,0,0,16,2Z" style="fill:#444"/><path d="M22,22a1,1,0,0,1-.64-.23l-6-5a1,1,0,0,1,0-1.54l6-5a1,1,0,1,1,1.28,1.54L17.56,16l5.08,4.23A1,1,0,0,1,22,22Z" style="fill:#444"/><path d="M15,22a1,1,0,0,1-.64-.23l-6-5a1,1,0,0,1,0-1.54l6-5a1,1,0,1,1,1.28,1.54L10.56,16l5.08,4.23A1,1,0,0,1,15,22Z" style="fill:#444"/></g></svg>