<svg id="Icons" xmlns="http://www.w3.org/2000/svg" viewBox="0 0 32 32"><title>video--volume--on</title><g id="Volume_On" data-name="Volume On"><path d="M16,32A16,16,0,1,1,32,16,16,16,0,0,1,16,32ZM16,2A14,14,0,1,0,30,16,14,14,0,0,0,16,2Z" style="fill:#444"/><path d="M24,16a4,4,0,0,0-3-3.86V10.73A2,2,0,0,0,18,9l-5,2.9a1,1,0,0,1-.45.11H11a2,2,0,0,0-2,2v4a2,2,0,0,0,2,2h1.53a1,1,0,0,1,.4.08L18,23a2,2,0,0,0,3-1.73V19.86A4,4,0,0,0,24,16ZM11,14h1v4H11Zm3,4.39V13.61l5-2.88V21.27Zm7-.67V14.28a2,2,0,0,1,0,3.44Z" style="fill:#444"/></g></svg>