<svg id="Icons" xmlns="http://www.w3.org/2000/svg" width="32" height="32" viewBox="0 0 32 32"><title>video--volume--off</title><g id="Volume_Off" data-name="Volume Off"><path d="M16,0A16,16,0,1,0,32,16,16,16,0,0,0,16,0Zm0,30A14,14,0,1,1,30,16,14,14,0,0,1,16,30Z" style="fill:#e2001a"/><path d="M20,9a2,2,0,0,0-2,0l-5,2.9a1,1,0,0,1-.45.11H11a2,2,0,0,0-2,2v4a2,2,0,0,0,2,2h1.53a1,1,0,0,1,.4.08L18,23a2,2,0,0,0,3-1.73V10.73A2,2,0,0,0,20,9Zm-9,5h1v4H11Zm3,4.39V13.61l5-2.88V21.27Z" style="fill:#e2001a"/></g></svg>