<svg id="Icons" xmlns="http://www.w3.org/2000/svg" viewBox="0 0 32 32"><title>video--rewind--small</title><g id="Rewind"><path d="M16,24a8,8,0,1,1,8-8A8,8,0,0,1,16,24Zm0-14a6,6,0,1,0,6,6A6,6,0,0,0,16,10Z" style="fill:#444"/><path d="M15,19a1,1,0,0,1-.71-.29l-2-2a1,1,0,0,1,0-1.41l2-2a1,1,0,0,1,1.41,1.41L14.41,16l1.29,1.29A1,1,0,0,1,15,19Z" style="fill:#444"/><path d="M19,19a1,1,0,0,1-.71-.29l-2-2a1,1,0,0,1,0-1.41l2-2a1,1,0,0,1,1.41,1.41L18.41,16l1.29,1.29A1,1,0,0,1,19,19Z" style="fill:#444"/></g></svg>