<svg id="Icons" xmlns="http://www.w3.org/2000/svg" viewBox="0 0 32 32"><title>video--expand</title><g id="Expand"><path d="M9,32H3a3,3,0,0,1-3-3V23a1,1,0,0,1,2,0v6a1,1,0,0,0,1,1H9a1,1,0,0,1,0,2Z" style="fill:#444"/><path d="M29,32H23a1,1,0,0,1,0-2h6a1,1,0,0,0,1-1V23a1,1,0,0,1,2,0v6A3,3,0,0,1,29,32Z" style="fill:#444"/><path d="M1,10A1,1,0,0,1,0,9V3A3,3,0,0,1,3,0H9A1,1,0,0,1,9,2H3A1,1,0,0,0,2,3V9A1,1,0,0,1,1,10Z" style="fill:#444"/><path d="M31,10a1,1,0,0,1-1-1V3a1,1,0,0,0-1-1H23a1,1,0,0,1,0-2h6a3,3,0,0,1,3,3V9A1,1,0,0,1,31,10Z" style="fill:#444"/></g></svg>