<svg id="Icons" xmlns="http://www.w3.org/2000/svg" viewBox="0 0 32 32"><title>video--collapse--small</title><g id="Collapse"><path d="M12,14H9a1,1,0,0,1,0-2h3V9a1,1,0,0,1,2,0v3A2,2,0,0,1,12,14Z" style="fill:#444"/><path d="M13,24a1,1,0,0,1-1-1V20H9a1,1,0,0,1,0-2h3a2,2,0,0,1,2,2v3A1,1,0,0,1,13,24Z" style="fill:#444"/><path d="M23,14H20a2,2,0,0,1-2-2V9a1,1,0,0,1,2,0v3h3a1,1,0,0,1,0,2Z" style="fill:#444"/><path d="M19,24a1,1,0,0,1-1-1V20a2,2,0,0,1,2-2h3a1,1,0,0,1,0,2H20v3A1,1,0,0,1,19,24Z" style="fill:#444"/></g></svg>