<svg id="Icons" xmlns="http://www.w3.org/2000/svg" viewBox="0 0 32 32"><title>video--fast-forward</title><g id="Fast_Forward" data-name="Fast Forward"><path d="M16,32A16,16,0,1,1,32,16,16,16,0,0,1,16,32ZM16,2A14,14,0,1,0,30,16,14,14,0,0,0,16,2Z" style="fill:#444"/><path d="M10,22a1,1,0,0,1-.64-1.77L14.44,16,9.36,11.77a1,1,0,1,1,1.28-1.54l6,5a1,1,0,0,1,0,1.54l-6,5A1,1,0,0,1,10,22Z" style="fill:#444"/><path d="M17,22a1,1,0,0,1-.64-1.77L21.44,16l-5.08-4.23a1,1,0,1,1,1.28-1.54l6,5a1,1,0,0,1,0,1.54l-6,5A1,1,0,0,1,17,22Z" style="fill:#444"/></g></svg>