<svg id="Icons" xmlns="http://www.w3.org/2000/svg" viewBox="0 0 32 32"><title>video--collapse</title><g id="Collapse"><path d="M7,10H1A1,1,0,0,1,1,8H7A1,1,0,0,0,8,7V1a1,1,0,0,1,2,0V7A3,3,0,0,1,7,10Z" style="fill:#444"/><path d="M9,32a1,1,0,0,1-1-1V25a1,1,0,0,0-1-1H1a1,1,0,0,1,0-2H7a3,3,0,0,1,3,3v6A1,1,0,0,1,9,32Z" style="fill:#444"/><path d="M31,10H25a3,3,0,0,1-3-3V1a1,1,0,0,1,2,0V7a1,1,0,0,0,1,1h6a1,1,0,0,1,0,2Z" style="fill:#444"/><path d="M23,32a1,1,0,0,1-1-1V25a3,3,0,0,1,3-3h6a1,1,0,0,1,0,2H25a1,1,0,0,0-1,1v6A1,1,0,0,1,23,32Z" style="fill:#444"/></g></svg>