<svg id="Icons" xmlns="http://www.w3.org/2000/svg" width="32" height="32" viewBox="0 0 32 32"><title>video--fast-forward</title><g id="Fast_Forward" data-name="Fast Forward"><path d="M16,0A16,16,0,1,0,32,16,16,16,0,0,0,16,0Zm0,30A14,14,0,1,1,30,16,14,14,0,0,1,16,30Z" style="fill:#e2001a"/><path d="M17,16a1,1,0,0,0-.36-.77l-6-5a1,1,0,1,0-1.28,1.54L14.44,16,9.36,20.23a1,1,0,0,0,1.28,1.54l6-5A1,1,0,0,0,17,16Z" style="fill:#e2001a"/><path d="M17.64,10.23a1,1,0,1,0-1.28,1.54L21.44,16l-5.08,4.23a1,1,0,0,0,1.28,1.54l6-5a1,1,0,0,0,0-1.54Z" style="fill:#e2001a"/></g></svg>