<svg id="Icons" xmlns="http://www.w3.org/2000/svg" viewBox="0 0 32 32"><title>video--expand--small</title><g id="Expand"><path d="M12.5,24H9.93A1.94,1.94,0,0,1,8,22.07V19.5a1,1,0,0,1,2,0v2.57L12.5,22a1,1,0,0,1,0,2Z" style="fill:#444"/><path d="M22.07,24H19.5a1,1,0,0,1,0-2h2.57L22,19.5a1,1,0,0,1,2,0v2.57A1.94,1.94,0,0,1,22.07,24Z" style="fill:#444"/><path d="M9,13.5a1,1,0,0,1-1-1V9.93A1.94,1.94,0,0,1,9.93,8H12.5a1,1,0,0,1,0,2H9.93L10,12.5A1,1,0,0,1,9,13.5Z" style="fill:#444"/><path d="M23,13.5a1,1,0,0,1-1-1V9.93L19.5,10a1,1,0,0,1,0-2h2.57A1.94,1.94,0,0,1,24,9.93V12.5A1,1,0,0,1,23,13.5Z" style="fill:#444"/></g></svg>