<svg id="Icons" xmlns="http://www.w3.org/2000/svg" viewBox="0 0 32 32"><title>video--fast-forward--small</title><g id="Fast_Forward" data-name="Fast Forward"><path d="M16,24a8,8,0,1,1,8-8A8,8,0,0,1,16,24Zm0-14a6,6,0,1,0,6,6A6,6,0,0,0,16,10Z" style="fill:#444"/><path d="M17,19a1,1,0,0,1-.71-1.71L17.59,16l-1.29-1.29a1,1,0,0,1,1.41-1.41l2,2a1,1,0,0,1,0,1.41l-2,2A1,1,0,0,1,17,19Z" style="fill:#444"/><path d="M13,19a1,1,0,0,1-.71-1.71L13.59,16l-1.29-1.29a1,1,0,0,1,1.41-1.41l2,2a1,1,0,0,1,0,1.41l-2,2A1,1,0,0,1,13,19Z" style="fill:#444"/></g></svg>