<svg xmlns="http://www.w3.org/2000/svg" viewBox="0 0 220 101.83">
  <defs>
    <style>
      .cls-1 {
        fill: #e2001a;
      }
    </style>
  </defs>
  <title>Royal Canin logo - secondary</title>
  <g id="Crown">
    <path class="cls-1" d="M84.62,51.89a2.27,2.27,0,0,1-2-1,2.53,2.53,0,0,1,.46-3.46c6.58-4.85,16.62-7.85,26.89-7.85h0c10.27,0,20.2,2.89,26.78,7.85a2.42,2.42,0,0,1,.46,3.46,2.52,2.52,0,0,1-3.46.46c-4.39-3.35-13-6.81-23.89-6.81h0C99,44.51,90.39,48.08,86,51.32A2.13,2.13,0,0,1,84.62,51.89ZM86.82,56a1.61,1.61,0,0,0,1-.35c5-4.15,13.5-6.69,22-6.69s16.85,2.54,21.93,6.69A1.72,1.72,0,0,0,134,53c-5.66-4.62-14.66-7.5-24.12-7.5S91.43,48.32,85.66,53a1.78,1.78,0,0,0-.23,2.42A1.83,1.83,0,0,0,86.82,56ZM73.66,20.5a5.21,5.21,0,0,0-2.89.81,6.17,6.17,0,0,0-2.65,3.46A6,6,0,0,0,68.7,29a5.67,5.67,0,0,0,4.85,2.77h0A5.21,5.21,0,0,0,76.43,31a6.17,6.17,0,0,0,2.65-3.46,6,6,0,0,0-.58-4.27A5.67,5.67,0,0,0,73.66,20.5Zm36.24,4.39a5.66,5.66,0,1,0,5.66,5.66A5.66,5.66,0,0,0,109.9,24.89Zm0-14.2a5.66,5.66,0,1,0,5.66,5.66A5.66,5.66,0,0,0,109.9,10.69Zm-15,16.16a6.75,6.75,0,0,0-1.5.23A5.54,5.54,0,0,0,89.47,34a5.68,5.68,0,0,0,5.42,4.15H95a5.79,5.79,0,0,0,1.38-.23,5.71,5.71,0,0,0,3.46-2.65,6.12,6.12,0,0,0,.58-4.27A5.93,5.93,0,0,0,94.89,26.85ZM80.81,32.74a5.21,5.21,0,0,0-2.89.81A6.17,6.17,0,0,0,75.27,37a6,6,0,0,0,.58,4.27A5.67,5.67,0,0,0,80.7,44h0a5.21,5.21,0,0,0,2.89-.81,6.17,6.17,0,0,0,2.65-3.46,6,6,0,0,0-.58-4.27A5.39,5.39,0,0,0,80.81,32.74Zm45.7-5.66a6.75,6.75,0,0,0-1.5-.23,5.64,5.64,0,0,0-1.5,11.08,6.75,6.75,0,0,0,1.5.23,5.64,5.64,0,0,0,1.5-11.08Zm3.69-13.73a6.75,6.75,0,0,0-1.5-.23,5.64,5.64,0,0,0-1.5,11.08,6.75,6.75,0,0,0,1.5.23,5.58,5.58,0,0,0,5.42-4.15A5.46,5.46,0,0,0,130.21,13.35Zm11.66,20.2a6.38,6.38,0,0,0-2.89-.81,5.53,5.53,0,0,0-4.85,2.77,5,5,0,0,0-.58,4.27,5.33,5.33,0,0,0,2.65,3.46,6.38,6.38,0,0,0,2.89.81,5.67,5.67,0,0,0,4.85-2.77,5.1,5.1,0,0,0,.58-4.27A5.07,5.07,0,0,0,141.87,33.54Zm9.93-8.77a5.33,5.33,0,0,0-2.65-3.46,6.38,6.38,0,0,0-2.89-.81,5.67,5.67,0,0,0-4.85,2.77,5.1,5.1,0,0,0-.58,4.27A5.33,5.33,0,0,0,143.48,31a6.38,6.38,0,0,0,2.89.81A5.53,5.53,0,0,0,151.21,29,6,6,0,0,0,151.79,24.77Zm-60.71-.23a6.75,6.75,0,0,0,1.5-.23,5.64,5.64,0,0,0-1.5-11.08,6.75,6.75,0,0,0-1.5.23,5.54,5.54,0,0,0-3.92,6.92,5.82,5.82,0,0,0,5.42,4.15Zm97.06,63.25a3.23,3.23,0,1,0,6.46,0V65.05a3.23,3.23,0,0,0-6.46,0ZM94.66,84.67a.31.31,0,0,1-.35-.35V65.51a3.23,3.23,0,0,0-6.46,0V88.94a1.7,1.7,0,0,0,1.73,1.73h11.19a3,3,0,1,0,0-6Zm76.06-20.08h0a4,4,0,0,0-3.81-2.08,4.09,4.09,0,0,0-4,4V88A3,3,0,0,0,166,91a3.08,3.08,0,0,0,3.12-3V74.86a.25.25,0,0,1,.23-.23l.12.12,7.85,13.85a3.89,3.89,0,0,0,3.46,2.08,4.09,4.09,0,0,0,4-4V64.7a3,3,0,0,0-6,0V77.86l-.23.23-.12-.12Zm35.2,0h0a4,4,0,0,0-3.81-2.08,4.09,4.09,0,0,0-4,4V88.13a3,3,0,0,0,3.12,3,3.08,3.08,0,0,0,3.12-3V75a.25.25,0,0,1,.23-.23l.12.12,7.85,13.85A3.89,3.89,0,0,0,216,90.79a4.09,4.09,0,0,0,4-4V64.82a3,3,0,0,0-6,0V78l-.23.23-.12-.12ZM56.81,70.94a.42.42,0,0,1-.35-.12l-7-7.39a3,3,0,0,0-2.19-.92,3.06,3.06,0,0,0-3,3,2.78,2.78,0,0,0,.81,2l8.54,9.81.12,10.39a3,3,0,0,0,6,0l.12-10.39,8.54-9.81a3.27,3.27,0,0,0,.81-2,3.06,3.06,0,0,0-3-3,3.15,3.15,0,0,0-2.19.92L57,70.82C57,70.94,56.92,70.94,56.81,70.94Zm-24-1.85a7.62,7.62,0,1,1-7.62,7.62A7.61,7.61,0,0,1,32.8,69.09Zm14.08,7.62A14.08,14.08,0,1,0,32.8,90.79,14,14,0,0,0,46.88,76.71ZM148,78.55v.12a.25.25,0,0,1-.23.23h-2.89V74.28Zm-3.81-15.12a3.25,3.25,0,0,0-2.42-1.15c-1.73,0-3.23.92-3.23,2.65V87.56a3.1,3.1,0,0,0,3.12,3.12,3.2,3.2,0,0,0,3.23-3.12V85h7.73l3.23,4.39a3.17,3.17,0,0,0,2.42,1.27,3,3,0,0,0,3-3,3.49,3.49,0,0,0-.58-1.85ZM77.7,74.28V78.9H74.81a.25.25,0,0,1-.23-.23v-.12ZM61.77,85.82a3.19,3.19,0,0,0-.58,1.85,3,3,0,0,0,3,3,2.86,2.86,0,0,0,2.42-1.27L69.85,85h7.73v2.54a3.2,3.2,0,0,0,3.23,3.12,3.1,3.1,0,0,0,3.12-3.12v-22a3.3,3.3,0,0,0-3.23-3.23,3.25,3.25,0,0,0-2.42,1.15Zm50.55-9c0,8.77,7.39,14.08,13.27,14.08,4,0,8.31-1.73,10.62-4.5a2.91,2.91,0,0,0,.69-2,3,3,0,0,0-4.39-2.65l-2.42,1.62a6.91,6.91,0,0,1-4,1.15,7.74,7.74,0,0,1,0-15.47,7.87,7.87,0,0,1,4,1.15l2.42,1.62a3,3,0,0,0,4.39-2.65,3.13,3.13,0,0,0-.69-2,12.49,12.49,0,0,0-9.81-4.39A13.89,13.89,0,0,0,112.32,76.82ZM8.45,69a3.22,3.22,0,0,1,3.35,3,3.14,3.14,0,0,1-3.35,3A3.13,3.13,0,0,1,5.1,72.09,3.23,3.23,0,0,1,8.45,69ZM-.21,87.79a3.06,3.06,0,0,0,3,3,3.06,3.06,0,0,0,3-3l.12-7.5a.37.37,0,0,1,.35-.35h.12l7.39,10a2.78,2.78,0,0,0,2,.81,3,3,0,0,0,3-2.89,2.33,2.33,0,0,0-.35-1.27l-4.62-7.27a8.11,8.11,0,0,0,4-7.16,9.21,9.21,0,0,0-9.12-9.46,9.09,9.09,0,0,0-6.92,2.42c-1.85,1.73-2.42,4.27-2.42,7Z"/>
  </g>
</svg>
