<?xml version="1.0" encoding="utf-8"?><svg width="840" height="840" viewBox="0 0 840 840" xmlns="http://www.w3.org/2000/svg" xmlns:xlink="http://www.w3.org/1999/xlink"><svg viewBox="-12.8 -12.8 89.6 89.6" width="70" height="70" id="arrow--right--black" x="70" xmlns="http://www.w3.org/2000/svg"><title>arrow--right</title><path d="M55.18 34.58l-20 20a2.58 2.58 0 1 0 3.66 3.66l24.4-24.41a2.58 2.58 0 0 0 0-3.66L38.87 5.8a2.58 2.58 0 1 0-3.66 3.66l20 20H2.58a2.58 2.58 0 1 0 0 5.17z"/></svg><svg viewBox="-12.8 -12.8 89.6 89.6" width="70" height="70" id="arrow--right--red" x="560" y="280" xmlns="http://www.w3.org/2000/svg"><title>arrow--right</title><path d="M55.18 34.58l-20 20a2.58 2.58 0 1 0 3.66 3.66l24.4-24.41a2.58 2.58 0 0 0 0-3.66L38.87 5.8a2.58 2.58 0 1 0-3.66 3.66l20 20H2.58a2.58 2.58 0 1 0 0 5.17z" fill="#e2001a"/></svg><svg viewBox="-12.8 -12.8 89.6 89.6" width="70" height="70" id="arrow--right--white" y="70" xmlns="http://www.w3.org/2000/svg"><title>arrow--right</title><path d="M55.18 34.58l-20 20a2.58 2.58 0 1 0 3.66 3.66l24.4-24.41a2.58 2.58 0 0 0 0-3.66L38.87 5.8a2.58 2.58 0 1 0-3.66 3.66l20 20H2.58a2.58 2.58 0 1 0 0 5.17z" fill="#fff"/></svg><svg viewBox="-12.8 -12.8 89.6 89.6" width="70" height="70" id="basket--black" x="70" y="70" xmlns="http://www.w3.org/2000/svg"><title>basket</title><path d="M61 30.88H33.79V9.42a4.9 4.9 0 1 0-4 0v21.42L3 30.81a3 3 0 1 0 0 6h.32l9.33 21.45A3 3 0 0 0 14 63.94h35.6a3 3 0 0 0 1.33-5.68l9.3-21.38H61a3 3 0 1 0 0-6zM40.08 57.94L41.37 49h7.38l-3.87 8.89zm-5.8 0h-5L28 49h7.58zm-15.6 0L14.82 49h7.38l1.29 8.89zM27.28 44l-1-7.21h11.06l-1 7.2zm-6.84-7.22l1 7.22h-8.79L9.5 36.81zM50.93 44H42.1l1-7.19H54z"/></svg><svg viewBox="-12.8 -12.8 89.6 89.6" width="70" height="70" id="basket--red" x="140" xmlns="http://www.w3.org/2000/svg"><title>basket</title><path d="M61 30.88H33.79V9.42a4.9 4.9 0 1 0-4 0v21.42L3 30.81a3 3 0 1 0 0 6h.32l9.33 21.45A3 3 0 0 0 14 63.94h35.6a3 3 0 0 0 1.33-5.68l9.3-21.38H61a3 3 0 1 0 0-6zM40.08 57.94L41.37 49h7.38l-3.87 8.89zm-5.8 0h-5L28 49h7.58zm-15.6 0L14.82 49h7.38l1.29 8.89zM27.28 44l-1-7.21h11.06l-1 7.2zm-6.84-7.22l1 7.22h-8.79L9.5 36.81zM50.93 44H42.1l1-7.19H54z" fill="#e2001a"/></svg><svg viewBox="-12.8 -12.8 89.6 89.6" width="70" height="70" id="basket--white" x="140" y="70" xmlns="http://www.w3.org/2000/svg"><title>basket</title><path d="M61 30.88H33.79V9.42a4.9 4.9 0 1 0-4 0v21.42L3 30.81a3 3 0 1 0 0 6h.32l9.33 21.45A3 3 0 0 0 14 63.94h35.6a3 3 0 0 0 1.33-5.68l9.3-21.38H61a3 3 0 1 0 0-6zM40.08 57.94L41.37 49h7.38l-3.87 8.89zm-5.8 0h-5L28 49h7.58zm-15.6 0L14.82 49h7.38l1.29 8.89zM27.28 44l-1-7.21h11.06l-1 7.2zm-6.84-7.22l1 7.22h-8.79L9.5 36.81zM50.93 44H42.1l1-7.19H54z" fill="#fff"/></svg><svg viewBox="-12.8 -12.8 89.6 89.6" width="70" height="70" id="bowl--black" y="140" xmlns="http://www.w3.org/2000/svg"><title>bowl</title><path d="M56.06 18.85C56.06 16.72 45.28 15 32 15S7.95 16.72 7.95 18.85L.17 43.36a1 1 0 0 0-.17.52C0 46.71 14.33 49 32 49s32-2.29 32-5.11a1 1 0 0 0-.17-.52zM32 20.89c-10.28 0-18.61-.92-18.61-2s8.33-2 18.61-2 18.61.92 18.61 2-8.33 2-18.61 2z"/></svg><svg viewBox="-12.8 -12.8 89.6 89.6" width="70" height="70" id="bowl--red" x="70" y="140" xmlns="http://www.w3.org/2000/svg"><title>bowl</title><path d="M56.06 18.85C56.06 16.72 45.28 15 32 15S7.95 16.72 7.95 18.85L.17 43.36a1 1 0 0 0-.17.52C0 46.71 14.33 49 32 49s32-2.29 32-5.11a1 1 0 0 0-.17-.52zM32 20.89c-10.28 0-18.61-.92-18.61-2s8.33-2 18.61-2 18.61.92 18.61 2-8.33 2-18.61 2z" fill="#e2001a"/></svg><svg viewBox="-12.8 -12.8 89.6 89.6" width="70" height="70" id="bowl--white" x="140" y="140" xmlns="http://www.w3.org/2000/svg"><title>bowl</title><path d="M56.06 18.85C56.06 16.72 45.28 15 32 15S7.95 16.72 7.95 18.85L.17 43.36a1 1 0 0 0-.17.52C0 46.71 14.33 49 32 49s32-2.29 32-5.11a1 1 0 0 0-.17-.52zM32 20.89c-10.28 0-18.61-.92-18.61-2s8.33-2 18.61-2 18.61.92 18.61 2-8.33 2-18.61 2z" fill="#fff"/></svg><svg viewBox="-12.8 -12.8 89.6 89.6" width="70" height="70" id="calendar--black" x="210" xmlns="http://www.w3.org/2000/svg"><title>calendar</title><path d="M9.62 29.28v21.16h34.19v-9.35h10.57V29.28zm23.62 9.34h8.1v-6.87h-8.1zm-10.57 0h8.1v-6.87h-8.1zm0 9.34h8.1v-6.87h-8.1zm-10.58-9.34h8.1v-6.87h-8.1zm0 9.34h8.1v-6.87h-8.1zm21.15 0h8.1v-6.87h-8.1zm10.57-9.34h8.1v-6.87h-8.1zM14.08 14.84a2.31 2.31 0 1 1 2.31 2.31 2.31 2.31 0 0 1-2.31-2.31zm32.3 0a2.31 2.31 0 1 1 2.31 2.31 2.31 2.31 0 0 1-2.31-2.31zm11-10.17H6.59A6.6 6.6 0 0 0 0 11.26v41.48a6.6 6.6 0 0 0 6.59 6.59h41.63l4.94-4.94 5.89-5.89L64 43.56v-32.3a6.6 6.6 0 0 0-6.6-6.6zM6.59 9.61H57.4a1.65 1.65 0 0 1 1.65 1.65v8.22H4.94v-8.22a1.65 1.65 0 0 1 1.65-1.65zM54.82 43.5a6.6 6.6 0 0 0-6.59 6.6v4.3H6.59a1.65 1.65 0 0 1-1.65-1.65V24.42h54.12V43.5z"/></svg><svg viewBox="-12.8 -12.8 89.6 89.6" width="70" height="70" id="calendar--red" x="210" y="70" xmlns="http://www.w3.org/2000/svg"><title>calendar</title><path d="M9.62 29.28v21.16h34.19v-9.35h10.57V29.28zm23.62 9.34h8.1v-6.87h-8.1zm-10.57 0h8.1v-6.87h-8.1zm0 9.34h8.1v-6.87h-8.1zm-10.58-9.34h8.1v-6.87h-8.1zm0 9.34h8.1v-6.87h-8.1zm21.15 0h8.1v-6.87h-8.1zm10.57-9.34h8.1v-6.87h-8.1zM14.08 14.84a2.31 2.31 0 1 1 2.31 2.31 2.31 2.31 0 0 1-2.31-2.31zm32.3 0a2.31 2.31 0 1 1 2.31 2.31 2.31 2.31 0 0 1-2.31-2.31zm11-10.17H6.59A6.6 6.6 0 0 0 0 11.26v41.48a6.6 6.6 0 0 0 6.59 6.59h41.63l4.94-4.94 5.89-5.89L64 43.56v-32.3a6.6 6.6 0 0 0-6.6-6.6zM6.59 9.61H57.4a1.65 1.65 0 0 1 1.65 1.65v8.22H4.94v-8.22a1.65 1.65 0 0 1 1.65-1.65zM54.82 43.5a6.6 6.6 0 0 0-6.59 6.6v4.3H6.59a1.65 1.65 0 0 1-1.65-1.65V24.42h54.12V43.5z" fill="#e2001a"/></svg><svg viewBox="-12.8 -12.8 89.6 89.6" width="70" height="70" id="calendar--white" x="210" y="140" xmlns="http://www.w3.org/2000/svg"><title>calendar</title><path d="M9.62 29.28v21.16h34.19v-9.35h10.57V29.28zm23.62 9.34h8.1v-6.87h-8.1zm-10.57 0h8.1v-6.87h-8.1zm0 9.34h8.1v-6.87h-8.1zm-10.58-9.34h8.1v-6.87h-8.1zm0 9.34h8.1v-6.87h-8.1zm21.15 0h8.1v-6.87h-8.1zm10.57-9.34h8.1v-6.87h-8.1zM14.08 14.84a2.31 2.31 0 1 1 2.31 2.31 2.31 2.31 0 0 1-2.31-2.31zm32.3 0a2.31 2.31 0 1 1 2.31 2.31 2.31 2.31 0 0 1-2.31-2.31zm11-10.17H6.59A6.6 6.6 0 0 0 0 11.26v41.48a6.6 6.6 0 0 0 6.59 6.59h41.63l4.94-4.94 5.89-5.89L64 43.56v-32.3a6.6 6.6 0 0 0-6.6-6.6zM6.59 9.61H57.4a1.65 1.65 0 0 1 1.65 1.65v8.22H4.94v-8.22a1.65 1.65 0 0 1 1.65-1.65zM54.82 43.5a6.6 6.6 0 0 0-6.59 6.6v4.3H6.59a1.65 1.65 0 0 1-1.65-1.65V24.42h54.12V43.5z" fill="#fff"/></svg><svg viewBox="-12.8 -12.8 89.6 89.6" width="70" height="70" id="check--black" y="210" xmlns="http://www.w3.org/2000/svg"><title>check</title><path d="M62.65 15.87L31.74 56a6.46 6.46 0 0 1-1.63 1.5l-.22.12a6.46 6.46 0 0 1-7.2-.47L2.53 41.76a6.49 6.49 0 0 1 7.91-10.28L25.41 43l27-35a6.49 6.49 0 0 1 10.28 7.91" data-name="Check"/></svg><svg viewBox="-12.8 -12.8 89.6 89.6" width="70" height="70" id="check--green" x="70" y="210" xmlns="http://www.w3.org/2000/svg"><path d="M62.7 15.9L31.7 56c-.5.6-1 1.1-1.6 1.5-.1 0-.1.1-.2.1-1 .6-2.1.9-3.2.9-1.4 0-2.8-.4-4-1.3L2.5 41.8c-2.8-2.2-3.4-6.3-1.2-9.1s6.3-3.4 9.1-1.2l15 11.5 27-35c2.2-2.8 6.3-3.4 9.1-1.2s3.3 6.2 1.2 9.1" fill-rule="evenodd" clip-rule="evenodd" fill="#02ad0a"/></svg><svg viewBox="-12.8 -12.8 89.6 89.6" width="70" height="70" id="check--red" x="140" y="210" xmlns="http://www.w3.org/2000/svg"><title>check</title><path d="M62.65 15.87L31.74 56a6.46 6.46 0 0 1-1.63 1.5l-.22.12a6.46 6.46 0 0 1-7.2-.47L2.53 41.76a6.49 6.49 0 0 1 7.91-10.28L25.41 43l27-35a6.49 6.49 0 0 1 10.28 7.91" fill="#e2001a" data-name="Check"/></svg><svg viewBox="-12.8 -12.8 89.6 89.6" width="70" height="70" id="check--v2--black" x="210" y="210" xmlns="http://www.w3.org/2000/svg"><title>check--v2</title><path d="M32 0a32 32 0 1 0 32 32A32 32 0 0 0 32 0m0 57a25 25 0 1 1 25-25 25 25 0 0 1-25 25m14.28-31.62L33 43.94a3.5 3.5 0 0 1-4.88.81l-9.57-6.86a3.5 3.5 0 1 1 4.08-5.69l6.7 4.8 11.26-15.7a3.5 3.5 0 1 1 5.69 4.08"/></svg><svg viewBox="-12.8 -12.8 89.6 89.6" width="70" height="70" id="check--v2--red" x="280" xmlns="http://www.w3.org/2000/svg"><title>check--v2</title><path d="M32 0a32 32 0 1 0 32 32A32 32 0 0 0 32 0m0 57a25 25 0 1 1 25-25 25 25 0 0 1-25 25m14.28-31.62L33 43.94a3.5 3.5 0 0 1-4.88.81l-9.57-6.86a3.5 3.5 0 1 1 4.08-5.69l6.7 4.8 11.26-15.7a3.5 3.5 0 1 1 5.69 4.08" fill="#e2001a"/></svg><svg viewBox="-12.8 -12.8 89.6 89.6" width="70" height="70" id="check--v2--white" x="280" y="70" xmlns="http://www.w3.org/2000/svg"><title>check--v2</title><path d="M32 0a32 32 0 1 0 32 32A32 32 0 0 0 32 0m0 57a25 25 0 1 1 25-25 25 25 0 0 1-25 25m14.28-31.62L33 43.94a3.5 3.5 0 0 1-4.88.81l-9.57-6.86a3.5 3.5 0 1 1 4.08-5.69l6.7 4.8 11.26-15.7a3.5 3.5 0 1 1 5.69 4.08" fill="#fff"/></svg><svg viewBox="-12.8 -12.8 89.6 89.6" width="70" height="70" id="check--white" x="280" y="140" xmlns="http://www.w3.org/2000/svg"><title>check</title><path d="M62.65 15.87L31.74 56a6.46 6.46 0 0 1-1.63 1.5l-.22.12a6.46 6.46 0 0 1-7.2-.47L2.53 41.76a6.49 6.49 0 0 1 7.91-10.28L25.41 43l27-35a6.49 6.49 0 0 1 10.28 7.91" fill="#fff" data-name="Check"/></svg><svg viewBox="-12.8 -12.8 89.6 89.6" width="70" height="70" id="chevron--down--black" x="280" y="210" xmlns="http://www.w3.org/2000/svg"><title>chevron--down</title><path d="M29.51 48.73L1 20.24a3.51 3.51 0 0 1 5-5l26 26 26-26a3.51 3.51 0 0 1 5 5L34.48 48.73a3.51 3.51 0 0 1-5 0" data-name="Down Arrow"/></svg><svg viewBox="-12.8 -12.8 89.6 89.6" width="70" height="70" id="chevron--down--red" y="280" xmlns="http://www.w3.org/2000/svg"><title>chevron--down</title><path d="M29.51 48.73L1 20.24a3.51 3.51 0 0 1 5-5l26 26 26-26a3.51 3.51 0 0 1 5 5L34.48 48.73a3.51 3.51 0 0 1-5 0" fill="#e2001a" data-name="Down Arrow"/></svg><svg viewBox="-12.8 -12.8 89.6 89.6" width="70" height="70" id="chevron--down--white" x="70" y="280" xmlns="http://www.w3.org/2000/svg"><title>chevron--down</title><path d="M29.51 48.73L1 20.24a3.51 3.51 0 0 1 5-5l26 26 26-26a3.51 3.51 0 0 1 5 5L34.48 48.73a3.51 3.51 0 0 1-5 0" fill="#fff" data-name="Down Arrow"/></svg><svg viewBox="-12.8 -12.8 89.6 89.6" width="70" height="70" id="chevron--heavy--down--black" x="140" y="280" xmlns="http://www.w3.org/2000/svg"><title>chevron--heavy--down</title><path d="M33.85 42a4.86 4.86 0 0 1-1.85.4 4.94 4.94 0 0 1-1.85-.4L3 30.83A4.8 4.8 0 1 1 6.68 22L32 32.4 57.32 22A4.8 4.8 0 1 1 61 30.83z" data-name="Down Arrow"/></svg><svg viewBox="-12.8 -12.8 89.6 89.6" width="70" height="70" id="chevron--heavy--down--red" x="210" y="280" xmlns="http://www.w3.org/2000/svg"><title>chevron--heavy--down</title><path d="M33.85 42a4.86 4.86 0 0 1-1.85.4 4.94 4.94 0 0 1-1.85-.4L3 30.83A4.8 4.8 0 1 1 6.68 22L32 32.4 57.32 22A4.8 4.8 0 1 1 61 30.83z" fill="#e2001a" data-name="Down Arrow"/></svg><svg viewBox="-12.8 -12.8 89.6 89.6" width="70" height="70" id="chevron--heavy--down--white" x="280" y="280" xmlns="http://www.w3.org/2000/svg"><title>chevron--heavy--down</title><path d="M33.85 42a4.86 4.86 0 0 1-1.85.4 4.94 4.94 0 0 1-1.85-.4L3 30.83A4.8 4.8 0 1 1 6.68 22L32 32.4 57.32 22A4.8 4.8 0 1 1 61 30.83z" fill="#fff" data-name="Down Arrow"/></svg><svg viewBox="-12.8 -12.8 89.6 89.6" width="70" height="70" id="chevron--heavy--up--black" x="350" xmlns="http://www.w3.org/2000/svg"><title>chevron--heavy--up</title><path d="M30.15 22a4.86 4.86 0 0 1 1.85-.4 4.94 4.94 0 0 1 1.88.37L61 33.17A4.8 4.8 0 1 1 57.32 42L32 31.6 6.68 42A4.8 4.8 0 1 1 3 33.17z" data-name="Up Arrow"/></svg><svg viewBox="-12.8 -12.8 89.6 89.6" width="70" height="70" id="chevron--heavy--up--red" x="350" y="70" xmlns="http://www.w3.org/2000/svg"><title>chevron--heavy--up</title><path d="M30.15 22a4.86 4.86 0 0 1 1.85-.4 4.94 4.94 0 0 1 1.88.37L61 33.17A4.8 4.8 0 1 1 57.32 42L32 31.6 6.68 42A4.8 4.8 0 1 1 3 33.17z" fill="#e2001a" data-name="Up Arrow"/></svg><svg viewBox="-12.8 -12.8 89.6 89.6" width="70" height="70" id="chevron--heavy--up--white" x="350" y="140" xmlns="http://www.w3.org/2000/svg"><title>chevron--heavy--up</title><path d="M30.15 22a4.86 4.86 0 0 1 1.85-.4 4.94 4.94 0 0 1 1.88.37L61 33.17A4.8 4.8 0 1 1 57.32 42L32 31.6 6.68 42A4.8 4.8 0 1 1 3 33.17z" fill="#fff" data-name="Up Arrow"/></svg><svg viewBox="-12.8 -12.8 89.6 89.6" width="70" height="70" id="chevron--left--black" x="350" y="210" xmlns="http://www.w3.org/2000/svg"><title>chevron--left</title><path d="M15.27 29.52L43.76 1a3.51 3.51 0 1 1 5 5l-26 26 26 26a3.51 3.51 0 0 1-5 5L15.27 34.49a3.52 3.52 0 0 1 0-5" data-name="Left arrow"/></svg><svg viewBox="-12.8 -12.8 89.6 89.6" width="70" height="70" id="chevron--left--red" x="350" y="280" xmlns="http://www.w3.org/2000/svg"><title>chevron--left</title><path d="M15.27 29.52L43.76 1a3.51 3.51 0 1 1 5 5l-26 26 26 26a3.51 3.51 0 0 1-5 5L15.27 34.49a3.52 3.52 0 0 1 0-5" fill="#e2001a" data-name="Left arrow"/></svg><svg viewBox="-12.8 -12.8 89.6 89.6" width="70" height="70" id="chevron--left--white" y="350" xmlns="http://www.w3.org/2000/svg"><title>chevron--left</title><path d="M15.27 29.52L43.76 1a3.51 3.51 0 1 1 5 5l-26 26 26 26a3.51 3.51 0 0 1-5 5L15.27 34.49a3.52 3.52 0 0 1 0-5" fill="#fff" data-name="Left arrow"/></svg><svg viewBox="-12.8 -12.8 89.6 89.6" width="70" height="70" id="chevron--right--black" x="70" y="350" xmlns="http://www.w3.org/2000/svg"><title>chevron--right</title><path d="M48.73 34.49L20.24 63a3.51 3.51 0 0 1-5-5l26-26-26-26a3.51 3.51 0 0 1 5-5l28.49 28.52a3.51 3.51 0 0 1 0 5" data-name="Right arrow"/></svg><svg viewBox="-12.8 -12.8 89.6 89.6" width="70" height="70" id="chevron--right--red" x="140" y="350" xmlns="http://www.w3.org/2000/svg"><title>chevron--right</title><path d="M48.73 34.49L20.24 63a3.51 3.51 0 0 1-5-5l26-26-26-26a3.51 3.51 0 0 1 5-5l28.49 28.52a3.51 3.51 0 0 1 0 5" fill="#e2001a" data-name="Right arrow"/></svg><svg viewBox="-12.8 -12.8 89.6 89.6" width="70" height="70" id="chevron--right--white" x="210" y="350" xmlns="http://www.w3.org/2000/svg"><title>chevron--right</title><path d="M48.73 34.49L20.24 63a3.51 3.51 0 0 1-5-5l26-26-26-26a3.51 3.51 0 0 1 5-5l28.49 28.52a3.51 3.51 0 0 1 0 5" fill="#fff" data-name="Right arrow"/></svg><svg viewBox="-12.8 -12.8 89.6 89.6" width="70" height="70" id="chevron--up--black" x="280" y="350" xmlns="http://www.w3.org/2000/svg"><title>chevron--up</title><path d="M34.49 15.27L63 43.76a3.51 3.51 0 1 1-5 5l-26-26-26 26a3.51 3.51 0 1 1-5-5l28.52-28.49a3.51 3.51 0 0 1 5 0" data-name="Up Arrow"/></svg><svg viewBox="-12.8 -12.8 89.6 89.6" width="70" height="70" id="chevron--up--red" x="350" y="350" xmlns="http://www.w3.org/2000/svg"><title>chevron--up</title><path d="M34.49 15.27L63 43.76a3.51 3.51 0 1 1-5 5l-26-26-26 26a3.51 3.51 0 1 1-5-5l28.52-28.49a3.51 3.51 0 0 1 5 0" fill="#e2001a" data-name="Up Arrow"/></svg><svg viewBox="-12.8 -12.8 89.6 89.6" width="70" height="70" id="chevron--up--white" x="420" xmlns="http://www.w3.org/2000/svg"><title>chevron--up</title><path d="M34.49 15.27L63 43.76a3.51 3.51 0 1 1-5 5l-26-26-26 26a3.51 3.51 0 1 1-5-5l28.52-28.49a3.51 3.51 0 0 1 5 0" fill="#fff" data-name="Up Arrow"/></svg><svg viewBox="-12.8 -12.8 89.6 89.6" width="70" height="70" id="clock--black" x="420" y="70" xmlns="http://www.w3.org/2000/svg"><title>clock</title><path d="M32 0a32 32 0 1 0 32 32A32 32 0 0 0 32 0zm0 57a25 25 0 1 1 25-25 25 25 0 0 1-25 25zm14.6-15.52a3.5 3.5 0 1 1-4.95 4.95l-13-13v-19a3.5 3.5 0 0 1 7 0v16.06z"/></svg><svg viewBox="-12.8 -12.8 89.6 89.6" width="70" height="70" id="clock--red" x="420" y="140" xmlns="http://www.w3.org/2000/svg"><title>clock</title><path d="M32 0a32 32 0 1 0 32 32A32 32 0 0 0 32 0zm0 57a25 25 0 1 1 25-25 25 25 0 0 1-25 25zm14.6-15.52a3.5 3.5 0 1 1-4.95 4.95l-13-13v-19a3.5 3.5 0 0 1 7 0v16.06z" fill="#e2001a"/></svg><svg viewBox="-12.8 -12.8 89.6 89.6" width="70" height="70" id="clock--white" x="420" y="210" xmlns="http://www.w3.org/2000/svg"><title>clock</title><path d="M32 0a32 32 0 1 0 32 32A32 32 0 0 0 32 0zm0 57a25 25 0 1 1 25-25 25 25 0 0 1-25 25zm14.6-15.52a3.5 3.5 0 1 1-4.95 4.95l-13-13v-19a3.5 3.5 0 0 1 7 0v16.06z" fill="#fff"/></svg><svg viewBox="-12.8 -12.8 89.6 89.6" width="70" height="70" id="comment--black" x="420" y="280" xmlns="http://www.w3.org/2000/svg"><title>comment</title><path d="M32 10.43c14.89 0 27 8.45 27 18.87S46.89 48.18 32 48.18a37.65 37.65 0 0 1-8.49-1c-2.29 2.3-7.69 6.35-11.73 6.35 4-4 2.47-10 1-11C8 39.12 5 34.45 5 29.3c0-10.42 12.11-18.87 27-18.87m0-5a38.52 38.52 0 0 0-22 6.44C3.57 16.37 0 22.57 0 29.3c0 6.41 3.25 12.36 9.16 16.83A4 4 0 0 1 8.22 50a5 5 0 0 0 3.56 8.6c5.16 0 10.4-3.64 13.21-6a43.29 43.29 0 0 0 7 .57 38.51 38.51 0 0 0 22-6.44C60.43 42.24 64 36 64 29.3s-3.57-12.93-10-17.47a38.51 38.51 0 0 0-22-6.44"/></svg><svg viewBox="-12.8 -12.8 89.6 89.6" width="70" height="70" id="comment--red" x="420" y="350" xmlns="http://www.w3.org/2000/svg"><title>comment</title><path d="M32 10.43c14.89 0 27 8.45 27 18.87S46.89 48.18 32 48.18a37.65 37.65 0 0 1-8.49-1c-2.29 2.3-7.69 6.35-11.73 6.35 4-4 2.47-10 1-11C8 39.12 5 34.45 5 29.3c0-10.42 12.11-18.87 27-18.87m0-5a38.52 38.52 0 0 0-22 6.44C3.57 16.37 0 22.57 0 29.3c0 6.41 3.25 12.36 9.16 16.83A4 4 0 0 1 8.22 50a5 5 0 0 0 3.56 8.6c5.16 0 10.4-3.64 13.21-6a43.29 43.29 0 0 0 7 .57 38.51 38.51 0 0 0 22-6.44C60.43 42.24 64 36 64 29.3s-3.57-12.93-10-17.47a38.51 38.51 0 0 0-22-6.44" fill="#e2001a"/></svg><svg viewBox="-12.8 -12.8 89.6 89.6" width="70" height="70" id="comment--white" y="420" xmlns="http://www.w3.org/2000/svg"><title>comment</title><path d="M32 10.43c14.89 0 27 8.45 27 18.87S46.89 48.18 32 48.18a37.65 37.65 0 0 1-8.49-1c-2.29 2.3-7.69 6.35-11.73 6.35 4-4 2.47-10 1-11C8 39.12 5 34.45 5 29.3c0-10.42 12.11-18.87 27-18.87m0-5a38.52 38.52 0 0 0-22 6.44C3.57 16.37 0 22.57 0 29.3c0 6.41 3.25 12.36 9.16 16.83A4 4 0 0 1 8.22 50a5 5 0 0 0 3.56 8.6c5.16 0 10.4-3.64 13.21-6a43.29 43.29 0 0 0 7 .57 38.51 38.51 0 0 0 22-6.44C60.43 42.24 64 36 64 29.3s-3.57-12.93-10-17.47a38.51 38.51 0 0 0-22-6.44" fill="#fff"/></svg><svg viewBox="-12.8 -12.8 89.6 89.6" width="70" height="70" id="cross--black" x="70" y="420" xmlns="http://www.w3.org/2000/svg"><title>cross</title><path d="M63 58a3.54 3.54 0 1 1-5 5L32 37 6 63a3.54 3.54 0 1 1-5-5l26-26L1 6a3.54 3.54 0 0 1 5-5l26 26L58 1a3.54 3.54 0 1 1 5 5L37 32z"/></svg><svg viewBox="-12.8 -12.8 89.6 89.6" width="70" height="70" id="cross--red" x="140" y="420" xmlns="http://www.w3.org/2000/svg"><title>cross</title><path d="M63 58a3.54 3.54 0 1 1-5 5L32 37 6 63a3.54 3.54 0 1 1-5-5l26-26L1 6a3.54 3.54 0 0 1 5-5l26 26L58 1a3.54 3.54 0 1 1 5 5L37 32z" fill="#e2001a"/></svg><svg viewBox="-12.8 -12.8 89.6 89.6" width="70" height="70" id="cross--white" x="210" y="420" xmlns="http://www.w3.org/2000/svg"><title>cross</title><path d="M63 58a3.54 3.54 0 1 1-5 5L32 37 6 63a3.54 3.54 0 1 1-5-5l26-26L1 6a3.54 3.54 0 0 1 5-5l26 26L58 1a3.54 3.54 0 1 1 5 5L37 32z" fill="#fff"/></svg><svg viewBox="-12.8 -12.8 89.6 89.6" width="70" height="70" id="crown--black" x="280" y="420" xmlns="http://www.w3.org/2000/svg"><title>crown</title><path d="M12.68 46.08a1.88 1.88 0 0 1-1.13-3.39c5-3.74 12.65-6 20.47-6 7.79 0 15.42 2.24 20.42 6a1.88 1.88 0 0 1-2.26 3c-3.38-2.53-9.92-5.22-18.16-5.22-8.28 0-14.84 2.7-18.21 5.22a1.86 1.86 0 0 1-1.13.39zm1.72 3.22a1.29 1.29 0 0 0 .82-.29C19 45.87 25.48 43.92 32 43.92s12.9 1.9 16.78 5.08a1.29 1.29 0 1 0 1.63-2c-4.32-3.55-11.2-5.67-18.39-5.67S17.91 43.46 13.59 47a1.29 1.29 0 0 0 .82 2.28zM4.31 22.19a4.32 4.32 0 0 0 0 8.64A4.32 4.32 0 0 0 8 24.31a4.34 4.34 0 0 0-3.69-2.12zM32 25.51a4.32 4.32 0 1 0 4.32 4.32A4.33 4.33 0 0 0 32 25.51zm0-10.81a4.32 4.32 0 1 0 4.32 4.3A4.33 4.33 0 0 0 32 14.7zM20.51 27a4.41 4.41 0 0 0-1.14.15 4.32 4.32 0 0 0 1.12 8.49h.1a4.36 4.36 0 0 0 1.06-.15A4.32 4.32 0 0 0 20.51 27zM9.82 31.5A4.32 4.32 0 0 0 6.11 38a4.37 4.37 0 0 0 3.7 2.12 4.34 4.34 0 0 0 2.2-.6 4.32 4.32 0 0 0 1.52-5.91 4.35 4.35 0 0 0-3.71-2.11zm34.81-4.33a4.32 4.32 0 1 0 3 5.31 4.3 4.3 0 0 0-3-5.31zm2.85-10.43a4.32 4.32 0 1 0 3 5.31 4.34 4.34 0 0 0-3-5.31zm8.89 15.36a4.32 4.32 0 1 0 2 2.64 4.3 4.3 0 0 0-2-2.64zm7.49-6.67a4.32 4.32 0 0 0-4.18-3.24A4.34 4.34 0 0 0 56 24.31a4.32 4.32 0 0 0 3.71 6.52 4.34 4.34 0 0 0 3.72-2.12 4.28 4.28 0 0 0 .43-3.27zm-46.2-.21a4.32 4.32 0 0 0 0-8.64 4.27 4.27 0 0 0-1.14.16 4.32 4.32 0 0 0 1.12 8.48z"/></svg><svg viewBox="-12.8 -12.8 89.6 89.6" width="70" height="70" id="crown--red" x="350" y="420" xmlns="http://www.w3.org/2000/svg"><title>crown</title><path d="M12.68 46.08a1.88 1.88 0 0 1-1.13-3.39c5-3.74 12.65-6 20.47-6 7.79 0 15.42 2.24 20.42 6a1.88 1.88 0 0 1-2.26 3c-3.38-2.53-9.92-5.22-18.16-5.22-8.28 0-14.84 2.7-18.21 5.22a1.86 1.86 0 0 1-1.13.39zm1.72 3.22a1.29 1.29 0 0 0 .82-.29C19 45.87 25.48 43.92 32 43.92s12.9 1.9 16.78 5.08a1.29 1.29 0 1 0 1.63-2c-4.32-3.55-11.2-5.67-18.39-5.67S17.91 43.46 13.59 47a1.29 1.29 0 0 0 .82 2.28zM4.31 22.19a4.32 4.32 0 0 0 0 8.64A4.32 4.32 0 0 0 8 24.31a4.34 4.34 0 0 0-3.69-2.12zM32 25.51a4.32 4.32 0 1 0 4.32 4.32A4.33 4.33 0 0 0 32 25.51zm0-10.81a4.32 4.32 0 1 0 4.32 4.3A4.33 4.33 0 0 0 32 14.7zM20.51 27a4.41 4.41 0 0 0-1.14.15 4.32 4.32 0 0 0 1.12 8.49h.1a4.36 4.36 0 0 0 1.06-.15A4.32 4.32 0 0 0 20.51 27zM9.82 31.5A4.32 4.32 0 0 0 6.11 38a4.37 4.37 0 0 0 3.7 2.12 4.34 4.34 0 0 0 2.2-.6 4.32 4.32 0 0 0 1.52-5.91 4.35 4.35 0 0 0-3.71-2.11zm34.81-4.33a4.32 4.32 0 1 0 3 5.31 4.3 4.3 0 0 0-3-5.31zm2.85-10.43a4.32 4.32 0 1 0 3 5.31 4.34 4.34 0 0 0-3-5.31zm8.89 15.36a4.32 4.32 0 1 0 2 2.64 4.3 4.3 0 0 0-2-2.64zm7.49-6.67a4.32 4.32 0 0 0-4.18-3.24A4.34 4.34 0 0 0 56 24.31a4.32 4.32 0 0 0 3.71 6.52 4.34 4.34 0 0 0 3.72-2.12 4.28 4.28 0 0 0 .43-3.27zm-46.2-.21a4.32 4.32 0 0 0 0-8.64 4.27 4.27 0 0 0-1.14.16 4.32 4.32 0 0 0 1.12 8.48z" fill="#e2001a"/></svg><svg viewBox="-12.8 -12.8 89.6 89.6" width="70" height="70" id="crown--white" x="420" y="420" xmlns="http://www.w3.org/2000/svg"><title>crown</title><path d="M12.68 46.08a1.88 1.88 0 0 1-1.13-3.39c5-3.74 12.65-6 20.47-6 7.79 0 15.42 2.24 20.42 6a1.88 1.88 0 0 1-2.26 3c-3.38-2.53-9.92-5.22-18.16-5.22-8.28 0-14.84 2.7-18.21 5.22a1.86 1.86 0 0 1-1.13.39zm1.72 3.22a1.29 1.29 0 0 0 .82-.29C19 45.87 25.48 43.92 32 43.92s12.9 1.9 16.78 5.08a1.29 1.29 0 1 0 1.63-2c-4.32-3.55-11.2-5.67-18.39-5.67S17.91 43.46 13.59 47a1.29 1.29 0 0 0 .82 2.28zM4.31 22.19a4.32 4.32 0 0 0 0 8.64A4.32 4.32 0 0 0 8 24.31a4.34 4.34 0 0 0-3.69-2.12zM32 25.51a4.32 4.32 0 1 0 4.32 4.32A4.33 4.33 0 0 0 32 25.51zm0-10.81a4.32 4.32 0 1 0 4.32 4.3A4.33 4.33 0 0 0 32 14.7zM20.51 27a4.41 4.41 0 0 0-1.14.15 4.32 4.32 0 0 0 1.12 8.49h.1a4.36 4.36 0 0 0 1.06-.15A4.32 4.32 0 0 0 20.51 27zM9.82 31.5A4.32 4.32 0 0 0 6.11 38a4.37 4.37 0 0 0 3.7 2.12 4.34 4.34 0 0 0 2.2-.6 4.32 4.32 0 0 0 1.52-5.91 4.35 4.35 0 0 0-3.71-2.11zm34.81-4.33a4.32 4.32 0 1 0 3 5.31 4.3 4.3 0 0 0-3-5.31zm2.85-10.43a4.32 4.32 0 1 0 3 5.31 4.34 4.34 0 0 0-3-5.31zm8.89 15.36a4.32 4.32 0 1 0 2 2.64 4.3 4.3 0 0 0-2-2.64zm7.49-6.67a4.32 4.32 0 0 0-4.18-3.24A4.34 4.34 0 0 0 56 24.31a4.32 4.32 0 0 0 3.71 6.52 4.34 4.34 0 0 0 3.72-2.12 4.28 4.28 0 0 0 .43-3.27zm-46.2-.21a4.32 4.32 0 0 0 0-8.64 4.27 4.27 0 0 0-1.14.16 4.32 4.32 0 0 0 1.12 8.48z" fill="#fff"/></svg><svg viewBox="-12.8 -12.8 89.6 89.6" width="70" height="70" id="facebook--black" x="490" xmlns="http://www.w3.org/2000/svg"><title>facebook</title><path d="M34.1 62.75H4.64a3.39 3.39 0 0 1-3.39-3.39V4.64a3.39 3.39 0 0 1 3.39-3.39h54.72a3.39 3.39 0 0 1 3.39 3.39v54.72a3.39 3.39 0 0 1-3.39 3.39H43.68V38.93h8l1.2-9.28h-9.2v-5.92c0-2.69.75-4.52 4.6-4.52h4.92V10.9a65.7 65.7 0 0 0-7.2-.36c-7 0-11.9 4.32-11.9 12.27v6.84h-8v9.28h8v23.82z"/></svg><svg viewBox="-12.8 -12.8 89.6 89.6" width="70" height="70" id="facebook--red" x="490" y="70" xmlns="http://www.w3.org/2000/svg"><title>facebook</title><path d="M34.1 62.75H4.64a3.39 3.39 0 0 1-3.39-3.39V4.64a3.39 3.39 0 0 1 3.39-3.39h54.72a3.39 3.39 0 0 1 3.39 3.39v54.72a3.39 3.39 0 0 1-3.39 3.39H43.68V38.93h8l1.2-9.28h-9.2v-5.92c0-2.69.75-4.52 4.6-4.52h4.92V10.9a65.7 65.7 0 0 0-7.2-.36c-7 0-11.9 4.32-11.9 12.27v6.84h-8v9.28h8v23.82z" fill="#e2001a"/></svg><svg viewBox="-12.8 -12.8 89.6 89.6" width="70" height="70" id="facebook--white" x="490" y="140" xmlns="http://www.w3.org/2000/svg"><title>facebook</title><path d="M34.1 62.75H4.64a3.39 3.39 0 0 1-3.39-3.39V4.64a3.39 3.39 0 0 1 3.39-3.39h54.72a3.39 3.39 0 0 1 3.39 3.39v54.72a3.39 3.39 0 0 1-3.39 3.39H43.68V38.93h8l1.2-9.28h-9.2v-5.92c0-2.69.75-4.52 4.6-4.52h4.92V10.9a65.7 65.7 0 0 0-7.2-.36c-7 0-11.9 4.32-11.9 12.27v6.84h-8v9.28h8v23.82z" fill="#fff"/></svg><svg viewBox="-12.8 -12.8 89.6 89.6" width="70" height="70" id="female--black" x="490" y="210" xmlns="http://www.w3.org/2000/svg"><title>female</title><path d="M59 7.91a3.67 3.67 0 0 0-.19-.64 3.69 3.69 0 0 0-.32-.6 3.72 3.72 0 0 0-1-1 3.69 3.69 0 0 0-.6-.32 3.66 3.66 0 0 0-.76-.35 3.71 3.71 0 0 0-.68-.07H39.82a3.7 3.7 0 1 0 0 7.4h6.66l-9.8 9.8a20.3 20.3 0 1 0 5.23 5.23l9.8-9.8v6.66a3.7 3.7 0 1 0 7.4 0V8.59a3.71 3.71 0 0 0-.11-.68zm-24.75 40a12.89 12.89 0 1 1 0-18.23 12.81 12.81 0 0 1 .05 18.25z"/></svg><svg viewBox="-12.8 -12.8 89.6 89.6" width="70" height="70" id="female--red" x="490" y="280" xmlns="http://www.w3.org/2000/svg"><title>female</title><path d="M59 7.91a3.67 3.67 0 0 0-.19-.64 3.69 3.69 0 0 0-.32-.6 3.72 3.72 0 0 0-1-1 3.69 3.69 0 0 0-.6-.32 3.66 3.66 0 0 0-.76-.35 3.71 3.71 0 0 0-.68-.07H39.82a3.7 3.7 0 1 0 0 7.4h6.66l-9.8 9.8a20.3 20.3 0 1 0 5.23 5.23l9.8-9.8v6.66a3.7 3.7 0 1 0 7.4 0V8.59a3.71 3.71 0 0 0-.11-.68zm-24.75 40a12.89 12.89 0 1 1 0-18.23 12.81 12.81 0 0 1 .05 18.25z" fill="#e2001a"/></svg><svg viewBox="-12.8 -12.8 89.6 89.6" width="70" height="70" id="female--white" x="490" y="350" xmlns="http://www.w3.org/2000/svg"><title>female</title><path d="M59 7.91a3.67 3.67 0 0 0-.19-.64 3.69 3.69 0 0 0-.32-.6 3.72 3.72 0 0 0-1-1 3.69 3.69 0 0 0-.6-.32 3.66 3.66 0 0 0-.76-.35 3.71 3.71 0 0 0-.68-.07H39.82a3.7 3.7 0 1 0 0 7.4h6.66l-9.8 9.8a20.3 20.3 0 1 0 5.23 5.23l9.8-9.8v6.66a3.7 3.7 0 1 0 7.4 0V8.59a3.71 3.71 0 0 0-.11-.68zm-24.75 40a12.89 12.89 0 1 1 0-18.23 12.81 12.81 0 0 1 .05 18.25z" fill="#fff"/></svg><svg viewBox="-12.8 -12.8 89.6 89.6" width="70" height="70" id="groomer--black" x="490" y="420" xmlns="http://www.w3.org/2000/svg"><title>groomer</title><path d="M58.72 19.56L27.24 61C24 65.28 16.19 65 10 60.23a16.27 16.27 0 0 1-6.18-12.94l14.26 10.84 1.42-1.87L21.22 54l-11.9-9a2.77 2.77 0 0 1-.78-3.83 2.77 2.77 0 0 1 3.9-.28l11.9 9 3.4-4.48L16 36.47a2.77 2.77 0 0 1-.78-3.83 2.77 2.77 0 0 1 3.9-.28l11.78 9 3.4-4.48L22.6 28a2.77 2.77 0 0 1-.78-3.83 2.77 2.77 0 0 1 3.9-.28l11.67 8.87 3.4-4.48-11.55-8.8a2.77 2.77 0 0 1-.78-3.83 2.77 2.77 0 0 1 3.9-.28l11.55 8.78 3.4-4.48L35.88 11a2.77 2.77 0 0 1-.78-3.83 2.77 2.77 0 0 1 3.9-.29l11.44 8.7 3.11-4.08L39.27.65a16.27 16.27 0 0 1 14.12 2.47C59.6 7.85 62 15.24 58.72 19.56z"/></svg><svg viewBox="-12.8 -12.8 89.6 89.6" width="70" height="70" id="groomer--red" y="490" xmlns="http://www.w3.org/2000/svg"><title>groomer</title><path d="M58.72 19.56L27.24 61C24 65.28 16.19 65 10 60.23a16.27 16.27 0 0 1-6.18-12.94l14.26 10.84 1.42-1.87L21.22 54l-11.9-9a2.77 2.77 0 0 1-.78-3.83 2.77 2.77 0 0 1 3.9-.28l11.9 9 3.4-4.48L16 36.47a2.77 2.77 0 0 1-.78-3.83 2.77 2.77 0 0 1 3.9-.28l11.78 9 3.4-4.48L22.6 28a2.77 2.77 0 0 1-.78-3.83 2.77 2.77 0 0 1 3.9-.28l11.67 8.87 3.4-4.48-11.55-8.8a2.77 2.77 0 0 1-.78-3.83 2.77 2.77 0 0 1 3.9-.28l11.55 8.78 3.4-4.48L35.88 11a2.77 2.77 0 0 1-.78-3.83 2.77 2.77 0 0 1 3.9-.29l11.44 8.7 3.11-4.08L39.27.65a16.27 16.27 0 0 1 14.12 2.47C59.6 7.85 62 15.24 58.72 19.56z" fill="#e2001a"/></svg><svg viewBox="-12.8 -12.8 89.6 89.6" width="70" height="70" id="groomer--white" x="70" y="490" xmlns="http://www.w3.org/2000/svg"><title>groomer</title><path d="M58.72 19.56L27.24 61C24 65.28 16.19 65 10 60.23a16.27 16.27 0 0 1-6.18-12.94l14.26 10.84 1.42-1.87L21.22 54l-11.9-9a2.77 2.77 0 0 1-.78-3.83 2.77 2.77 0 0 1 3.9-.28l11.9 9 3.4-4.48L16 36.47a2.77 2.77 0 0 1-.78-3.83 2.77 2.77 0 0 1 3.9-.28l11.78 9 3.4-4.48L22.6 28a2.77 2.77 0 0 1-.78-3.83 2.77 2.77 0 0 1 3.9-.28l11.67 8.87 3.4-4.48-11.55-8.8a2.77 2.77 0 0 1-.78-3.83 2.77 2.77 0 0 1 3.9-.28l11.55 8.78 3.4-4.48L35.88 11a2.77 2.77 0 0 1-.78-3.83 2.77 2.77 0 0 1 3.9-.29l11.44 8.7 3.11-4.08L39.27.65a16.27 16.27 0 0 1 14.12 2.47C59.6 7.85 62 15.24 58.72 19.56z" fill="#fff"/></svg><svg viewBox="-12.8 -12.8 89.6 89.6" width="70" height="70" id="heart--black" x="140" y="490" xmlns="http://www.w3.org/2000/svg"><title>heart</title><path d="M45.16 7.11A11.85 11.85 0 0 1 57 18.95v.22c0 .21.34 20.71-25 36.58C7.39 40.33 7 20.54 7 19.15v-.2a11.83 11.83 0 0 1 20.1-8.46l4.9 4.77 4.89-4.78a11.77 11.77 0 0 1 8.26-3.37m0-7A18.77 18.77 0 0 0 32 5.47 18.83 18.83 0 0 0 0 18.95s-.83 26.56 32 44.92c32.83-18.36 32-44.92 32-44.92A18.84 18.84 0 0 0 45.16.1"/></svg><svg viewBox="-12.8 -12.8 89.6 89.6" width="70" height="70" id="heart--red" x="210" y="490" xmlns="http://www.w3.org/2000/svg"><title>heart</title><path d="M45.16 7.11A11.85 11.85 0 0 1 57 18.95v.22c0 .21.34 20.71-25 36.58C7.39 40.33 7 20.54 7 19.15v-.2a11.83 11.83 0 0 1 20.1-8.46l4.9 4.77 4.89-4.78a11.77 11.77 0 0 1 8.26-3.37m0-7A18.77 18.77 0 0 0 32 5.47 18.83 18.83 0 0 0 0 18.95s-.83 26.56 32 44.92c32.83-18.36 32-44.92 32-44.92A18.84 18.84 0 0 0 45.16.1" fill="#e2001a"/></svg><svg viewBox="-12.8 -12.8 89.6 89.6" width="70" height="70" id="heart--white" x="280" y="490" xmlns="http://www.w3.org/2000/svg"><title>heart</title><path d="M45.16 7.11A11.85 11.85 0 0 1 57 18.95v.22c0 .21.34 20.71-25 36.58C7.39 40.33 7 20.54 7 19.15v-.2a11.83 11.83 0 0 1 20.1-8.46l4.9 4.77 4.89-4.78a11.77 11.77 0 0 1 8.26-3.37m0-7A18.77 18.77 0 0 0 32 5.47 18.83 18.83 0 0 0 0 18.95s-.83 26.56 32 44.92c32.83-18.36 32-44.92 32-44.92A18.84 18.84 0 0 0 45.16.1" fill="#fff"/></svg><svg viewBox="-12.8 -12.8 89.6 89.6" width="70" height="70" id="instagram--black" x="350" y="490" xmlns="http://www.w3.org/2000/svg"><title>instagram</title><path d="M32 0c-8.69 0-9.78 0-13.19.19A23.48 23.48 0 0 0 11 1.68a15.69 15.69 0 0 0-5.63 3.69A15.69 15.69 0 0 0 1.68 11a23.48 23.48 0 0 0-1.49 7.81C0 22.22 0 23.31 0 32s0 9.78.19 13.19A23.48 23.48 0 0 0 1.68 53a15.69 15.69 0 0 0 3.69 5.67A15.69 15.69 0 0 0 11 62.32a23.49 23.49 0 0 0 7.77 1.49C22.22 64 23.31 64 32 64s9.78 0 13.19-.19A23.49 23.49 0 0 0 53 62.32 16.36 16.36 0 0 0 62.32 53a23.49 23.49 0 0 0 1.49-7.77C64 41.78 64 40.69 64 32s0-9.78-.19-13.19A23.49 23.49 0 0 0 62.32 11a15.69 15.69 0 0 0-3.69-5.67A15.68 15.68 0 0 0 53 1.68 23.48 23.48 0 0 0 45.19.19C41.78 0 40.69 0 32 0zm0 5.77c8.54 0 9.56 0 12.93.19a17.7 17.7 0 0 1 5.94 1.1 9.91 9.91 0 0 1 3.68 2.39 9.91 9.91 0 0 1 2.39 3.68A17.7 17.7 0 0 1 58 19.07c.15 3.37.19 4.39.19 12.93s0 9.56-.19 12.93a17.7 17.7 0 0 1-1.1 5.94 10.6 10.6 0 0 1-6.07 6.07 17.7 17.7 0 0 1-5.9 1.06c-3.37.15-4.39.19-12.93.19s-9.56 0-12.93-.19a17.7 17.7 0 0 1-5.94-1.1 9.91 9.91 0 0 1-3.68-2.39 9.91 9.91 0 0 1-2.39-3.68A17.7 17.7 0 0 1 6 44.93c-.2-3.37-.23-4.39-.23-12.93s0-9.56.19-12.93a17.7 17.7 0 0 1 1.1-5.94 9.91 9.91 0 0 1 2.39-3.68 9.91 9.91 0 0 1 3.68-2.39A17.7 17.7 0 0 1 19.07 6c3.37-.2 4.39-.23 12.93-.23zm0 9.8A16.43 16.43 0 1 0 48.43 32 16.43 16.43 0 0 0 32 15.57zm0 27.1A10.67 10.67 0 1 1 42.67 32 10.67 10.67 0 0 1 32 42.67zm20.92-27.75a3.84 3.84 0 1 1-3.84-3.84 3.84 3.84 0 0 1 3.84 3.84z" data-name="Play"/></svg><svg viewBox="-12.8 -12.8 89.6 89.6" width="70" height="70" id="instagram--red" x="420" y="490" xmlns="http://www.w3.org/2000/svg"><title>instagram</title><path d="M32 0c-8.69 0-9.78 0-13.19.19A23.48 23.48 0 0 0 11 1.68a15.69 15.69 0 0 0-5.63 3.69A15.69 15.69 0 0 0 1.68 11a23.48 23.48 0 0 0-1.49 7.81C0 22.22 0 23.31 0 32s0 9.78.19 13.19A23.48 23.48 0 0 0 1.68 53a15.69 15.69 0 0 0 3.69 5.67A15.69 15.69 0 0 0 11 62.32a23.49 23.49 0 0 0 7.77 1.49C22.22 64 23.31 64 32 64s9.78 0 13.19-.19A23.49 23.49 0 0 0 53 62.32 16.36 16.36 0 0 0 62.32 53a23.49 23.49 0 0 0 1.49-7.77C64 41.78 64 40.69 64 32s0-9.78-.19-13.19A23.49 23.49 0 0 0 62.32 11a15.69 15.69 0 0 0-3.69-5.67A15.68 15.68 0 0 0 53 1.68 23.48 23.48 0 0 0 45.19.19C41.78 0 40.69 0 32 0zm0 5.77c8.54 0 9.56 0 12.93.19a17.7 17.7 0 0 1 5.94 1.1 9.91 9.91 0 0 1 3.68 2.39 9.91 9.91 0 0 1 2.39 3.68A17.7 17.7 0 0 1 58 19.07c.15 3.37.19 4.39.19 12.93s0 9.56-.19 12.93a17.7 17.7 0 0 1-1.1 5.94 10.6 10.6 0 0 1-6.07 6.07 17.7 17.7 0 0 1-5.9 1.06c-3.37.15-4.39.19-12.93.19s-9.56 0-12.93-.19a17.7 17.7 0 0 1-5.94-1.1 9.91 9.91 0 0 1-3.68-2.39 9.91 9.91 0 0 1-2.39-3.68A17.7 17.7 0 0 1 6 44.93c-.2-3.37-.23-4.39-.23-12.93s0-9.56.19-12.93a17.7 17.7 0 0 1 1.1-5.94 9.91 9.91 0 0 1 2.39-3.68 9.91 9.91 0 0 1 3.68-2.39A17.7 17.7 0 0 1 19.07 6c3.37-.2 4.39-.23 12.93-.23zm0 9.8A16.43 16.43 0 1 0 48.43 32 16.43 16.43 0 0 0 32 15.57zm0 27.1A10.67 10.67 0 1 1 42.67 32 10.67 10.67 0 0 1 32 42.67zm20.92-27.75a3.84 3.84 0 1 1-3.84-3.84 3.84 3.84 0 0 1 3.84 3.84z" fill="#e2001a" data-name="Play"/></svg><svg viewBox="-12.8 -12.8 89.6 89.6" width="70" height="70" id="instagram--white" x="490" y="490" xmlns="http://www.w3.org/2000/svg"><title>instagram</title><path d="M32 0c-8.69 0-9.78 0-13.19.19A23.48 23.48 0 0 0 11 1.68a15.69 15.69 0 0 0-5.63 3.69A15.69 15.69 0 0 0 1.68 11a23.48 23.48 0 0 0-1.49 7.81C0 22.22 0 23.31 0 32s0 9.78.19 13.19A23.48 23.48 0 0 0 1.68 53a15.69 15.69 0 0 0 3.69 5.67A15.69 15.69 0 0 0 11 62.32a23.49 23.49 0 0 0 7.77 1.49C22.22 64 23.31 64 32 64s9.78 0 13.19-.19A23.49 23.49 0 0 0 53 62.32 16.36 16.36 0 0 0 62.32 53a23.49 23.49 0 0 0 1.49-7.77C64 41.78 64 40.69 64 32s0-9.78-.19-13.19A23.49 23.49 0 0 0 62.32 11a15.69 15.69 0 0 0-3.69-5.67A15.68 15.68 0 0 0 53 1.68 23.48 23.48 0 0 0 45.19.19C41.78 0 40.69 0 32 0zm0 5.77c8.54 0 9.56 0 12.93.19a17.7 17.7 0 0 1 5.94 1.1 9.91 9.91 0 0 1 3.68 2.39 9.91 9.91 0 0 1 2.39 3.68A17.7 17.7 0 0 1 58 19.07c.15 3.37.19 4.39.19 12.93s0 9.56-.19 12.93a17.7 17.7 0 0 1-1.1 5.94 10.6 10.6 0 0 1-6.07 6.07 17.7 17.7 0 0 1-5.9 1.06c-3.37.15-4.39.19-12.93.19s-9.56 0-12.93-.19a17.7 17.7 0 0 1-5.94-1.1 9.91 9.91 0 0 1-3.68-2.39 9.91 9.91 0 0 1-2.39-3.68A17.7 17.7 0 0 1 6 44.93c-.2-3.37-.23-4.39-.23-12.93s0-9.56.19-12.93a17.7 17.7 0 0 1 1.1-5.94 9.91 9.91 0 0 1 2.39-3.68 9.91 9.91 0 0 1 3.68-2.39A17.7 17.7 0 0 1 19.07 6c3.37-.2 4.39-.23 12.93-.23zm0 9.8A16.43 16.43 0 1 0 48.43 32 16.43 16.43 0 0 0 32 15.57zm0 27.1A10.67 10.67 0 1 1 42.67 32 10.67 10.67 0 0 1 32 42.67zm20.92-27.75a3.84 3.84 0 1 1-3.84-3.84 3.84 3.84 0 0 1 3.84 3.84z" fill="#fff" data-name="Play"/></svg><svg viewBox="-12.8 -12.8 89.6 89.6" width="70" height="70" id="loader--black" x="560" xmlns="http://www.w3.org/2000/svg"><title>loader</title><path d="M9.31 50a3.2 3.2 0 0 1 4.53 0A25.6 25.6 0 1 0 6.4 32 3.2 3.2 0 0 1 0 32a32 32 0 1 1 9.3 22.56A3.2 3.2 0 0 1 9.31 50z"/></svg><svg viewBox="-12.8 -12.8 89.6 89.6" width="70" height="70" id="loader--red" x="560" y="70" xmlns="http://www.w3.org/2000/svg"><title>loader</title><path d="M9.31 50a3.2 3.2 0 0 1 4.53 0A25.6 25.6 0 1 0 6.4 32 3.2 3.2 0 0 1 0 32a32 32 0 1 1 9.3 22.56A3.2 3.2 0 0 1 9.31 50z" fill="#e2001a"/></svg><svg viewBox="-12.8 -12.8 89.6 89.6" width="70" height="70" id="loader--white" x="560" y="140" xmlns="http://www.w3.org/2000/svg"><title>loader</title><path d="M9.31 50a3.2 3.2 0 0 1 4.53 0A25.6 25.6 0 1 0 6.4 32 3.2 3.2 0 0 1 0 32a32 32 0 1 1 9.3 22.56A3.2 3.2 0 0 1 9.31 50z" fill="#fff"/></svg><svg viewBox="-12.8 -12.8 89.6 89.6" width="70" height="70" id="location--black" x="560" y="210" xmlns="http://www.w3.org/2000/svg"><title>location</title><path d="M32 29.18a8 8 0 1 1 8-8 8 8 0 0 1-8 8m12.11 32.24C44.11 62.84 38.69 64 32 64s-12.11-1.16-12.11-2.58c0-1.22 4-2.24 9.33-2.51C23.3 53.23 10 38.62 10 22a22 22 0 1 1 44 0c0 16.62-13.3 31.23-19.22 36.9 5.34.27 9.33 1.29 9.33 2.51M32 53.22c5.76-5.82 16-18 16-31.17A16 16 0 1 0 16 22c0 13.12 10.28 25.34 16 31.17"/></svg><svg viewBox="-12.8 -12.8 89.6 89.6" width="70" height="70" id="location--red" xmlns="http://www.w3.org/2000/svg"><title>location</title><path d="M32 29.18a8 8 0 1 1 8-8 8 8 0 0 1-8 8m12.11 32.24C44.11 62.84 38.69 64 32 64s-12.11-1.16-12.11-2.58c0-1.22 4-2.24 9.33-2.51C23.3 53.23 10 38.62 10 22a22 22 0 1 1 44 0c0 16.62-13.3 31.23-19.22 36.9 5.34.27 9.33 1.29 9.33 2.51M32 53.22c5.76-5.82 16-18 16-31.17A16 16 0 1 0 16 22c0 13.12 10.28 25.34 16 31.17" fill="#e2001a"/></svg><svg viewBox="-12.8 -12.8 89.6 89.6" width="70" height="70" id="location--white" x="560" y="350" xmlns="http://www.w3.org/2000/svg"><title>location</title><path d="M32 29.18a8 8 0 1 1 8-8 8 8 0 0 1-8 8m12.11 32.24C44.11 62.84 38.69 64 32 64s-12.11-1.16-12.11-2.58c0-1.22 4-2.24 9.33-2.51C23.3 53.23 10 38.62 10 22a22 22 0 1 1 44 0c0 16.62-13.3 31.23-19.22 36.9 5.34.27 9.33 1.29 9.33 2.51M32 53.22c5.76-5.82 16-18 16-31.17A16 16 0 1 0 16 22c0 13.12 10.28 25.34 16 31.17" fill="#fff"/></svg><svg viewBox="-12.8 -12.8 89.6 89.6" width="70" height="70" id="macbook--black" x="560" y="420" xmlns="http://www.w3.org/2000/svg"><title>macbook</title><path d="M60 48.29V16a4.94 4.94 0 0 0-4.94-4.94H8.92A4.94 4.94 0 0 0 4 16v32.29H0V50a2.88 2.88 0 0 0 2.88 2.9h58.24A2.88 2.88 0 0 0 64 50v-1.71zM32 13.11a1 1 0 1 1-1 1 1 1 0 0 1 1-1zM10 46.34h44V17.1H10z"/></svg><svg viewBox="-12.8 -12.8 89.6 89.6" width="70" height="70" id="macbook--red" x="560" y="490" xmlns="http://www.w3.org/2000/svg"><title>macbook</title><path d="M60 48.29V16a4.94 4.94 0 0 0-4.94-4.94H8.92A4.94 4.94 0 0 0 4 16v32.29H0V50a2.88 2.88 0 0 0 2.88 2.9h58.24A2.88 2.88 0 0 0 64 50v-1.71zM32 13.11a1 1 0 1 1-1 1 1 1 0 0 1 1-1zM10 46.34h44V17.1H10z" fill="#e2001a"/></svg><svg viewBox="-12.8 -12.8 89.6 89.6" width="70" height="70" id="macbook--white" y="560" xmlns="http://www.w3.org/2000/svg"><title>macbook</title><path d="M60 48.29V16a4.94 4.94 0 0 0-4.94-4.94H8.92A4.94 4.94 0 0 0 4 16v32.29H0V50a2.88 2.88 0 0 0 2.88 2.9h58.24A2.88 2.88 0 0 0 64 50v-1.71zM32 13.11a1 1 0 1 1-1 1 1 1 0 0 1 1-1zM10 46.34h44V17.1H10z" fill="#fff"/></svg><svg viewBox="-12.8 -12.8 89.6 89.6" width="70" height="70" id="mail--black" x="70" y="560" xmlns="http://www.w3.org/2000/svg"><title>mail</title><path d="M61.5 8h-59A2.5 2.5 0 0 0 0 10.5v43A2.5 2.5 0 0 0 2.5 56h59a2.5 2.5 0 0 0 2.5-2.5v-43A2.5 2.5 0 0 0 61.5 8zm-8.76 6L39.05 27.69l-3.51 3.51a5.06 5.06 0 0 1-7.09 0l-3.51-3.51L11.26 14zM6 17.23L20.67 31.9 6 46.57zM11.05 50l13.9-13.89a11 11 0 0 0 14.1 0L52.94 50zM58 46.57L43.33 31.9 58 17.23z"/></svg><svg viewBox="-12.8 -12.8 89.6 89.6" width="70" height="70" id="mail--red" x="140" y="560" xmlns="http://www.w3.org/2000/svg"><title>mail</title><path d="M61.5 8h-59A2.5 2.5 0 0 0 0 10.5v43A2.5 2.5 0 0 0 2.5 56h59a2.5 2.5 0 0 0 2.5-2.5v-43A2.5 2.5 0 0 0 61.5 8zm-8.76 6L39.05 27.69l-3.51 3.51a5.06 5.06 0 0 1-7.09 0l-3.51-3.51L11.26 14zM6 17.23L20.67 31.9 6 46.57zM11.05 50l13.9-13.89a11 11 0 0 0 14.1 0L52.94 50zM58 46.57L43.33 31.9 58 17.23z" fill="#e2001a"/></svg><svg viewBox="-12.8 -12.8 89.6 89.6" width="70" height="70" id="mail--white" x="210" y="560" xmlns="http://www.w3.org/2000/svg"><title>mail</title><path d="M61.5 8h-59A2.5 2.5 0 0 0 0 10.5v43A2.5 2.5 0 0 0 2.5 56h59a2.5 2.5 0 0 0 2.5-2.5v-43A2.5 2.5 0 0 0 61.5 8zm-8.76 6L39.05 27.69l-3.51 3.51a5.06 5.06 0 0 1-7.09 0l-3.51-3.51L11.26 14zM6 17.23L20.67 31.9 6 46.57zM11.05 50l13.9-13.89a11 11 0 0 0 14.1 0L52.94 50zM58 46.57L43.33 31.9 58 17.23z" fill="#fff"/></svg><svg viewBox="-12.8 -12.8 89.6 89.6" width="70" height="70" id="male--black" x="280" y="560" xmlns="http://www.w3.org/2000/svg"><title>male</title><path d="M52.31 20.31a20.31 20.31 0 1 0-24 20v6.39h-7a3.7 3.7 0 0 0 0 7.41h7v6.19a3.7 3.7 0 1 0 7.41 0v-6.23h7a3.7 3.7 0 0 0 0-7.41h-7v-6.39a20.31 20.31 0 0 0 16.59-19.96zm-33.21 0A12.9 12.9 0 0 1 32 7.41a12.9 12.9 0 1 1-12.9 12.9z"/></svg><svg viewBox="-12.8 -12.8 89.6 89.6" width="70" height="70" id="male--red" x="350" y="560" xmlns="http://www.w3.org/2000/svg"><title>male</title><path d="M52.31 20.31a20.31 20.31 0 1 0-24 20v6.39h-7a3.7 3.7 0 0 0 0 7.41h7v6.19a3.7 3.7 0 1 0 7.41 0v-6.23h7a3.7 3.7 0 0 0 0-7.41h-7v-6.39a20.31 20.31 0 0 0 16.59-19.96zm-33.21 0A12.9 12.9 0 0 1 32 7.41a12.9 12.9 0 1 1-12.9 12.9z" fill="#e2001a"/></svg><svg viewBox="-12.8 -12.8 89.6 89.6" width="70" height="70" id="male--white" x="420" y="560" xmlns="http://www.w3.org/2000/svg"><title>male</title><path d="M52.31 20.31a20.31 20.31 0 1 0-24 20v6.39h-7a3.7 3.7 0 0 0 0 7.41h7v6.19a3.7 3.7 0 1 0 7.41 0v-6.23h7a3.7 3.7 0 0 0 0-7.41h-7v-6.39a20.31 20.31 0 0 0 16.59-19.96zm-33.21 0A12.9 12.9 0 0 1 32 7.41a12.9 12.9 0 1 1-12.9 12.9z" fill="#fff"/></svg><svg viewBox="-12.8 -12.8 89.6 89.6" width="70" height="70" id="partner--black" x="490" y="560" xmlns="http://www.w3.org/2000/svg"><title>partner</title><path d="M52.62 20a4.84 4.84 0 0 0-2-8.23A4.84 4.84 0 0 0 44 6.44 4.84 4.84 0 0 0 36.78 2a4.85 4.85 0 0 0-8.41 1 4.84 4.84 0 0 0-8.23 2 4.84 4.84 0 0 0-5.29 6.61 4.84 4.84 0 0 0-4.4 7.23 4.84 4.84 0 0 0 .93 8.41 4.84 4.84 0 0 0 2 8.23A4.84 4.84 0 0 0 20 40.74a4.78 4.78 0 0 0 3.83 4.92v18.11a.23.23 0 0 0 .42.12l7.57-12.25a.23.23 0 0 1 .38 0l7.57 12.25a.23.23 0 0 0 .42-.12V45.66a4.82 4.82 0 0 0 3.68-3.45 4.84 4.84 0 0 0 5.29-6.61 4.84 4.84 0 0 0 4.4-7.23 4.84 4.84 0 0 0-.94-8.37zM32 42.39a18.8 18.8 0 1 1 18.8-18.8A18.8 18.8 0 0 1 32 42.39zm15.44-18.8A15.44 15.44 0 1 1 32 8.14a15.44 15.44 0 0 1 15.44 15.45z"/></svg><svg viewBox="-12.8 -12.8 89.6 89.6" width="70" height="70" id="partner--red" x="560" y="560" xmlns="http://www.w3.org/2000/svg"><title>partner</title><path d="M52.62 20a4.84 4.84 0 0 0-2-8.23A4.84 4.84 0 0 0 44 6.44 4.84 4.84 0 0 0 36.78 2a4.85 4.85 0 0 0-8.41 1 4.84 4.84 0 0 0-8.23 2 4.84 4.84 0 0 0-5.29 6.61 4.84 4.84 0 0 0-4.4 7.23 4.84 4.84 0 0 0 .93 8.41 4.84 4.84 0 0 0 2 8.23A4.84 4.84 0 0 0 20 40.74a4.78 4.78 0 0 0 3.83 4.92v18.11a.23.23 0 0 0 .42.12l7.57-12.25a.23.23 0 0 1 .38 0l7.57 12.25a.23.23 0 0 0 .42-.12V45.66a4.82 4.82 0 0 0 3.68-3.45 4.84 4.84 0 0 0 5.29-6.61 4.84 4.84 0 0 0 4.4-7.23 4.84 4.84 0 0 0-.94-8.37zM32 42.39a18.8 18.8 0 1 1 18.8-18.8A18.8 18.8 0 0 1 32 42.39zm15.44-18.8A15.44 15.44 0 1 1 32 8.14a15.44 15.44 0 0 1 15.44 15.45z" fill="#e2001a"/></svg><svg viewBox="-12.8 -12.8 89.6 89.6" width="70" height="70" id="partner--white" x="630" xmlns="http://www.w3.org/2000/svg"><title>partner</title><path d="M52.62 20a4.84 4.84 0 0 0-2-8.23A4.84 4.84 0 0 0 44 6.44 4.84 4.84 0 0 0 36.78 2a4.85 4.85 0 0 0-8.41 1 4.84 4.84 0 0 0-8.23 2 4.84 4.84 0 0 0-5.29 6.61 4.84 4.84 0 0 0-4.4 7.23 4.84 4.84 0 0 0 .93 8.41 4.84 4.84 0 0 0 2 8.23A4.84 4.84 0 0 0 20 40.74a4.78 4.78 0 0 0 3.83 4.92v18.11a.23.23 0 0 0 .42.12l7.57-12.25a.23.23 0 0 1 .38 0l7.57 12.25a.23.23 0 0 0 .42-.12V45.66a4.82 4.82 0 0 0 3.68-3.45 4.84 4.84 0 0 0 5.29-6.61 4.84 4.84 0 0 0 4.4-7.23 4.84 4.84 0 0 0-.94-8.37zM32 42.39a18.8 18.8 0 1 1 18.8-18.8A18.8 18.8 0 0 1 32 42.39zm15.44-18.8A15.44 15.44 0 1 1 32 8.14a15.44 15.44 0 0 1 15.44 15.45z" fill="#fff"/></svg><svg viewBox="-12.8 -12.8 89.6 89.6" width="70" height="70" id="pharmacy--black" x="630" y="70" xmlns="http://www.w3.org/2000/svg"><title>pharmacy</title><path d="M64 26.39v11.22a3.19 3.19 0 0 1-3.19 3.19h-20v20a3.19 3.19 0 0 1-3.2 3.2H26.39a3.19 3.19 0 0 1-3.19-3.19v-20h-20a3.19 3.19 0 0 1-3.2-3.2V26.39a3.19 3.19 0 0 1 3.19-3.19h20v-20a3.19 3.19 0 0 1 3.2-3.2h11.22a3.19 3.19 0 0 1 3.19 3.19v20h20a3.19 3.19 0 0 1 3.2 3.2z"/></svg><svg viewBox="-12.8 -12.8 89.6 89.6" width="70" height="70" id="pharmacy--red" x="630" y="140" xmlns="http://www.w3.org/2000/svg"><title>pharmacy</title><path d="M64 26.39v11.22a3.19 3.19 0 0 1-3.19 3.19h-20v20a3.19 3.19 0 0 1-3.2 3.2H26.39a3.19 3.19 0 0 1-3.19-3.19v-20h-20a3.19 3.19 0 0 1-3.2-3.2V26.39a3.19 3.19 0 0 1 3.19-3.19h20v-20a3.19 3.19 0 0 1 3.2-3.2h11.22a3.19 3.19 0 0 1 3.19 3.19v20h20a3.19 3.19 0 0 1 3.2 3.2z" fill="#e2001a"/></svg><svg viewBox="-12.8 -12.8 89.6 89.6" width="70" height="70" id="pharmacy--white" x="630" y="210" xmlns="http://www.w3.org/2000/svg"><title>pharmacy</title><path d="M64 26.39v11.22a3.19 3.19 0 0 1-3.19 3.19h-20v20a3.19 3.19 0 0 1-3.2 3.2H26.39a3.19 3.19 0 0 1-3.19-3.19v-20h-20a3.19 3.19 0 0 1-3.2-3.2V26.39a3.19 3.19 0 0 1 3.19-3.19h20v-20a3.19 3.19 0 0 1 3.2-3.2h11.22a3.19 3.19 0 0 1 3.19 3.19v20h20a3.19 3.19 0 0 1 3.2 3.2z" fill="#fff"/></svg><svg viewBox="-12.8 -12.8 89.6 89.6" width="70" height="70" id="phone--black" x="630" y="280" xmlns="http://www.w3.org/2000/svg"><title>phone</title><path d="M47.89 0H16.11a2.41 2.41 0 0 0-2.31 2.5v59a2.41 2.41 0 0 0 2.31 2.5h31.78a2.41 2.41 0 0 0 2.31-2.5v-59A2.41 2.41 0 0 0 47.89 0M32.47 61.56a2.4 2.4 0 1 1 1.89-1.89 2.4 2.4 0 0 1-1.89 1.89m14.47-7.16H17.06a.06.06 0 0 1-.06-.06V6.46a.06.06 0 0 1 .06-.06h29.88a.06.06 0 0 1 .06.06v47.88a.06.06 0 0 1-.06.06"/></svg><svg viewBox="-12.8 -12.8 89.6 89.6" width="70" height="70" id="phone--red" x="630" y="350" xmlns="http://www.w3.org/2000/svg"><title>phone</title><path d="M47.89 0H16.11a2.41 2.41 0 0 0-2.31 2.5v59a2.41 2.41 0 0 0 2.31 2.5h31.78a2.41 2.41 0 0 0 2.31-2.5v-59A2.41 2.41 0 0 0 47.89 0M32.47 61.56a2.4 2.4 0 1 1 1.89-1.89 2.4 2.4 0 0 1-1.89 1.89m14.47-7.16H17.06a.06.06 0 0 1-.06-.06V6.46a.06.06 0 0 1 .06-.06h29.88a.06.06 0 0 1 .06.06v47.88a.06.06 0 0 1-.06.06" fill="#e2001a"/></svg><svg viewBox="-12.8 -12.8 89.6 89.6" width="70" height="70" id="phone--white" x="630" y="420" xmlns="http://www.w3.org/2000/svg"><title>phone</title><path d="M47.89 0H16.11a2.41 2.41 0 0 0-2.31 2.5v59a2.41 2.41 0 0 0 2.31 2.5h31.78a2.41 2.41 0 0 0 2.31-2.5v-59A2.41 2.41 0 0 0 47.89 0M32.47 61.56a2.4 2.4 0 1 1 1.89-1.89 2.4 2.4 0 0 1-1.89 1.89m14.47-7.16H17.06a.06.06 0 0 1-.06-.06V6.46a.06.06 0 0 1 .06-.06h29.88a.06.06 0 0 1 .06.06v47.88a.06.06 0 0 1-.06.06" fill="#fff"/></svg><svg viewBox="-12.8 -12.8 89.6 89.6" width="70" height="70" id="pintrest--black" x="630" y="490" xmlns="http://www.w3.org/2000/svg"><title>pintrest</title><path d="M33.5 0C16 0 7.23 12.52 7.23 23c0 6.32 2.39 11.95 7.53 14a1.27 1.27 0 0 0 1.84-.92c.17-.65.57-2.27.75-3a1.78 1.78 0 0 0-.53-2 10.6 10.6 0 0 1-2.43-7.21c0-9.29 7-17.61 18.1-17.61 9.87 0 15.3 6 15.3 14.09 0 10.6-4.69 19.55-11.65 19.55a5.69 5.69 0 0 1-5.8-7.08c1.1-4.66 3.25-9.68 3.25-13 0-3-1.62-5.52-5-5.52-3.93 0-7.09 4.07-7.09 9.52a14.14 14.14 0 0 0 1.17 5.82L18 49.63c-1.4 5.95-.21 13.23-.11 14a.49.49 0 0 0 .87.21c.36-.47 5-6.25 6.64-12 .45-1.64 2.59-10.1 2.59-10.1 1.28 2.44 5 4.58 9 4.58 11.82 0 19.83-10.77 19.83-25.19C56.77 10.16 47.54 0 33.5 0z" data-name="Layer 40"/></svg><svg viewBox="-12.8 -12.8 89.6 89.6" width="70" height="70" id="pintrest--red" x="630" y="560" xmlns="http://www.w3.org/2000/svg"><title>pintrest</title><path d="M33.5 0C16 0 7.23 12.52 7.23 23c0 6.32 2.39 11.95 7.53 14a1.27 1.27 0 0 0 1.84-.92c.17-.65.57-2.27.75-3a1.78 1.78 0 0 0-.53-2 10.6 10.6 0 0 1-2.43-7.21c0-9.29 7-17.61 18.1-17.61 9.87 0 15.3 6 15.3 14.09 0 10.6-4.69 19.55-11.65 19.55a5.69 5.69 0 0 1-5.8-7.08c1.1-4.66 3.25-9.68 3.25-13 0-3-1.62-5.52-5-5.52-3.93 0-7.09 4.07-7.09 9.52a14.14 14.14 0 0 0 1.17 5.82L18 49.63c-1.4 5.95-.21 13.23-.11 14a.49.49 0 0 0 .87.21c.36-.47 5-6.25 6.64-12 .45-1.64 2.59-10.1 2.59-10.1 1.28 2.44 5 4.58 9 4.58 11.82 0 19.83-10.77 19.83-25.19C56.77 10.16 47.54 0 33.5 0z" fill="#e2001a" data-name="Layer 40"/></svg><svg viewBox="-12.8 -12.8 89.6 89.6" width="70" height="70" id="pintrest--white" y="630" xmlns="http://www.w3.org/2000/svg"><title>pintrest</title><path d="M33.5 0C16 0 7.23 12.52 7.23 23c0 6.32 2.39 11.95 7.53 14a1.27 1.27 0 0 0 1.84-.92c.17-.65.57-2.27.75-3a1.78 1.78 0 0 0-.53-2 10.6 10.6 0 0 1-2.43-7.21c0-9.29 7-17.61 18.1-17.61 9.87 0 15.3 6 15.3 14.09 0 10.6-4.69 19.55-11.65 19.55a5.69 5.69 0 0 1-5.8-7.08c1.1-4.66 3.25-9.68 3.25-13 0-3-1.62-5.52-5-5.52-3.93 0-7.09 4.07-7.09 9.52a14.14 14.14 0 0 0 1.17 5.82L18 49.63c-1.4 5.95-.21 13.23-.11 14a.49.49 0 0 0 .87.21c.36-.47 5-6.25 6.64-12 .45-1.64 2.59-10.1 2.59-10.1 1.28 2.44 5 4.58 9 4.58 11.82 0 19.83-10.77 19.83-25.19C56.77 10.16 47.54 0 33.5 0z" fill="#fff" data-name="Layer 40"/></svg><svg viewBox="-12.8 -12.8 89.6 89.6" width="70" height="70" id="play--black" x="70" y="630" xmlns="http://www.w3.org/2000/svg"><title>play</title><path d="M54.09 29.21a3.42 3.42 0 0 1 0 5.58L13.88 63.36a3.42 3.42 0 0 1-5.41-2.79V3.43A3.42 3.42 0 0 1 13.88.64z" data-name="Play"/></svg><svg viewBox="-12.8 -12.8 89.6 89.6" width="70" height="70" id="play--red" x="140" y="630" xmlns="http://www.w3.org/2000/svg"><title>play</title><path d="M54.09 29.21a3.42 3.42 0 0 1 0 5.58L13.88 63.36a3.42 3.42 0 0 1-5.41-2.79V3.43A3.42 3.42 0 0 1 13.88.64z" fill="#e2001a" data-name="Play"/></svg><svg viewBox="-12.8 -12.8 89.6 89.6" width="70" height="70" id="play--v2--black" x="210" y="630" xmlns="http://www.w3.org/2000/svg"><title>play--v2</title><path d="M32 0a32 32 0 1 0 32 32A32 32 0 0 0 32 0zm0 57a25 25 0 1 1 25-25 25 25 0 0 1-25 25zm9.07-25.81a1 1 0 0 1 0 1.62l-11.71 8.32a1 1 0 0 1-1.57-.81V23.68a1 1 0 0 1 1.57-.81z"/></svg><svg viewBox="-12.8 -12.8 89.6 89.6" width="70" height="70" id="play--v2--red" x="280" y="630" xmlns="http://www.w3.org/2000/svg"><title>play--v2</title><path d="M32 0a32 32 0 1 0 32 32A32 32 0 0 0 32 0zm0 57a25 25 0 1 1 25-25 25 25 0 0 1-25 25zm9.07-25.81a1 1 0 0 1 0 1.62l-11.71 8.32a1 1 0 0 1-1.57-.81V23.68a1 1 0 0 1 1.57-.81z" fill="#e2001a"/></svg><svg viewBox="-12.8 -12.8 89.6 89.6" width="70" height="70" id="play--v2--white" x="350" y="630" xmlns="http://www.w3.org/2000/svg"><title>play--v2</title><path d="M32 0a32 32 0 1 0 32 32A32 32 0 0 0 32 0zm0 57a25 25 0 1 1 25-25 25 25 0 0 1-25 25zm9.07-25.81a1 1 0 0 1 0 1.62l-11.71 8.32a1 1 0 0 1-1.57-.81V23.68a1 1 0 0 1 1.57-.81z" fill="#fff"/></svg><svg viewBox="-12.8 -12.8 89.6 89.6" width="70" height="70" id="play--white" x="420" y="630" xmlns="http://www.w3.org/2000/svg"><title>play</title><path d="M54.09 29.21a3.42 3.42 0 0 1 0 5.58L13.88 63.36a3.42 3.42 0 0 1-5.41-2.79V3.43A3.42 3.42 0 0 1 13.88.64z" fill="#fff" data-name="Play"/></svg><svg viewBox="-12.8 -12.8 89.6 89.6" width="70" height="70" id="rating--black" x="490" y="630" xmlns="http://www.w3.org/2000/svg"><title>rating</title><path d="M32 1.57l-7.55 23.24H0l19.78 14.37-7.56 23.25L32 48.06l19.78 14.37-7.56-23.25L64 24.81H39.55L32 1.57z"/></svg><svg viewBox="-12.8 -12.8 89.6 89.6" width="70" height="70" id="rating--red" x="560" y="630" xmlns="http://www.w3.org/2000/svg"><title>rating</title><path fill="#e2001a" d="M32 1.57l-7.55 23.24H0l19.78 14.37-7.56 23.25L32 48.06l19.78 14.37-7.56-23.25L64 24.81H39.55L32 1.57z"/></svg><svg viewBox="-12.8 -12.8 89.6 89.6" width="70" height="70" id="rating--white" x="630" y="630" xmlns="http://www.w3.org/2000/svg"><title>rating</title><path fill="#fff" d="M32 1.57l-7.55 23.24H0l19.78 14.37-7.56 23.25L32 48.06l19.78 14.37-7.56-23.25L64 24.81H39.55L32 1.57z"/></svg><svg id="royal-canin-crown" viewBox="-14.62 -14.62 102.34 65.04" width="70" height="44.49" x="700" xmlns="http://www.w3.org/2000/svg"><style>.dwst0{fill-rule:evenodd;clip-rule:evenodd;fill:#e2001a}</style><path class="dwst0" d="M14.5 35.8c-.7 0-1.3-.3-1.7-.9-.7-1-.5-2.3.4-3 5.7-4.3 14.5-6.8 23.4-6.8 8.9 0 17.7 2.6 23.4 6.8 1 .7 1.2 2.1.4 3-.7 1-2.1 1.1-3 .4-3.9-2.9-11.4-6-20.8-6-9.5 0-17 3.1-20.9 6-.3.4-.7.5-1.2.5M4.9 8.6c-.9 0-1.7.2-2.5.7-1.1.7-1.9 1.7-2.3 3-.3 1.2-.1 2.6.6 3.7.9 1.5 2.5 2.4 4.2 2.4.9 0 1.8-.2 2.5-.7 1.1-.7 1.9-1.7 2.3-3 .3-1.3.1-2.6-.5-3.7-.9-1.5-2.5-2.4-4.3-2.4m31.8 3.7c-2.7 0-5 2.2-5 4.9s2.2 4.9 5 4.9c2.7 0 4.9-2.2 4.9-4.9 0-2.6-2.2-4.9-4.9-4.9m0-12.3c-2.7 0-5 2.2-5 4.9s2.2 4.9 5 4.9c2.7 0 4.9-2.2 4.9-4.9S39.4 0 36.7 0M23.5 14.1c-.4 0-.9.1-1.3.2-2.6.7-4.2 3.4-3.5 6.1.6 2.1 2.5 3.6 4.8 3.6h.1c.4 0 .8-.1 1.2-.2 1.3-.3 2.3-1.2 3-2.3.7-1.1.8-2.5.5-3.7-.6-2.2-2.6-3.7-4.8-3.7m-12.3 5.1c-.9 0-1.7.2-2.5.7-1.1.7-1.9 1.7-2.3 3-.3 1.3-.1 2.6.5 3.7.9 1.5 2.5 2.4 4.2 2.4.9 0 1.7-.2 2.5-.7 1.1-.7 1.9-1.7 2.3-3 .3-1.3.1-2.6-.5-3.7-.8-1.5-2.4-2.4-4.2-2.4m39.9-5c-.4-.1-.9-.2-1.3-.2-2.2 0-4.2 1.5-4.8 3.6-.7 2.6.8 5.3 3.5 6.1.4.1.9.2 1.3.2 2.2 0 4.2-1.5 4.8-3.6.7-2.6-.8-5.3-3.5-6.1m3.3-11.9c-.4-.1-.9-.2-1.3-.2-2.2 0-4.2 1.5-4.8 3.6-.7 2.6.8 5.3 3.5 6.1.4.1.9.2 1.3.2 2.2 0 4.2-1.5 4.8-3.6.7-2.6-.9-5.4-3.5-6.1m10.2 17.6c-.8-.4-1.6-.7-2.5-.7-1.7 0-3.4.9-4.3 2.4-.7 1.1-.9 2.5-.5 3.7.3 1.3 1.1 2.3 2.3 3 .8.4 1.6.7 2.5.7 1.7 0 3.4-.9 4.3-2.4.7-1.1.9-2.5.5-3.7-.4-1.3-1.2-2.4-2.3-3m8.5-7.6c-.3-1.3-1.1-2.3-2.3-3-.8-.4-1.6-.7-2.5-.7-1.7 0-3.4.9-4.3 2.4-.7 1.1-.9 2.5-.5 3.7.3 1.3 1.1 2.3 2.3 3 .8.5 1.6.7 2.5.7 1.7 0 3.4-.9 4.3-2.4.7-1.1.9-2.5.5-3.7M20.2 12c.4 0 .9-.1 1.3-.2 2.6-.7 4.2-3.4 3.5-6.1-.6-2.1-2.5-3.6-4.8-3.6-.4 0-.9.1-1.3.2-2.6.7-4.2 3.4-3.5 6.1.6 2.1 2.6 3.6 4.8 3.6z"/></svg><svg id="royal-canin-primary" viewBox="-39.94 -39.94 279.58 165.98" width="70" height="41.56" x="700" y="44.49" xmlns="http://www.w3.org/2000/svg"><style>.dxst0,.dxst1{fill:#e2001a}.dxst1{fill-rule:evenodd;clip-rule:evenodd}</style><path class="dxst0" d="M73.9 35.7c-.7 0-1.3-.3-1.7-.9-.7-.9-.5-2.3.4-3C78.3 27.6 87 25 95.9 25s17.5 2.5 23.2 6.8c1 .7 1.1 2 .4 3-.7.9-2 1.1-3 .4-3.8-2.9-11.3-5.9-20.7-5.9-9.4 0-16.9 3.1-20.7 5.9-.3.3-.8.5-1.2.5zm1.9 3.6c.3 0 .7-.1.9-.3 4.3-3.6 11.7-5.8 19.1-5.8 7.5 0 14.6 2.2 19 5.8.6.5 1.5.4 2.1-.2.5-.6.4-1.5-.2-2.1-4.9-4-12.7-6.5-20.9-6.5s-16 2.4-21 6.5c-.6.5-.7 1.4-.2 2.1.4.4.8.5 1.2.5zM64.4 8.5c-.9 0-1.7.2-2.5.7-1.1.7-1.9 1.7-2.3 3-.3 1.3-.1 2.6.5 3.7.9 1.5 2.5 2.4 4.2 2.4.9 0 1.7-.2 2.5-.7 1.1-.7 1.9-1.7 2.3-3 .3-1.3.1-2.6-.5-3.7-.9-1.5-2.5-2.4-4.2-2.4zm31.4 3.8c-2.7 0-4.9 2.2-4.9 4.9s2.2 4.9 4.9 4.9 4.9-2.2 4.9-4.9-2.2-4.9-4.9-4.9zm0-12.3c-2.7 0-4.9 2.2-4.9 4.9s2.2 4.9 4.9 4.9 4.9-2.2 4.9-4.9S98.5 0 95.8 0zm-13 14c-.4 0-.9.1-1.3.2-2.6.7-4.2 3.4-3.4 6 .6 2.1 2.5 3.6 4.7 3.6h.1c.4 0 .8-.1 1.2-.2 1.3-.3 2.3-1.2 3-2.3.6-1.1.8-2.5.5-3.7-.7-2.1-2.6-3.6-4.8-3.6zm-12.2 5.1c-.9 0-1.7.2-2.5.7-1.1.7-1.9 1.7-2.3 3-.3 1.3-.1 2.6.5 3.7.9 1.5 2.5 2.4 4.2 2.4.9 0 1.7-.2 2.5-.7 1.1-.7 1.9-1.7 2.3-3 .3-1.3.1-2.6-.5-3.7-.8-1.5-2.4-2.4-4.2-2.4zm39.6-4.9c-.4-.1-.9-.2-1.3-.2-2.2 0-4.2 1.5-4.7 3.6-.7 2.6.8 5.3 3.4 6 .4.1.9.2 1.3.2 2.2 0 4.2-1.5 4.7-3.6.8-2.6-.8-5.3-3.4-6zm3.2-11.9c-.4-.1-.9-.2-1.3-.2-2.2 0-4.1 1.5-4.7 3.6-.7 2.6.8 5.3 3.4 6 .4.1.9.2 1.3.2 2.2 0 4.2-1.5 4.7-3.6.8-2.6-.7-5.3-3.4-6zm10.1 17.5c-.8-.4-1.6-.7-2.5-.7-1.7 0-3.4.9-4.2 2.4-.7 1.1-.9 2.4-.5 3.7.3 1.3 1.1 2.3 2.3 3 .8.4 1.6.7 2.5.7 1.7 0 3.3-.9 4.2-2.4.7-1.1.9-2.5.5-3.7-.3-1.3-1.1-2.4-2.3-3zm8.6-7.6c-.3-1.3-1.1-2.3-2.3-3-.8-.4-1.6-.7-2.5-.7-1.7 0-3.3.9-4.2 2.4-.7 1.1-.9 2.5-.5 3.7.3 1.3 1.1 2.3 2.3 3 .8.4 1.6.7 2.5.7 1.7 0 3.4-.9 4.2-2.4.6-1.1.8-2.4.5-3.7zM79.5 12c.4 0 .9-.1 1.3-.2 2.6-.7 4.1-3.4 3.4-6-.6-2.1-2.5-3.6-4.7-3.6-.4 0-.9.1-1.3.2-2.6.7-4.2 3.4-3.4 6 .6 2.1 2.5 3.5 4.7 3.6zm84.1 54.8c0 1.6 1.3 2.8 2.8 2.8 1.6 0 2.8-1.3 2.8-2.8V47.1c0-1.6-1.3-2.8-2.8-2.8-1.6 0-2.8 1.3-2.8 2.8v19.7zm-81-2.7c-.2 0-.3-.1-.3-.3V47.5c0-1.5-1.2-2.8-2.8-2.8-1.5 0-2.8 1.2-2.8 2.8v20.3c0 .9.7 1.5 1.5 1.5h9.7c1.4 0 2.6-1.2 2.6-2.6s-1.2-2.6-2.6-2.6h-5.3zm65.9-17.4c-.6-1.2-1.8-1.8-3.3-1.8-1.9 0-3.5 1.6-3.5 3.5V67c0 1.5 1.2 2.6 2.7 2.6s2.7-1.2 2.7-2.6V55.6c0-.1.1-.2.2-.2l.1.1 6.8 12c.6 1.1 1.7 1.8 3 1.8 1.9 0 3.5-1.6 3.5-3.5v-19c0-1.5-1.2-2.6-2.6-2.6-1.5 0-2.6 1.2-2.6 2.6v11.4l-.2.2-.1-.1-6.7-11.6zm30.5 0c-.6-1.2-1.8-1.8-3.3-1.8-1.9 0-3.5 1.6-3.5 3.5v18.7c0 1.5 1.2 2.6 2.7 2.6s2.7-1.2 2.7-2.6V55.7c0-.1.1-.2.2-.2l.1.1 6.8 12c.6 1.1 1.7 1.8 3 1.8 1.9 0 3.5-1.6 3.5-3.5v-19c0-1.5-1.2-2.6-2.6-2.6-1.5 0-2.6 1.2-2.6 2.6v11.4l-.2.2-.1-.1-6.7-11.7zM49.8 52.2c-.1 0-.2 0-.3-.1l-6.1-6.4c-.5-.5-1.1-.8-1.9-.8-1.4 0-2.6 1.2-2.6 2.6 0 .7.3 1.3.7 1.7l7.4 8.5.1 9c0 1.4 1.2 2.6 2.6 2.6 1.4 0 2.6-1.2 2.6-2.6l.1-9 7.4-8.5c.4-.5.7-1.1.7-1.7 0-1.4-1.2-2.6-2.6-2.6-.7 0-1.4.3-1.9.8l-6 6.4c0 .1-.1.1-.2.1zM29 50.6c3.6 0 6.6 2.9 6.6 6.6 0 3.6-2.9 6.6-6.6 6.6-3.6 0-6.6-2.9-6.6-6.6 0-3.6 3-6.6 6.6-6.6zm12.2 6.6C41.2 50.4 35.8 45 29 45s-12.2 5.5-12.2 12.2c0 6.8 5.5 12.2 12.2 12.2 6.8 0 12.2-5.4 12.2-12.2zm87.6 1.6c0 .2-.1.3-.2.3h-2.5v-4l2.7 3.7zm-3.3-13.1c-.5-.6-1.3-1-2.1-1-1.5 0-2.8.8-2.8 2.3v19.6c0 1.5 1.2 2.7 2.7 2.7s2.8-1.2 2.8-2.7v-2.2h6.7l2.8 3.8c.5.6 1.2 1.1 2.1 1.1 1.5 0 2.6-1.2 2.6-2.6 0-.6-.2-1.1-.5-1.6l-14.3-19.4zm-57.6 9.4v4h-2.5c-.1 0-.2-.1-.2-.2v-.1l2.7-3.7zm-13.8 10c-.3.4-.5 1-.5 1.6 0 1.5 1.2 2.6 2.6 2.6.9 0 1.6-.4 2.1-1.1l2.8-3.8h6.7v2.2c0 1.5 1.3 2.7 2.8 2.7s2.7-1.2 2.7-2.7V47.5c0-1.5-1.3-2.8-2.8-2.8-.8 0-1.6.4-2.1 1L54.1 65.1zm43.8-7.8c0 7.6 6.4 12.2 11.5 12.2 3.5 0 7.2-1.5 9.2-3.9.4-.5.6-1 .6-1.7 0-1.4-1.2-2.6-2.6-2.6-.4 0-.8.1-1.2.3l-2.1 1.4c-1 .7-2.2 1-3.5 1-3.6 0-6.5-3-6.5-6.7s2.9-6.7 6.5-6.7c1.3 0 2.5.4 3.5 1l2.1 1.4c.4.2.8.3 1.2.3 1.4 0 2.6-1.2 2.6-2.6 0-.6-.2-1.2-.6-1.7-2-2.4-5-3.8-8.5-3.8-6.8-.1-12.2 5.4-12.2 12.1zm-90-6.8c1.6 0 2.9 1.2 2.9 2.6 0 1.5-1.3 2.6-2.9 2.6S5 54.6 5 53.2c0-1.5 1.3-2.7 2.9-2.7zM.4 66.8c0 1.4 1.2 2.6 2.6 2.6s2.6-1.2 2.6-2.6l.1-6.5c0-.1.1-.3.3-.3h.1l6.4 8.7c.4.4 1 .7 1.7.7 1.4 0 2.6-1.1 2.6-2.5 0-.4-.1-.8-.3-1.1l-4-6.3c2-1 3.5-3.5 3.5-6.2 0-4.5-3.2-8-7.9-8.2-2.6-.2-4.5.8-6 2.1C.5 48.7 0 50.9 0 53.3l.4 13.5zM178.9 86v-6.8h1v5.9h3.3v.9h-4.3zm-4.6 0h1v-6.8h-1V86zm-5.7-5.2l-1.1 3h2.1l-1-3zm1.8 5.2l-.5-1.4h-2.7l-.5 1.4h-1.1l2.5-6.8h.8l2.5 6.8h-1zm-8.2-5.8V86h-1v-5.9h-1.9v-.9h4.8v.9l-1.9.1zm-9.9 5.8v-6.8h4.4v.9h-3.3v2h2.8v.9h-2.8v2.1h3.3v.9h-4.4zm-4.4-3.4c0-.9 0-1.6-.4-2-.3-.3-.7-.5-1.2-.5H145v5h1.3c.5 0 .9-.1 1.2-.5.4-.3.4-1.1.4-2zm1 0c0 1 0 2.1-.7 2.8-.4.4-1.1.6-1.8.6H144v-6.8h2.4c.7 0 1.3.2 1.8.6.8.8.7 1.8.7 2.8zm-13.3.6V86h-1v-2.8l-2-4h1.1l1.4 3 1.4-3h1.1l-2 4zm-6.6-2c0-.7-.5-1.1-1.2-1.1h-1.5v2.1h1.5c.8.1 1.2-.3 1.2-1zm.1 4.8l-1.4-2.9h-1.3V86h-1v-6.8h2.6c1.3 0 2.1.8 2.1 2 0 1-.6 1.6-1.4 1.8l1.6 3h-1.2zm-11.4 0v-6.8h4.4v.9h-3.3v2h2.8v.9h-2.8v2.1h3.3v.9h-4.4zm-5 0h-.8l-2.2-6.8h1.1l1.6 5 1.6-5h1.1l-2.4 6.8zm-9.8 0v-6.8h4.4v.9H104v2h2.8v.9H104v2.1h3.3v.9h-4.4zm-8.2 0l-3.2-4.8V86h-1v-6.8h.9l3.2 4.8v-4.8h1V86h-.9zm-8.8 0h1v-6.8h-1V86zm-11.3 0v-6.8H79v.9h-3.3v2h2.8v.9h-2.8v2.1H79v.9h-4.4zm-7.3 0v-6.8h1v5.9h3.3v.9h-4.3zm-4.4-1.9c0-.6-.4-1-1.1-1h-1.6v2.1h1.6c.7-.1 1.1-.5 1.1-1.1zm-.1-3c0-.6-.4-1-1.1-1h-1.5v2h1.5c.7 0 1.1-.3 1.1-1zm1.1 3c0 1.3-.9 1.9-2.1 1.9H59v-6.8h2.7c1.3 0 2.1.7 2.1 1.9 0 .7-.5 1.3-.9 1.4.5.3 1 .8 1 1.6zM54.5 86h1v-6.8h-1V86zm-4.4-3.4c0-.9 0-1.6-.4-2-.3-.3-.7-.5-1.2-.5h-1.3v5h1.3c.5 0 .9-.1 1.2-.5.4-.3.4-1.1.4-2zm1 0c0 1 0 2.1-.7 2.8-.4.4-1 .6-1.7.6h-2.4v-6.8h2.4c.7 0 1.3.2 1.8.6.7.8.6 1.8.6 2.8zM38.7 86v-6.8h4.4v.9h-3.3v2h2.8v.9h-2.8v2.1h3.3v.9h-4.4zm-4.4-4.8c0-.7-.5-1.1-1.2-1.1h-1.5v2.1h1.5c.8.1 1.2-.3 1.2-1zm.1 4.8L33 83.1h-1.3V86h-1v-6.8h2.6c1.3 0 2.1.8 2.1 2 0 1-.6 1.6-1.4 1.8l1.6 3h-1.2zm-7-.7c-.5.5-1.1.8-1.9.8-.7 0-1.3-.3-1.8-.7-.7-.7-.7-1.4-.7-2.8 0-1.3 0-2.1.7-2.7.5-.5 1.1-.7 1.8-.7.9 0 1.4.3 1.9.8l-.7.7c-.4-.4-.6-.6-1.2-.6-.4 0-.8.2-1 .4-.3.4-.4.8-.4 2.1 0 1.4.1 1.8.4 2.1.2.3.6.4 1 .4.6 0 .9-.2 1.2-.6l.7.8zm-8.7.7l-3.2-4.8V86h-1v-6.8h.9l3.2 4.8v-4.8h1V86h-.9zm-8.8 0h1v-6.8h-1V86z"/><path class="dxst1" d="M197 46.6c.3 0 .4-.1.4-.3 0-.3-.2-.4-.4-.4h-.6v.7h.6zm-.6 1.5c0 .2-.1.4-.4.4-.3 0-.3-.1-.3-.4v-2.4c0-.2.1-.3.4-.3h.9c.6 0 1.2.2 1.2.9 0 .6-.3.8-.8.9l.6.9v.2c0 .2-.1.3-.4.3-.2 0-.3-.2-.4-.4l-.5-.9h-.2v.8zm.5.9c1.2 0 2.2-1 2.2-2.2 0-1.2-1-2.2-2.2-2.2-1.2 0-2.2 1-2.2 2.2 0 1.3 1 2.2 2.2 2.2zm0-5c1.6 0 2.9 1.3 2.9 2.9 0 1.6-1.3 2.9-2.9 2.9-1.6 0-2.9-1.3-2.9-2.9 0-1.6 1.3-2.9 2.9-2.9z"/></svg><svg id="royal-canin-secondary" viewBox="-39.94 -39.94 279.58 149.58" width="70" height="37.45" x="700" y="86.05000000000001" xmlns="http://www.w3.org/2000/svg"><style>.dyst0{fill-rule:evenodd;clip-rule:evenodd;fill:#e2001a}</style><path class="dyst0" d="M197 46.8c.3 0 .4-.1.4-.3 0-.3-.2-.4-.4-.4h-.6v.7h.6zm-.6 1.5c0 .2-.1.4-.4.4-.3 0-.3-.1-.3-.4v-2.4c0-.2.1-.3.4-.3h.9c.6 0 1.2.2 1.2.9 0 .6-.3.8-.8.9l.6.9v.2c0 .2-.1.3-.4.3-.2 0-.3-.2-.4-.4l-.5-.9h-.2v.8zm.5.9c1.2 0 2.2-1 2.2-2.2 0-1.2-1-2.2-2.2-2.2-1.2 0-2.2 1-2.2 2.2 0 1.3 1 2.2 2.2 2.2zm0-5c1.6 0 2.9 1.3 2.9 2.9 0 1.6-1.3 2.9-2.9 2.9-1.6 0-2.9-1.3-2.9-2.9 0-1.6 1.3-2.9 2.9-2.9zM73.9 35.7c-.7 0-1.3-.3-1.7-.9-.7-.9-.5-2.3.4-3C78.3 27.6 87 25 95.9 25s17.5 2.5 23.2 6.8c1 .7 1.1 2 .4 3-.7.9-2 1.1-3 .4-3.8-2.9-11.3-5.9-20.7-5.9-9.4 0-16.9 3.1-20.7 5.9-.3.3-.8.5-1.2.5zm1.9 3.6c.3 0 .7-.1.9-.3 4.3-3.6 11.7-5.8 19.1-5.8 7.5 0 14.6 2.2 19 5.8.6.5 1.5.4 2.1-.2.5-.6.4-1.5-.2-2.1-4.9-4-12.7-6.5-20.9-6.5s-16 2.4-21 6.5c-.6.5-.7 1.4-.2 2.1.4.4.8.5 1.2.5zM64.4 8.5c-.9 0-1.7.2-2.5.7-1.1.7-1.9 1.7-2.3 3-.3 1.3-.1 2.6.5 3.7.9 1.5 2.5 2.4 4.2 2.4.9 0 1.7-.2 2.5-.7 1.1-.7 1.9-1.7 2.3-3 .3-1.3.1-2.6-.5-3.7-.9-1.5-2.5-2.4-4.2-2.4zm31.4 3.8c-2.7 0-4.9 2.2-4.9 4.9s2.2 4.9 4.9 4.9 4.9-2.2 4.9-4.9-2.2-4.9-4.9-4.9zm0-12.3c-2.7 0-4.9 2.2-4.9 4.9s2.2 4.9 4.9 4.9 4.9-2.2 4.9-4.9S98.5 0 95.8 0zm-13 14c-.4 0-.9.1-1.3.2-2.6.7-4.2 3.4-3.4 6 .6 2.1 2.5 3.6 4.7 3.6h.1c.4 0 .8-.1 1.2-.2 1.3-.3 2.3-1.2 3-2.3.6-1.1.8-2.5.5-3.7-.7-2.1-2.6-3.6-4.8-3.6zm-12.2 5.1c-.9 0-1.7.2-2.5.7-1.1.7-1.9 1.7-2.3 3-.3 1.3-.1 2.6.5 3.7.9 1.5 2.5 2.4 4.2 2.4.9 0 1.7-.2 2.5-.7 1.1-.7 1.9-1.7 2.3-3 .3-1.3.1-2.6-.5-3.7-.8-1.5-2.4-2.4-4.2-2.4zm39.6-4.9c-.4-.1-.9-.2-1.3-.2-2.2 0-4.2 1.5-4.7 3.6-.7 2.6.8 5.3 3.4 6 .4.1.9.2 1.3.2 2.2 0 4.2-1.5 4.7-3.6.8-2.6-.8-5.3-3.4-6zm3.2-11.9c-.4-.1-.9-.2-1.3-.2-2.2 0-4.1 1.5-4.7 3.6-.7 2.6.8 5.3 3.4 6 .4.1.9.2 1.3.2 2.2 0 4.2-1.5 4.7-3.6.8-2.6-.7-5.3-3.4-6zm10.1 17.5c-.8-.4-1.6-.7-2.5-.7-1.7 0-3.4.9-4.2 2.4-.7 1.1-.9 2.4-.5 3.7.3 1.3 1.1 2.3 2.3 3 .8.4 1.6.7 2.5.7 1.7 0 3.3-.9 4.2-2.4.7-1.1.9-2.5.5-3.7-.3-1.3-1.1-2.4-2.3-3zm8.6-7.6c-.3-1.3-1.1-2.3-2.3-3-.8-.4-1.6-.7-2.5-.7-1.7 0-3.3.9-4.2 2.4-.7 1.1-.9 2.5-.5 3.7.3 1.3 1.1 2.3 2.3 3 .8.4 1.6.7 2.5.7 1.7 0 3.4-.9 4.2-2.4.6-1.1.8-2.4.5-3.7zM79.5 12c.4 0 .9-.1 1.3-.2 2.6-.7 4.1-3.4 3.4-6-.6-2.1-2.5-3.6-4.7-3.6-.4 0-.9.1-1.3.2-2.6.7-4.2 3.4-3.4 6 .6 2.1 2.5 3.5 4.7 3.6zm84.1 54.8c0 1.6 1.3 2.8 2.8 2.8 1.6 0 2.8-1.3 2.8-2.8V47.1c0-1.6-1.3-2.8-2.8-2.8-1.6 0-2.8 1.3-2.8 2.8v19.7zm-81-2.7c-.2 0-.3-.1-.3-.3V47.5c0-1.5-1.2-2.8-2.8-2.8-1.5 0-2.8 1.2-2.8 2.8v20.3c0 .9.7 1.5 1.5 1.5h9.7c1.4 0 2.6-1.2 2.6-2.6 0-1.4-1.2-2.6-2.6-2.6h-5.3zm65.9-17.4c-.6-1.2-1.8-1.8-3.3-1.8-1.9 0-3.5 1.6-3.5 3.5V67c0 1.5 1.2 2.6 2.7 2.6 1.5 0 2.7-1.2 2.7-2.6V55.6c0-.1.1-.2.2-.2l.1.1 6.8 12c.6 1.1 1.7 1.8 3 1.8 1.9 0 3.5-1.6 3.5-3.5v-19c0-1.5-1.2-2.6-2.6-2.6-1.5 0-2.6 1.2-2.6 2.6v11.4l-.2.2-.1-.1-6.7-11.6zm30.5 0c-.6-1.2-1.8-1.8-3.3-1.8-1.9 0-3.5 1.6-3.5 3.5v18.7c0 1.5 1.2 2.6 2.7 2.6 1.5 0 2.7-1.2 2.7-2.6V55.7c0-.1.1-.2.2-.2l.1.1 6.8 12c.6 1.1 1.7 1.8 3 1.8 1.9 0 3.5-1.6 3.5-3.5v-19c0-1.5-1.2-2.6-2.6-2.6-1.5 0-2.6 1.2-2.6 2.6v11.4l-.2.2-.1-.1-6.7-11.7zM49.8 52.2c-.1 0-.2 0-.3-.1l-6.1-6.4c-.5-.5-1.1-.8-1.9-.8-1.4 0-2.6 1.2-2.6 2.6 0 .7.3 1.3.7 1.7l7.4 8.5.1 9c0 1.4 1.2 2.6 2.6 2.6 1.4 0 2.6-1.2 2.6-2.6l.1-9 7.4-8.5c.4-.5.7-1.1.7-1.7 0-1.4-1.2-2.6-2.6-2.6-.7 0-1.4.3-1.9.8l-6 6.4c0 .1-.1.1-.2.1zM29 50.6c3.6 0 6.6 2.9 6.6 6.6 0 3.6-2.9 6.6-6.6 6.6-3.6 0-6.6-2.9-6.6-6.6 0-3.6 3-6.6 6.6-6.6zm12.2 6.6C41.2 50.4 35.8 45 29 45c-6.8 0-12.2 5.5-12.2 12.2 0 6.8 5.5 12.2 12.2 12.2 6.8 0 12.2-5.4 12.2-12.2zm87.6 1.6v.1c0 .1-.1.2-.2.2h-2.5v-4l2.7 3.7zm-3.3-13.1c-.5-.6-1.3-1-2.1-1-1.5 0-2.8.8-2.8 2.3v19.6c0 1.5 1.2 2.7 2.7 2.7 1.5 0 2.8-1.2 2.8-2.7v-2.2h6.7l2.8 3.8c.5.6 1.2 1.1 2.1 1.1 1.5 0 2.6-1.2 2.6-2.6 0-.6-.2-1.1-.5-1.6l-14.3-19.4zm-57.6 9.4v4h-2.5c-.1 0-.2-.1-.2-.2v-.1l2.7-3.7zm-13.8 10c-.3.4-.5 1-.5 1.6 0 1.5 1.2 2.6 2.6 2.6.9 0 1.6-.4 2.1-1.1l2.8-3.8h6.7v2.2c0 1.5 1.3 2.7 2.8 2.7 1.5 0 2.7-1.2 2.7-2.7V47.5c0-1.5-1.3-2.8-2.8-2.8-.8 0-1.6.4-2.1 1L54.1 65.1zm43.8-7.8c0 7.6 6.4 12.2 11.5 12.2 3.5 0 7.2-1.5 9.2-3.9.4-.5.6-1 .6-1.7 0-1.4-1.2-2.6-2.6-2.6-.4 0-.8.1-1.2.3l-2.1 1.4c-1 .7-2.2 1-3.5 1-3.6 0-6.5-3-6.5-6.7s2.9-6.7 6.5-6.7c1.3 0 2.5.4 3.5 1l2.1 1.4c.4.2.8.3 1.2.3 1.4 0 2.6-1.2 2.6-2.6 0-.6-.2-1.2-.6-1.7-2-2.4-5-3.8-8.5-3.8-6.8-.1-12.2 5.4-12.2 12.1zm-90-6.8c1.6 0 2.9 1.2 2.9 2.6 0 1.5-1.3 2.6-2.9 2.6S5 54.6 5 53.2c0-1.5 1.3-2.7 2.9-2.7zM.4 66.8c0 1.4 1.2 2.6 2.6 2.6 1.4 0 2.6-1.2 2.6-2.6l.1-6.5c0-.1.1-.3.3-.3h.1l6.4 8.7c.4.4 1 .7 1.7.7 1.4 0 2.6-1.1 2.6-2.5 0-.4-.1-.8-.3-1.1l-4-6.3c2-1 3.5-3.5 3.5-6.2 0-4.5-3.2-8-7.9-8.2-2.6-.2-4.5.8-6 2.1C.5 48.7 0 50.9 0 53.3l.4 13.5z"/></svg><svg viewBox="-12.8 -12.8 89.6 89.6" width="70" height="70" id="search--black" x="700" y="123.50000000000001" xmlns="http://www.w3.org/2000/svg"><title>search</title><path d="M56 8a27.2 27.2 0 0 0-41.81 34.34L1.56 55A5.29 5.29 0 0 0 9 62.45l12.68-12.63A27.2 27.2 0 0 0 56 8m-4.93 33.48A20.2 20.2 0 1 1 57 27.2a20.07 20.07 0 0 1-5.92 14.28"/></svg><svg viewBox="-12.8 -12.8 89.6 89.6" width="70" height="70" id="search--red" x="700" y="193.5" xmlns="http://www.w3.org/2000/svg"><title>search</title><path d="M56 8a27.2 27.2 0 0 0-41.81 34.34L1.56 55A5.29 5.29 0 0 0 9 62.45l12.68-12.63A27.2 27.2 0 0 0 56 8m-4.93 33.48A20.2 20.2 0 1 1 57 27.2a20.07 20.07 0 0 1-5.92 14.28" fill="#e2001a"/></svg><svg viewBox="-12.8 -12.8 89.6 89.6" width="70" height="70" id="search--white" x="700" y="263.5" xmlns="http://www.w3.org/2000/svg"><title>search</title><path d="M56 8a27.2 27.2 0 0 0-41.81 34.34L1.56 55A5.29 5.29 0 0 0 9 62.45l12.68-12.63A27.2 27.2 0 0 0 56 8m-4.93 33.48A20.2 20.2 0 1 1 57 27.2a20.07 20.07 0 0 1-5.92 14.28" fill="#fff"/></svg><svg viewBox="-12.8 -12.8 89.6 89.6" width="70" height="70" id="shelter--black" x="700" y="333.5" xmlns="http://www.w3.org/2000/svg"><title>shelter</title><path d="M61.81 17.35v43.3A3.35 3.35 0 0 1 58.45 64H45.89V35.74a6.67 6.67 0 0 0-6.67-6.67H24.79a6.67 6.67 0 0 0-6.67 6.67V64H5.55a3.36 3.36 0 0 1-3.36-3.35v-43.3a3.36 3.36 0 0 1 1.59-2.85L29.39.56a6.34 6.34 0 0 1 5.23 0l25.6 13.94a3.36 3.36 0 0 1 1.59 2.85z"/></svg><svg viewBox="-12.8 -12.8 89.6 89.6" width="70" height="70" id="shelter--red" x="700" y="403.5" xmlns="http://www.w3.org/2000/svg"><title>shelter</title><path d="M61.81 17.35v43.3A3.35 3.35 0 0 1 58.45 64H45.89V35.74a6.67 6.67 0 0 0-6.67-6.67H24.79a6.67 6.67 0 0 0-6.67 6.67V64H5.55a3.36 3.36 0 0 1-3.36-3.35v-43.3a3.36 3.36 0 0 1 1.59-2.85L29.39.56a6.34 6.34 0 0 1 5.23 0l25.6 13.94a3.36 3.36 0 0 1 1.59 2.85z" fill="#e2001a"/></svg><svg viewBox="-12.8 -12.8 89.6 89.6" width="70" height="70" id="shelter--white" x="700" y="473.5" xmlns="http://www.w3.org/2000/svg"><title>shelter</title><path d="M61.81 17.35v43.3A3.35 3.35 0 0 1 58.45 64H45.89V35.74a6.67 6.67 0 0 0-6.67-6.67H24.79a6.67 6.67 0 0 0-6.67 6.67V64H5.55a3.36 3.36 0 0 1-3.36-3.35v-43.3a3.36 3.36 0 0 1 1.59-2.85L29.39.56a6.34 6.34 0 0 1 5.23 0l25.6 13.94a3.36 3.36 0 0 1 1.59 2.85z" fill="#fff"/></svg><svg viewBox="-12.8 -12.8 89.6 89.6" width="70" height="70" id="speciality-retailer--black" x="700" y="543.5" xmlns="http://www.w3.org/2000/svg"><title>speciality-retailer</title><path d="M56 61l-1.59-42a2.66 2.66 0 0 0-2.64-2.32H45.9C44.94 7.25 39.08 0 32 0S19.06 7.25 18.1 16.63h-5.87A2.66 2.66 0 0 0 9.59 19L8 61a2.66 2.66 0 0 0 2.64 3h42.67A2.66 2.66 0 0 0 56 61zM30.49 16.63h-8.88C22.46 9.18 26.79 3.49 32 3.49s9.54 5.69 10.4 13.14H30.49z"/></svg><svg viewBox="-12.8 -12.8 89.6 89.6" width="70" height="70" id="speciality-retailer--red" x="700" y="613.5" xmlns="http://www.w3.org/2000/svg"><title>speciality-retailer</title><path d="M56 61l-1.59-42a2.66 2.66 0 0 0-2.64-2.32H45.9C44.94 7.25 39.08 0 32 0S19.06 7.25 18.1 16.63h-5.87A2.66 2.66 0 0 0 9.59 19L8 61a2.66 2.66 0 0 0 2.64 3h42.67A2.66 2.66 0 0 0 56 61zM30.49 16.63h-8.88C22.46 9.18 26.79 3.49 32 3.49s9.54 5.69 10.4 13.14H30.49z" fill="#e2001a"/></svg><svg viewBox="-12.8 -12.8 89.6 89.6" width="70" height="70" id="speciality-retailer--white" y="700" xmlns="http://www.w3.org/2000/svg"><title>speciality-retailer</title><path d="M56 61l-1.59-42a2.66 2.66 0 0 0-2.64-2.32H45.9C44.94 7.25 39.08 0 32 0S19.06 7.25 18.1 16.63h-5.87A2.66 2.66 0 0 0 9.59 19L8 61a2.66 2.66 0 0 0 2.64 3h42.67A2.66 2.66 0 0 0 56 61zM30.49 16.63h-8.88C22.46 9.18 26.79 3.49 32 3.49s9.54 5.69 10.4 13.14H30.49z" fill="#fff"/></svg><svg viewBox="-12.8 -12.8 89.6 89.6" width="70" height="70" id="toggle--black" x="70" y="700" xmlns="http://www.w3.org/2000/svg"><title>toggle</title><path d="M44.18 15.5H3.62a3.5 3.5 0 1 1 0-7h40.56a3.5 3.5 0 0 1 0 7M0 32a3.5 3.5 0 0 0 3.5 3.5h57a3.5 3.5 0 0 0 0-7h-57A3.5 3.5 0 0 0 0 32m3.64 23.5h46.91a3.5 3.5 0 0 0 0-7H3.64a3.5 3.5 0 1 0 0 7"/></svg><svg viewBox="-12.8 -12.8 89.6 89.6" width="70" height="70" id="toggle--red" x="140" y="700" xmlns="http://www.w3.org/2000/svg"><title>toggle</title><path d="M44.18 15.5H3.62a3.5 3.5 0 1 1 0-7h40.56a3.5 3.5 0 0 1 0 7M0 32a3.5 3.5 0 0 0 3.5 3.5h57a3.5 3.5 0 0 0 0-7h-57A3.5 3.5 0 0 0 0 32m3.64 23.5h46.91a3.5 3.5 0 0 0 0-7H3.64a3.5 3.5 0 1 0 0 7" fill="#e2001a"/></svg><svg viewBox="-12.8 -12.8 89.6 89.6" width="70" height="70" id="toggle--white" x="210" y="700" xmlns="http://www.w3.org/2000/svg"><title>toggle</title><path d="M44.18 15.5H3.62a3.5 3.5 0 1 1 0-7h40.56a3.5 3.5 0 0 1 0 7M0 32a3.5 3.5 0 0 0 3.5 3.5h57a3.5 3.5 0 0 0 0-7h-57A3.5 3.5 0 0 0 0 32m3.64 23.5h46.91a3.5 3.5 0 0 0 0-7H3.64a3.5 3.5 0 1 0 0 7" fill="#fff"/></svg><svg viewBox="-12.8 -12.8 89.6 89.6" width="70" height="70" id="twitter--black" x="280" y="700" xmlns="http://www.w3.org/2000/svg"><title>twitter</title><path d="M64 11.65a25.65 25.65 0 0 1-7.54 2.12 13.43 13.43 0 0 0 5.77-7.45 25.86 25.86 0 0 1-8.34 3.26 13 13 0 0 0-9.58-4.25A13.3 13.3 0 0 0 31.18 18.8a13.74 13.74 0 0 0 .34 3.07A37 37 0 0 1 4.46 7.79a13.71 13.71 0 0 0-1.78 6.78 13.55 13.55 0 0 0 5.84 11.2 12.89 12.89 0 0 1-6-1.68v.17a13.39 13.39 0 0 0 10.54 13.2 12.52 12.52 0 0 1-3.46.47 12.75 12.75 0 0 1-2.47-.24A13.18 13.18 0 0 0 19.44 47a25.93 25.93 0 0 1-16.31 5.81A26.28 26.28 0 0 1 0 52.62a36.56 36.56 0 0 0 20.13 6c24.15 0 37.36-20.51 37.36-38.31v-1.75a27 27 0 0 0 6.55-7" data-name="Play"/></svg><svg viewBox="-12.8 -12.8 89.6 89.6" width="70" height="70" id="twitter--red" x="350" y="700" xmlns="http://www.w3.org/2000/svg"><title>twitter</title><path d="M64 11.65a25.65 25.65 0 0 1-7.54 2.12 13.43 13.43 0 0 0 5.77-7.45 25.86 25.86 0 0 1-8.34 3.26 13 13 0 0 0-9.58-4.25A13.3 13.3 0 0 0 31.18 18.8a13.74 13.74 0 0 0 .34 3.07A37 37 0 0 1 4.46 7.79a13.71 13.71 0 0 0-1.78 6.78 13.55 13.55 0 0 0 5.84 11.2 12.89 12.89 0 0 1-6-1.68v.17a13.39 13.39 0 0 0 10.54 13.2 12.52 12.52 0 0 1-3.46.47 12.75 12.75 0 0 1-2.47-.24A13.18 13.18 0 0 0 19.44 47a25.93 25.93 0 0 1-16.31 5.81A26.28 26.28 0 0 1 0 52.62a36.56 36.56 0 0 0 20.13 6c24.15 0 37.36-20.51 37.36-38.31v-1.75a27 27 0 0 0 6.55-7" fill="#e2001a" data-name="Play"/></svg><svg viewBox="-12.8 -12.8 89.6 89.6" width="70" height="70" id="twitter--white" x="420" y="700" xmlns="http://www.w3.org/2000/svg"><title>twitter</title><path d="M64 11.65a25.65 25.65 0 0 1-7.54 2.12 13.43 13.43 0 0 0 5.77-7.45 25.86 25.86 0 0 1-8.34 3.26 13 13 0 0 0-9.58-4.25A13.3 13.3 0 0 0 31.18 18.8a13.74 13.74 0 0 0 .34 3.07A37 37 0 0 1 4.46 7.79a13.71 13.71 0 0 0-1.78 6.78 13.55 13.55 0 0 0 5.84 11.2 12.89 12.89 0 0 1-6-1.68v.17a13.39 13.39 0 0 0 10.54 13.2 12.52 12.52 0 0 1-3.46.47 12.75 12.75 0 0 1-2.47-.24A13.18 13.18 0 0 0 19.44 47a25.93 25.93 0 0 1-16.31 5.81A26.28 26.28 0 0 1 0 52.62a36.56 36.56 0 0 0 20.13 6c24.15 0 37.36-20.51 37.36-38.31v-1.75a27 27 0 0 0 6.55-7" fill="#fff" data-name="Play"/></svg><svg viewBox="-12.8 -12.8 89.6 89.6" width="70" height="70" id="user--black" x="490" y="700" xmlns="http://www.w3.org/2000/svg"><title>user</title><path d="M42.79 35.51c3.7-3.57 6.05-10 6.05-16C48.85 8.71 44.08 0 32 0 19.6 0 15.15 8.71 15.15 19.46c0 6 2.36 12.48 6.05 16C10.39 39.17 2.74 47.05 2.74 57.58v2c0 1.53 0 3 .12 4.46h58.28c.09-1.44.11-2.93.12-4.46v-2c0-10.53-7.65-18.41-18.47-22.07zm-35.59 24v-2C7.2 49.68 13 43 22.64 39.73a4.46 4.46 0 0 0 1.67-7.44c-2.76-2.66-4.69-7.94-4.69-12.84 0-15 9.32-15 12.38-15 8.22 0 12.38 5 12.38 15 0 4.89-1.93 10.17-4.69 12.84a4.46 4.46 0 0 0 1.67 7.44C51 43 56.8 49.68 56.8 57.58v2z"/></svg><svg viewBox="-12.8 -12.8 89.6 89.6" width="70" height="70" id="user--red" x="560" y="700" xmlns="http://www.w3.org/2000/svg"><title>user</title><path d="M42.79 35.51c3.7-3.57 6.05-10 6.05-16C48.85 8.71 44.08 0 32 0 19.6 0 15.15 8.71 15.15 19.46c0 6 2.36 12.48 6.05 16C10.39 39.17 2.74 47.05 2.74 57.58v2c0 1.53 0 3 .12 4.46h58.28c.09-1.44.11-2.93.12-4.46v-2c0-10.53-7.65-18.41-18.47-22.07zm-35.59 24v-2C7.2 49.68 13 43 22.64 39.73a4.46 4.46 0 0 0 1.67-7.44c-2.76-2.66-4.69-7.94-4.69-12.84 0-15 9.32-15 12.38-15 8.22 0 12.38 5 12.38 15 0 4.89-1.93 10.17-4.69 12.84a4.46 4.46 0 0 0 1.67 7.44C51 43 56.8 49.68 56.8 57.58v2z" fill="#e2001a"/></svg><svg viewBox="-12.8 -12.8 89.6 89.6" width="70" height="70" id="user--white" x="630" y="700" xmlns="http://www.w3.org/2000/svg"><title>user</title><path d="M42.79 35.51c3.7-3.57 6.05-10 6.05-16C48.85 8.71 44.08 0 32 0 19.6 0 15.15 8.71 15.15 19.46c0 6 2.36 12.48 6.05 16C10.39 39.17 2.74 47.05 2.74 57.58v2c0 1.53 0 3 .12 4.46h58.28c.09-1.44.11-2.93.12-4.46v-2c0-10.53-7.65-18.41-18.47-22.07zm-35.59 24v-2C7.2 49.68 13 43 22.64 39.73a4.46 4.46 0 0 0 1.67-7.44c-2.76-2.66-4.69-7.94-4.69-12.84 0-15 9.32-15 12.38-15 8.22 0 12.38 5 12.38 15 0 4.89-1.93 10.17-4.69 12.84a4.46 4.46 0 0 0 1.67 7.44C51 43 56.8 49.68 56.8 57.58v2z" fill="#fff"/></svg><svg viewBox="-12.8 -12.8 89.6 89.6" width="70" height="70" id="vet--black" x="700" y="700" xmlns="http://www.w3.org/2000/svg"><title>vet</title><path d="M55.86 45.22a7.69 7.69 0 0 0-12.87 4 8.34 8.34 0 0 0 .61 5l-.78.7a8.57 8.57 0 0 1-9.39 1.48 8.3 8.3 0 0 1-4.87-7.65v-16.9a19.64 19.64 0 0 0 16-19.13V6.61A6.61 6.61 0 0 0 37.94 0h-2a3.4 3.4 0 0 0-3.39 3.39 3.34 3.34 0 0 0 3.39 3.39h1.83v5.93a12.61 12.61 0 0 1-25.22 0V6.78h1.83a3.4 3.4 0 0 0 3.39-3.39A3.34 3.34 0 0 0 14.38 0h-2a6.61 6.61 0 0 0-6.61 6.61v6.11a19.47 19.47 0 0 0 16 19v16.71a16.11 16.11 0 0 0 4 10.7 15.29 15.29 0 0 0 21.3 1l2.09-1.83a7.48 7.48 0 0 0 3.39-.17A7.8 7.8 0 0 0 58.12 52a7.57 7.57 0 0 0-2.26-6.78zm-5 7.75a2.29 2.29 0 1 1 2.29-2.29A2.29 2.29 0 0 1 50.82 53z" data-name="Vet"/></svg><svg viewBox="-12.8 -12.8 89.6 89.6" width="70" height="70" id="vet--red" x="770" xmlns="http://www.w3.org/2000/svg"><title>vet</title><path d="M55.86 45.22a7.69 7.69 0 0 0-12.87 4 8.34 8.34 0 0 0 .61 5l-.78.7a8.57 8.57 0 0 1-9.39 1.48 8.3 8.3 0 0 1-4.87-7.65v-16.9a19.64 19.64 0 0 0 16-19.13V6.61A6.61 6.61 0 0 0 37.94 0h-2a3.4 3.4 0 0 0-3.39 3.39 3.34 3.34 0 0 0 3.39 3.39h1.83v5.93a12.61 12.61 0 0 1-25.22 0V6.78h1.83a3.4 3.4 0 0 0 3.39-3.39A3.34 3.34 0 0 0 14.38 0h-2a6.61 6.61 0 0 0-6.61 6.61v6.11a19.47 19.47 0 0 0 16 19v16.71a16.11 16.11 0 0 0 4 10.7 15.29 15.29 0 0 0 21.3 1l2.09-1.83a7.48 7.48 0 0 0 3.39-.17A7.8 7.8 0 0 0 58.12 52a7.57 7.57 0 0 0-2.26-6.78zm-5 7.75a2.29 2.29 0 1 1 2.29-2.29A2.29 2.29 0 0 1 50.82 53z" fill="#e2001a" data-name="Vet"/></svg><svg viewBox="-12.8 -12.8 89.6 89.6" width="70" height="70" id="vet--white" x="770" y="70" xmlns="http://www.w3.org/2000/svg"><title>vet</title><path d="M55.86 45.22a7.69 7.69 0 0 0-12.87 4 8.34 8.34 0 0 0 .61 5l-.78.7a8.57 8.57 0 0 1-9.39 1.48 8.3 8.3 0 0 1-4.87-7.65v-16.9a19.64 19.64 0 0 0 16-19.13V6.61A6.61 6.61 0 0 0 37.94 0h-2a3.4 3.4 0 0 0-3.39 3.39 3.34 3.34 0 0 0 3.39 3.39h1.83v5.93a12.61 12.61 0 0 1-25.22 0V6.78h1.83a3.4 3.4 0 0 0 3.39-3.39A3.34 3.34 0 0 0 14.38 0h-2a6.61 6.61 0 0 0-6.61 6.61v6.11a19.47 19.47 0 0 0 16 19v16.71a16.11 16.11 0 0 0 4 10.7 15.29 15.29 0 0 0 21.3 1l2.09-1.83a7.48 7.48 0 0 0 3.39-.17A7.8 7.8 0 0 0 58.12 52a7.57 7.57 0 0 0-2.26-6.78zm-5 7.75a2.29 2.29 0 1 1 2.29-2.29A2.29 2.29 0 0 1 50.82 53z" fill="#fff" data-name="Vet"/></svg><svg viewBox="-12.8 -12.8 89.6 89.6" width="70" height="70" id="vet-v2--black" x="770" y="140" xmlns="http://www.w3.org/2000/svg"><title>vet-v2</title><path d="M32 6.14l22.59 4.71v18.64c.1 1.14.71 18.51-22.59 28.05C8.72 48 9.31 30.66 9.38 29.49V10.85zM32 0L3.24 6v23S1.15 52.67 32 64c30.85-11.33 28.77-35 28.77-35V6zm13.89 26.54H35.6v-10h-7.2v10H18.11v7H28.4v10h7.2v-10h10.29z"/></svg><svg viewBox="-12.8 -12.8 89.6 89.6" width="70" height="70" id="vet-v2--red" x="770" y="210" xmlns="http://www.w3.org/2000/svg"><title>vet-v2</title><path d="M32 6.14l22.59 4.71v18.64c.1 1.14.71 18.51-22.59 28.05C8.72 48 9.31 30.66 9.38 29.49V10.85zM32 0L3.24 6v23S1.15 52.67 32 64c30.85-11.33 28.77-35 28.77-35V6zm13.89 26.54H35.6v-10h-7.2v10H18.11v7H28.4v10h7.2v-10h10.29z" fill="#e2001a"/></svg><svg viewBox="-12.8 -12.8 89.6 89.6" width="70" height="70" id="vet-v2--white" x="770" y="280" xmlns="http://www.w3.org/2000/svg"><title>vet-v2</title><path d="M32 6.14l22.59 4.71v18.64c.1 1.14.71 18.51-22.59 28.05C8.72 48 9.31 30.66 9.38 29.49V10.85zM32 0L3.24 6v23S1.15 52.67 32 64c30.85-11.33 28.77-35 28.77-35V6zm13.89 26.54H35.6v-10h-7.2v10H18.11v7H28.4v10h7.2v-10h10.29z" fill="#fff"/></svg><svg viewBox="-12.8 -12.8 89.6 89.6" width="70" height="70" id="view--black" x="770" y="350" xmlns="http://www.w3.org/2000/svg"><title>view</title><path d="M63.57 30.72c-3.34-4-14.65-16.07-31.57-16.07S3.77 26.74.43 30.72a2.13 2.13 0 0 0 0 2.56C3.7 37.26 15.08 49.35 32 49.35s28.23-12.09 31.57-16.07a2.13 2.13 0 0 0 0-2.56M32 45.16A13.16 13.16 0 1 1 45.16 32 13.17 13.17 0 0 1 32 45.16m4.2-13.94a3.31 3.31 0 0 1-3.27-3.27 3.16 3.16 0 0 1 2.13-3.06 7.38 7.38 0 0 0-3.06-.64 7.75 7.75 0 1 0 7.75 7.82 7.51 7.51 0 0 0-.57-2.85 3.11 3.11 0 0 1-3 2"/></svg><svg viewBox="-12.8 -12.8 89.6 89.6" width="70" height="70" id="view--red" x="770" y="420" xmlns="http://www.w3.org/2000/svg"><title>view</title><path d="M63.57 30.72c-3.34-4-14.65-16.07-31.57-16.07S3.77 26.74.43 30.72a2.13 2.13 0 0 0 0 2.56C3.7 37.26 15.08 49.35 32 49.35s28.23-12.09 31.57-16.07a2.13 2.13 0 0 0 0-2.56M32 45.16A13.16 13.16 0 1 1 45.16 32 13.17 13.17 0 0 1 32 45.16m4.2-13.94a3.31 3.31 0 0 1-3.27-3.27 3.16 3.16 0 0 1 2.13-3.06 7.38 7.38 0 0 0-3.06-.64 7.75 7.75 0 1 0 7.75 7.82 7.51 7.51 0 0 0-.57-2.85 3.11 3.11 0 0 1-3 2" fill="#e2001a"/></svg><svg viewBox="-12.8 -12.8 89.6 89.6" width="70" height="70" id="view--white" x="770" y="490" xmlns="http://www.w3.org/2000/svg"><title>view</title><path d="M63.57 30.72c-3.34-4-14.65-16.07-31.57-16.07S3.77 26.74.43 30.72a2.13 2.13 0 0 0 0 2.56C3.7 37.26 15.08 49.35 32 49.35s28.23-12.09 31.57-16.07a2.13 2.13 0 0 0 0-2.56M32 45.16A13.16 13.16 0 1 1 45.16 32 13.17 13.17 0 0 1 32 45.16m4.2-13.94a3.31 3.31 0 0 1-3.27-3.27 3.16 3.16 0 0 1 2.13-3.06 7.38 7.38 0 0 0-3.06-.64 7.75 7.75 0 1 0 7.75 7.82 7.51 7.51 0 0 0-.57-2.85 3.11 3.11 0 0 1-3 2" fill="#fff"/></svg><svg viewBox="-12.8 -12.8 89.6 89.6" width="70" height="70" id="volume--black" x="770" y="560" xmlns="http://www.w3.org/2000/svg"><title>volume</title><path d="M30.73 13.54v36.9l-4.13-3.33-.25-.2a8 8 0 0 0-4.74-1.55H7V18.64h14.57a7.94 7.94 0 0 0 4.74-1.55l.24-.19 4.18-3.36M36.74 0a1 1 0 0 0-.59.2l-14 11.25a1 1 0 0 1-.59.19H1a1 1 0 0 0-1 1v38.73a1 1 0 0 0 1 1h20.57a1 1 0 0 1 .59.19l13.93 11.25a1 1 0 0 0 .59.2 1 1 0 0 0 1-1l.06-62a1 1 0 0 0-1-1m6 54.14a22.25 22.25 0 0 0 0-44.46 1 1 0 0 0-1 1v5a1 1 0 0 0 1 1 15.25 15.25 0 0 1 0 30.45 1 1 0 0 0-1 1v5a1 1 0 0 0 1 1m.1-11.46a10.83 10.83 0 0 0 0-21.54 1 1 0 0 0-1.12 1v5.06a1 1 0 0 0 .83 1 3.83 3.83 0 0 1 0 7.48 1 1 0 0 0-.83 1v5.06a1 1 0 0 0 1.12 1"/></svg><svg viewBox="-12.8 -12.8 89.6 89.6" width="70" height="70" id="volume--red" x="770" y="630" xmlns="http://www.w3.org/2000/svg"><title>volume</title><path d="M30.73 13.54v36.9l-4.13-3.33-.25-.2a8 8 0 0 0-4.74-1.55H7V18.64h14.57a7.94 7.94 0 0 0 4.74-1.55l.24-.19 4.18-3.36M36.74 0a1 1 0 0 0-.59.2l-14 11.25a1 1 0 0 1-.59.19H1a1 1 0 0 0-1 1v38.73a1 1 0 0 0 1 1h20.57a1 1 0 0 1 .59.19l13.93 11.25a1 1 0 0 0 .59.2 1 1 0 0 0 1-1l.06-62a1 1 0 0 0-1-1m6 54.14a22.25 22.25 0 0 0 0-44.46 1 1 0 0 0-1 1v5a1 1 0 0 0 1 1 15.25 15.25 0 0 1 0 30.45 1 1 0 0 0-1 1v5a1 1 0 0 0 1 1m.1-11.46a10.83 10.83 0 0 0 0-21.54 1 1 0 0 0-1.12 1v5.06a1 1 0 0 0 .83 1 3.83 3.83 0 0 1 0 7.48 1 1 0 0 0-.83 1v5.06a1 1 0 0 0 1.12 1" fill="#e2001a"/></svg><svg viewBox="-12.8 -12.8 89.6 89.6" width="70" height="70" id="volume--white" x="770" y="700" xmlns="http://www.w3.org/2000/svg"><title>volume</title><path d="M30.73 13.54v36.9l-4.13-3.33-.25-.2a8 8 0 0 0-4.74-1.55H7V18.64h14.57a7.94 7.94 0 0 0 4.74-1.55l.24-.19 4.18-3.36M36.74 0a1 1 0 0 0-.59.2l-14 11.25a1 1 0 0 1-.59.19H1a1 1 0 0 0-1 1v38.73a1 1 0 0 0 1 1h20.57a1 1 0 0 1 .59.19l13.93 11.25a1 1 0 0 0 .59.2 1 1 0 0 0 1-1l.06-62a1 1 0 0 0-1-1m6 54.14a22.25 22.25 0 0 0 0-44.46 1 1 0 0 0-1 1v5a1 1 0 0 0 1 1 15.25 15.25 0 0 1 0 30.45 1 1 0 0 0-1 1v5a1 1 0 0 0 1 1m.1-11.46a10.83 10.83 0 0 0 0-21.54 1 1 0 0 0-1.12 1v5.06a1 1 0 0 0 .83 1 3.83 3.83 0 0 1 0 7.48 1 1 0 0 0-.83 1v5.06a1 1 0 0 0 1.12 1" fill="#fff"/></svg><svg viewBox="-12.8 -12.8 89.6 89.6" width="70" height="70" id="youtube--black" y="770" xmlns="http://www.w3.org/2000/svg"><title>youtube</title><path d="M25.79 40.86v-17L42 32.38zm35.7-20s-.59-4.18-2.39-6a8.56 8.56 0 0 0-6-2.57c-8.46-.6-21.1-.6-21.1-.6s-12.63 0-21.05.61a8.57 8.57 0 0 0-6 2.57c-1.8 1.84-2.39 6-2.39 6a92.32 92.32 0 0 0-.6 9.81v4.6a92.27 92.27 0 0 0 .6 9.81s.59 4.18 2.39 6c2.29 2.41 5.3 2.34 6.64 2.59 4.81.47 20.46.61 20.46.61s12.64 0 21.07-.63a8.58 8.58 0 0 0 6-2.57c1.8-1.84 2.39-6 2.39-6a92.27 92.27 0 0 0 .6-9.81v-4.6a92.32 92.32 0 0 0-.6-9.81z" data-name="Play"/></svg><svg viewBox="-12.8 -12.8 89.6 89.6" width="70" height="70" id="youtube--red" x="70" y="770" xmlns="http://www.w3.org/2000/svg"><title>youtube</title><path d="M25.79 40.86v-17L42 32.38zm35.7-20s-.59-4.18-2.39-6a8.56 8.56 0 0 0-6-2.57c-8.46-.6-21.1-.6-21.1-.6s-12.63 0-21.05.61a8.57 8.57 0 0 0-6 2.57c-1.8 1.84-2.39 6-2.39 6a92.32 92.32 0 0 0-.6 9.81v4.6a92.27 92.27 0 0 0 .6 9.81s.59 4.18 2.39 6c2.29 2.41 5.3 2.34 6.64 2.59 4.81.47 20.46.61 20.46.61s12.64 0 21.07-.63a8.58 8.58 0 0 0 6-2.57c1.8-1.84 2.39-6 2.39-6a92.27 92.27 0 0 0 .6-9.81v-4.6a92.32 92.32 0 0 0-.6-9.81z" fill="#e2001a" data-name="Play"/></svg><svg viewBox="-12.8 -12.8 89.6 89.6" width="70" height="70" id="youtube--white" x="140" y="770" xmlns="http://www.w3.org/2000/svg"><title>youtube</title><path d="M25.79 40.86v-17L42 32.38zm35.7-20s-.59-4.18-2.39-6a8.56 8.56 0 0 0-6-2.57c-8.46-.6-21.1-.6-21.1-.6s-12.63 0-21.05.61a8.57 8.57 0 0 0-6 2.57c-1.8 1.84-2.39 6-2.39 6a92.32 92.32 0 0 0-.6 9.81v4.6a92.27 92.27 0 0 0 .6 9.81s.59 4.18 2.39 6c2.29 2.41 5.3 2.34 6.64 2.59 4.81.47 20.46.61 20.46.61s12.64 0 21.07-.63a8.58 8.58 0 0 0 6-2.57c1.8-1.84 2.39-6 2.39-6a92.27 92.27 0 0 0 .6-9.81v-4.6a92.32 92.32 0 0 0-.6-9.81z" fill="#fff" data-name="Play"/></svg></svg>