<?xml version="1.0" encoding="utf-8"?>
<!-- Generator: Adobe Illustrator 21.1.0, SVG Export Plug-In . SVG Version: 6.00 Build 0)  -->
<svg version="1.1" id="Layer_1" xmlns="http://www.w3.org/2000/svg" xmlns:xlink="http://www.w3.org/1999/xlink" x="0px" y="0px"
	 viewBox="0 0 64 64" style="enable-background:new 0 0 64 64;" xml:space="preserve">
<path style="fill-rule:evenodd;clip-rule:evenodd;fill:#02AD0A;" d="M62.7,15.9L31.7,56c-0.5,0.6-1,1.1-1.6,1.5c0,0,0,0,0,0
	c-0.1,0-0.1,0.1-0.2,0.1c-1,0.6-2.1,0.9-3.2,0.9c-1.4,0-2.8-0.4-4-1.3c0,0,0,0,0,0L2.5,41.8c-2.8-2.2-3.4-6.3-1.2-9.1
	c2.2-2.8,6.3-3.4,9.1-1.2l15,11.5l27-35c2.2-2.8,6.3-3.4,9.1-1.2C64.3,9,64.8,13,62.7,15.9"/>
</svg>
