<svg xmlns="http://www.w3.org/2000/svg" viewBox="0 0 64 64"><title>comment</title><g id="Comment"><path d="M32,10.43c14.89,0,27,8.45,27,18.87S46.89,48.18,32,48.18a37.65,37.65,0,0,1-8.49-1c-2.29,2.3-7.69,6.35-11.73,6.35,4-4,2.47-10,1-11C8,39.12,5,34.45,5,29.3,5,18.88,17.11,10.43,32,10.43m0-5a38.52,38.52,0,0,0-22,6.44C3.57,16.37,0,22.57,0,29.3c0,6.41,3.25,12.36,9.16,16.83A4,4,0,0,1,8.22,50a5,5,0,0,0,3.56,8.6c5.16,0,10.4-3.64,13.21-6a43.29,43.29,0,0,0,7,.57,38.51,38.51,0,0,0,22-6.44C60.43,42.24,64,36,64,29.3S60.43,16.37,54,11.83A38.51,38.51,0,0,0,32,5.39" style="fill:#E2001A;fill:#E2001A"/></g></svg>