<svg xmlns="http://www.w3.org/2000/svg" viewBox="0 0 64 64"><title>female</title><g id="Female"><path d="M59,7.91v0a3.67,3.67,0,0,0-.19-.64l0,0a3.69,3.69,0,0,0-.32-.6l0,0a3.72,3.72,0,0,0-1-1l0,0a3.69,3.69,0,0,0-.6-.32l0,0A3.66,3.66,0,0,0,56.13,5h0a3.71,3.71,0,0,0-.68-.07H39.82a3.7,3.7,0,1,0,0,7.4h6.66l-9.8,9.8a20.3,20.3,0,1,0,5.23,5.23l9.8-9.8v6.66a3.7,3.7,0,1,0,7.4,0V8.59A3.71,3.71,0,0,0,59,7.91Zm-24.75,40a12.89,12.89,0,1,1,0-18.23A12.81,12.81,0,0,1,34.3,47.93Z" style="fill:#E2001A"/></g></svg>