<svg xmlns="http://www.w3.org/2000/svg" viewBox="0 0 64 64"><title>groomer</title><g id="Groomer"><path d="M58.72,19.56,27.24,61C24,65.28,16.19,65,10,60.23h0A16.27,16.27,0,0,1,3.82,47.29L18.08,58.13l1.42-1.87L21.22,54,9.32,45a2.77,2.77,0,0,1-.78-3.83,2.77,2.77,0,0,1,3.9-.28l11.9,9,3.4-4.48L16,36.47a2.77,2.77,0,0,1-.78-3.83,2.77,2.77,0,0,1,3.9-.28l11.78,9,3.4-4.48L22.6,28a2.77,2.77,0,0,1-.78-3.83,2.77,2.77,0,0,1,3.9-.28l11.67,8.87,3.4-4.48L29.24,19.48a2.77,2.77,0,0,1-.78-3.83,2.77,2.77,0,0,1,3.9-.28l11.55,8.78,3.4-4.48L35.88,11a2.77,2.77,0,0,1-.78-3.83A2.77,2.77,0,0,1,39,6.88l11.44,8.7,3.11-4.08L39.27.65A16.27,16.27,0,0,1,53.39,3.12h0C59.6,7.85,62,15.24,58.72,19.56Z" style="fill:#000"/></g></svg>