<svg xmlns="http://www.w3.org/2000/svg" viewBox="0 0 64 64"><title>instagram</title><g id="Play-2" data-name="Play"><g id="Icons"><g id="Black"><path id="Instagram" d="M32,0c-8.69,0-9.78,0-13.19.19A23.48,23.48,0,0,0,11,1.68,15.69,15.69,0,0,0,5.37,5.37,15.69,15.69,0,0,0,1.68,11,23.48,23.48,0,0,0,.19,18.81C0,22.22,0,23.31,0,32s0,9.78.19,13.19A23.48,23.48,0,0,0,1.68,53a15.69,15.69,0,0,0,3.69,5.67A15.69,15.69,0,0,0,11,62.32a23.49,23.49,0,0,0,7.77,1.49C22.22,64,23.31,64,32,64s9.78,0,13.19-.19A23.49,23.49,0,0,0,53,62.32,16.36,16.36,0,0,0,62.32,53a23.49,23.49,0,0,0,1.49-7.77C64,41.78,64,40.69,64,32s0-9.78-.19-13.19A23.49,23.49,0,0,0,62.32,11a15.69,15.69,0,0,0-3.69-5.67A15.68,15.68,0,0,0,53,1.68,23.48,23.48,0,0,0,45.19.19C41.78,0,40.69,0,32,0Zm0,5.77c8.54,0,9.56,0,12.93.19a17.7,17.7,0,0,1,5.94,1.1,9.91,9.91,0,0,1,3.68,2.39,9.91,9.91,0,0,1,2.39,3.68A17.7,17.7,0,0,1,58,19.07c.15,3.37.19,4.39.19,12.93s0,9.56-.19,12.93a17.7,17.7,0,0,1-1.1,5.94,10.6,10.6,0,0,1-6.07,6.07A17.7,17.7,0,0,1,44.93,58c-3.37.15-4.39.19-12.93.19s-9.56,0-12.93-.19a17.7,17.7,0,0,1-5.94-1.1,9.91,9.91,0,0,1-3.68-2.39,9.91,9.91,0,0,1-2.39-3.68A17.7,17.7,0,0,1,6,44.93C5.8,41.56,5.77,40.54,5.77,32s0-9.56.19-12.93a17.7,17.7,0,0,1,1.1-5.94A9.91,9.91,0,0,1,9.45,9.45a9.91,9.91,0,0,1,3.68-2.39A17.7,17.7,0,0,1,19.07,6C22.44,5.8,23.46,5.77,32,5.77Zm0,9.8A16.43,16.43,0,1,0,48.43,32,16.43,16.43,0,0,0,32,15.57Zm0,27.1A10.67,10.67,0,1,1,42.67,32,10.67,10.67,0,0,1,32,42.67ZM52.92,14.92a3.84,3.84,0,1,1-3.84-3.84A3.84,3.84,0,0,1,52.92,14.92Z" style="fill:#fff"/></g></g></g></svg>