<svg xmlns="http://www.w3.org/2000/svg" viewBox="0 0 64 64"><title>partner</title><g id="Partner"><path d="M52.62,20a4.84,4.84,0,0,0-2-8.23A4.84,4.84,0,0,0,44,6.44,4.84,4.84,0,0,0,36.78,2,4.85,4.85,0,0,0,28.37,3a4.84,4.84,0,0,0-8.23,2,4.84,4.84,0,0,0-5.29,6.61,4.84,4.84,0,0,0-4.4,7.23,4.84,4.84,0,0,0,.93,8.41,4.84,4.84,0,0,0,2,8.23A4.84,4.84,0,0,0,20,40.74a4.78,4.78,0,0,0,3.83,4.92V63.77a.23.23,0,0,0,.42.12l7.57-12.25a.23.23,0,0,1,.38,0l7.57,12.25a.23.23,0,0,0,.42-.12V45.66a4.82,4.82,0,0,0,3.68-3.45,4.84,4.84,0,0,0,5.29-6.61,4.84,4.84,0,0,0,4.4-7.23A4.84,4.84,0,0,0,52.62,20ZM32,42.39a18.8,18.8,0,1,1,18.8-18.8A18.8,18.8,0,0,1,32,42.39Zm15.44-18.8A15.44,15.44,0,1,1,32,8.14,15.44,15.44,0,0,1,47.44,23.59Z" style="fill:#fff;fill:#fff"/></g></svg>