<svg xmlns="http://www.w3.org/2000/svg" viewBox="0 0 64 64"><title>pintrest</title><g id="Layer_40" data-name="Layer 40"><path d="M33.5,0C16,0,7.23,12.52,7.23,23c0,6.32,2.39,11.95,7.53,14a1.27,1.27,0,0,0,1.84-.92c.17-.65.57-2.27.75-3a1.78,1.78,0,0,0-.53-2,10.6,10.6,0,0,1-2.43-7.21c0-9.29,7-17.61,18.1-17.61,9.87,0,15.3,6,15.3,14.09,0,10.6-4.69,19.55-11.65,19.55a5.69,5.69,0,0,1-5.8-7.08c1.1-4.66,3.25-9.68,3.25-13,0-3-1.62-5.52-5-5.52-3.93,0-7.09,4.07-7.09,9.52a14.14,14.14,0,0,0,1.17,5.82L18,49.63c-1.4,5.95-.21,13.23-.11,14a.49.49,0,0,0,.87.21c.36-.47,5-6.25,6.64-12,.45-1.64,2.59-10.1,2.59-10.1,1.28,2.44,5,4.58,9,4.58,11.82,0,19.83-10.77,19.83-25.19C56.77,10.16,47.54,0,33.5,0Z" style="fill:#fff"/></g></svg>