<?xml version="1.0" encoding="utf-8"?>
<!-- Generator: Adobe Illustrator 21.1.0, SVG Export Plug-In . SVG Version: 6.00 Build 0)  -->
<svg version="1.1" id="Layer_1" xmlns="http://www.w3.org/2000/svg" xmlns:xlink="http://www.w3.org/1999/xlink" x="0px" y="0px"
	 viewBox="0 0 199.7 86.1" style="enable-background:new 0 0 199.7 86.1;" xml:space="preserve">
<style type="text/css">
	.st0{fill:#E2001A;}
	.st1{fill-rule:evenodd;clip-rule:evenodd;fill:#E2001A;}
</style>
<path class="st0" d="M73.9,35.7c-0.7,0-1.3-0.3-1.7-0.9c-0.7-0.9-0.5-2.3,0.4-3C78.3,27.6,87,25,95.9,25l0,0
	c8.9,0,17.5,2.5,23.2,6.8c1,0.7,1.1,2,0.4,3c-0.7,0.9-2,1.1-3,0.4c-3.8-2.9-11.3-5.9-20.7-5.9l0,0c-9.4,0-16.9,3.1-20.7,5.9
	C74.8,35.5,74.3,35.7,73.9,35.7z M75.8,39.3c0.3,0,0.7-0.1,0.9-0.3c4.3-3.6,11.7-5.8,19.1-5.8c7.5,0,14.6,2.2,19,5.8
	c0.6,0.5,1.5,0.4,2.1-0.2c0.5-0.6,0.4-1.5-0.2-2.1c-4.9-4-12.7-6.5-20.9-6.5s-16,2.4-21,6.5c-0.6,0.5-0.7,1.4-0.2,2.1
	C75,39.2,75.4,39.3,75.8,39.3z M64.4,8.5c-0.9,0-1.7,0.2-2.5,0.7c-1.1,0.7-1.9,1.7-2.3,3c-0.3,1.3-0.1,2.6,0.5,3.7
	c0.9,1.5,2.5,2.4,4.2,2.4l0,0c0.9,0,1.7-0.2,2.5-0.7c1.1-0.7,1.9-1.7,2.3-3c0.3-1.3,0.1-2.6-0.5-3.7C67.7,9.4,66.1,8.5,64.4,8.5z
	 M95.8,12.3c-2.7,0-4.9,2.2-4.9,4.9s2.2,4.9,4.9,4.9c2.7,0,4.9-2.2,4.9-4.9C100.7,14.5,98.5,12.3,95.8,12.3z M95.8,0
	c-2.7,0-4.9,2.2-4.9,4.9s2.2,4.9,4.9,4.9c2.7,0,4.9-2.2,4.9-4.9C100.7,2.2,98.5,0,95.8,0z M82.8,14c-0.4,0-0.9,0.1-1.3,0.2
	c-2.6,0.7-4.2,3.4-3.4,6c0.6,2.1,2.5,3.6,4.7,3.6h0.1c0.4,0,0.8-0.1,1.2-0.2c1.3-0.3,2.3-1.2,3-2.3c0.6-1.1,0.8-2.5,0.5-3.7
	C86.9,15.5,85,14,82.8,14z M70.6,19.1c-0.9,0-1.7,0.2-2.5,0.7c-1.1,0.7-1.9,1.7-2.3,3c-0.3,1.3-0.1,2.6,0.5,3.7
	c0.9,1.5,2.5,2.4,4.2,2.4l0,0c0.9,0,1.7-0.2,2.5-0.7c1.1-0.7,1.9-1.7,2.3-3c0.3-1.3,0.1-2.6-0.5-3.7C74,20,72.4,19.1,70.6,19.1z
	 M110.2,14.2c-0.4-0.1-0.9-0.2-1.3-0.2c-2.2,0-4.2,1.5-4.7,3.6c-0.7,2.6,0.8,5.3,3.4,6c0.4,0.1,0.9,0.2,1.3,0.2
	c2.2,0,4.2-1.5,4.7-3.6C114.4,17.6,112.8,14.9,110.2,14.2z M113.4,2.3c-0.4-0.1-0.9-0.2-1.3-0.2c-2.2,0-4.1,1.5-4.7,3.6
	c-0.7,2.6,0.8,5.3,3.4,6c0.4,0.1,0.9,0.2,1.3,0.2c2.2,0,4.2-1.5,4.7-3.6C117.6,5.7,116.1,3,113.4,2.3z M123.5,19.8
	c-0.8-0.4-1.6-0.7-2.5-0.7c-1.7,0-3.4,0.9-4.2,2.4c-0.7,1.1-0.9,2.4-0.5,3.7c0.3,1.3,1.1,2.3,2.3,3c0.8,0.4,1.6,0.7,2.5,0.7
	c1.7,0,3.3-0.9,4.2-2.4c0.7-1.1,0.9-2.5,0.5-3.7C125.5,21.5,124.7,20.4,123.5,19.8z M132.1,12.2c-0.3-1.3-1.1-2.3-2.3-3
	c-0.8-0.4-1.6-0.7-2.5-0.7c-1.7,0-3.3,0.9-4.2,2.4c-0.7,1.1-0.9,2.5-0.5,3.7c0.3,1.3,1.1,2.3,2.3,3c0.8,0.4,1.6,0.7,2.5,0.7
	c1.7,0,3.4-0.9,4.2-2.4C132.2,14.8,132.4,13.5,132.1,12.2z M79.5,12c0.4,0,0.9-0.1,1.3-0.2c2.6-0.7,4.1-3.4,3.4-6
	c-0.6-2.1-2.5-3.6-4.7-3.6c-0.4,0-0.9,0.1-1.3,0.2c-2.6,0.7-4.2,3.4-3.4,6C75.4,10.5,77.3,11.9,79.5,12L79.5,12z M163.6,66.8
	c0,1.6,1.3,2.8,2.8,2.8c1.6,0,2.8-1.3,2.8-2.8V47.1c0-1.6-1.3-2.8-2.8-2.8c-1.6,0-2.8,1.3-2.8,2.8V66.8z M82.6,64.1
	c-0.2,0-0.3-0.1-0.3-0.3V47.5c0-1.5-1.2-2.8-2.8-2.8c-1.5,0-2.8,1.2-2.8,2.8v20.3c0,0.9,0.7,1.5,1.5,1.5h9.7c1.4,0,2.6-1.2,2.6-2.6
	s-1.2-2.6-2.6-2.6L82.6,64.1z M148.5,46.7L148.5,46.7c-0.6-1.2-1.8-1.8-3.3-1.8c-1.9,0-3.5,1.6-3.5,3.5V67c0,1.5,1.2,2.6,2.7,2.6
	s2.7-1.2,2.7-2.6V55.6c0-0.1,0.1-0.2,0.2-0.2l0.1,0.1l6.8,12c0.6,1.1,1.7,1.8,3,1.8c1.9,0,3.5-1.6,3.5-3.5v-19
	c0-1.5-1.2-2.6-2.6-2.6c-1.5,0-2.6,1.2-2.6,2.6v11.4l-0.2,0.2l-0.1-0.1L148.5,46.7z M179,46.7L179,46.7c-0.6-1.2-1.8-1.8-3.3-1.8
	c-1.9,0-3.5,1.6-3.5,3.5v18.7c0,1.5,1.2,2.6,2.7,2.6s2.7-1.2,2.7-2.6V55.7c0-0.1,0.1-0.2,0.2-0.2l0.1,0.1l6.8,12
	c0.6,1.1,1.7,1.8,3,1.8c1.9,0,3.5-1.6,3.5-3.5v-19c0-1.5-1.2-2.6-2.6-2.6c-1.5,0-2.6,1.2-2.6,2.6v11.4l-0.2,0.2l-0.1-0.1L179,46.7z
	 M49.8,52.2c-0.1,0-0.2,0-0.3-0.1l-6.1-6.4c-0.5-0.5-1.1-0.8-1.9-0.8c-1.4,0-2.6,1.2-2.6,2.6c0,0.7,0.3,1.3,0.7,1.7l7.4,8.5l0.1,9
	c0,1.4,1.2,2.6,2.6,2.6c1.4,0,2.6-1.2,2.6-2.6l0.1-9l7.4-8.5c0.4-0.5,0.7-1.1,0.7-1.7c0-1.4-1.2-2.6-2.6-2.6c-0.7,0-1.4,0.3-1.9,0.8
	l-6,6.4C50,52.2,49.9,52.2,49.8,52.2z M29,50.6c3.6,0,6.6,2.9,6.6,6.6c0,3.6-2.9,6.6-6.6,6.6c-3.6,0-6.6-2.9-6.6-6.6
	C22.4,53.6,25.4,50.6,29,50.6z M41.2,57.2C41.2,50.4,35.8,45,29,45s-12.2,5.5-12.2,12.2c0,6.8,5.5,12.2,12.2,12.2
	C35.8,69.4,41.2,64,41.2,57.2z M128.8,58.8L128.8,58.8c0,0.2-0.1,0.3-0.2,0.3h-2.5v-4L128.8,58.8z M125.5,45.7c-0.5-0.6-1.3-1-2.1-1
	c-1.5,0-2.8,0.8-2.8,2.3v19.6c0,1.5,1.2,2.7,2.7,2.7s2.8-1.2,2.8-2.7v-2.2h6.7l2.8,3.8c0.5,0.6,1.2,1.1,2.1,1.1
	c1.5,0,2.6-1.2,2.6-2.6c0-0.6-0.2-1.1-0.5-1.6L125.5,45.7z M67.9,55.1v4h-2.5c-0.1,0-0.2-0.1-0.2-0.2v-0.1L67.9,55.1z M54.1,65.1
	c-0.3,0.4-0.5,1-0.5,1.6c0,1.5,1.2,2.6,2.6,2.6c0.9,0,1.6-0.4,2.1-1.1l2.8-3.8h6.7v2.2c0,1.5,1.3,2.7,2.8,2.7s2.7-1.2,2.7-2.7V47.5
	c0-1.5-1.3-2.8-2.8-2.8c-0.8,0-1.6,0.4-2.1,1L54.1,65.1z M97.9,57.3c0,7.6,6.4,12.2,11.5,12.2c3.5,0,7.2-1.5,9.2-3.9
	c0.4-0.5,0.6-1,0.6-1.7c0-1.4-1.2-2.6-2.6-2.6c-0.4,0-0.8,0.1-1.2,0.3l-2.1,1.4c-1,0.7-2.2,1-3.5,1c-3.6,0-6.5-3-6.5-6.7
	s2.9-6.7,6.5-6.7c1.3,0,2.5,0.4,3.5,1l2.1,1.4c0.4,0.2,0.8,0.3,1.2,0.3c1.4,0,2.6-1.2,2.6-2.6c0-0.6-0.2-1.2-0.6-1.7
	c-2-2.4-5-3.8-8.5-3.8C103.3,45.1,97.9,50.6,97.9,57.3z M7.9,50.5c1.6,0,2.9,1.2,2.9,2.6c0,1.5-1.3,2.6-2.9,2.6S5,54.6,5,53.2
	C5,51.7,6.3,50.5,7.9,50.5z M0.4,66.8c0,1.4,1.2,2.6,2.6,2.6s2.6-1.2,2.6-2.6l0.1-6.5C5.7,60.2,5.8,60,6,60h0.1l6.4,8.7
	c0.4,0.4,1,0.7,1.7,0.7c1.4,0,2.6-1.1,2.6-2.5c0-0.4-0.1-0.8-0.3-1.1l-4-6.3c2-1,3.5-3.5,3.5-6.2c0-4.5-3.2-8-7.9-8.2
	c-2.6-0.2-4.5,0.8-6,2.1C0.5,48.7,0,50.9,0,53.3L0.4,66.8z M178.9,86v-6.8h1v5.9h3.3V86H178.9z M174.3,86h1v-6.8h-1V86z M168.6,80.8
	l-1.1,3h2.1L168.6,80.8z M170.4,86l-0.5-1.4h-2.7l-0.5,1.4h-1.1l2.5-6.8h0.8l2.5,6.8H170.4z M162.2,80.2V86h-1v-5.9h-1.9v-0.9h4.8
	v0.9L162.2,80.2L162.2,80.2z M152.3,86v-6.8h4.4v0.9h-3.3v2h2.8V83h-2.8v2.1h3.3V86H152.3z M147.9,82.6c0-0.9,0-1.6-0.4-2
	c-0.3-0.3-0.7-0.5-1.2-0.5H145v5h1.3c0.5,0,0.9-0.1,1.2-0.5C147.9,84.3,147.9,83.5,147.9,82.6z M148.9,82.6c0,1,0,2.1-0.7,2.8
	c-0.4,0.4-1.1,0.6-1.8,0.6H144v-6.8h2.4c0.7,0,1.3,0.2,1.8,0.6C149,80.6,148.9,81.6,148.9,82.6z M135.6,83.2V86h-1v-2.8l-2-4h1.1
	l1.4,3l1.4-3h1.1L135.6,83.2z M129,81.2c0-0.7-0.5-1.1-1.2-1.1h-1.5v2.1h1.5C128.6,82.3,129,81.9,129,81.2z M129.1,86l-1.4-2.9h-1.3
	V86h-1v-6.8h2.6c1.3,0,2.1,0.8,2.1,2c0,1-0.6,1.6-1.4,1.8l1.6,3H129.1z M117.7,86v-6.8h4.4v0.9h-3.3v2h2.8V83h-2.8v2.1h3.3V86H117.7
	z M112.7,86h-0.8l-2.2-6.8h1.1l1.6,5l1.6-5h1.1L112.7,86z M102.9,86v-6.8h4.4v0.9H104v2h2.8V83H104v2.1h3.3V86H102.9z M94.7,86
	l-3.2-4.8V86h-1v-6.8h0.9l3.2,4.8v-4.8h1V86H94.7z M85.9,86h1v-6.8h-1V86z M74.6,86v-6.8H79v0.9h-3.3v2h2.8V83h-2.8v2.1H79V86H74.6z
	 M67.3,86v-6.8h1v5.9h3.3V86H67.3z M62.9,84.1c0-0.6-0.4-1-1.1-1h-1.6v2.1h1.6C62.5,85.1,62.9,84.7,62.9,84.1z M62.8,81.1
	c0-0.6-0.4-1-1.1-1h-1.5v2h1.5C62.4,82.1,62.8,81.8,62.8,81.1z M63.9,84.1c0,1.3-0.9,1.9-2.1,1.9H59v-6.8h2.7c1.3,0,2.1,0.7,2.1,1.9
	c0,0.7-0.5,1.3-0.9,1.4C63.4,82.8,63.9,83.3,63.9,84.1z M54.5,86h1v-6.8h-1V86z M50.1,82.6c0-0.9,0-1.6-0.4-2
	c-0.3-0.3-0.7-0.5-1.2-0.5h-1.3v5h1.3c0.5,0,0.9-0.1,1.2-0.5C50.1,84.3,50.1,83.5,50.1,82.6z M51.1,82.6c0,1,0,2.1-0.7,2.8
	c-0.4,0.4-1,0.6-1.7,0.6h-2.4v-6.8h2.4c0.7,0,1.3,0.2,1.8,0.6C51.2,80.6,51.1,81.6,51.1,82.6z M38.7,86v-6.8h4.4v0.9h-3.3v2h2.8V83
	h-2.8v2.1h3.3V86H38.7z M34.3,81.2c0-0.7-0.5-1.1-1.2-1.1h-1.5v2.1h1.5C33.9,82.3,34.3,81.9,34.3,81.2z M34.4,86L33,83.1h-1.3V86h-1
	v-6.8h2.6c1.3,0,2.1,0.8,2.1,2c0,1-0.6,1.6-1.4,1.8l1.6,3H34.4z M27.4,85.3c-0.5,0.5-1.1,0.8-1.9,0.8c-0.7,0-1.3-0.3-1.8-0.7
	C23,84.7,23,84,23,82.6c0-1.3,0-2.1,0.7-2.7c0.5-0.5,1.1-0.7,1.8-0.7c0.9,0,1.4,0.3,1.9,0.8l-0.7,0.7c-0.4-0.4-0.6-0.6-1.2-0.6
	c-0.4,0-0.8,0.2-1,0.4c-0.3,0.4-0.4,0.8-0.4,2.1c0,1.4,0.1,1.8,0.4,2.1c0.2,0.3,0.6,0.4,1,0.4c0.6,0,0.9-0.2,1.2-0.6L27.4,85.3z
	 M18.7,86l-3.2-4.8V86h-1v-6.8h0.9l3.2,4.8v-4.8h1V86H18.7z M9.9,86h1v-6.8h-1V86z"/>
<path class="st1" d="M197,46.6c0.3,0,0.4-0.1,0.4-0.3c0-0.3-0.2-0.4-0.4-0.4h-0.6v0.7H197z M196.4,48.1c0,0.2-0.1,0.4-0.4,0.4
	c-0.3,0-0.3-0.1-0.3-0.4v-2.4c0-0.2,0.1-0.3,0.4-0.3h0.9c0.6,0,1.2,0.2,1.2,0.9c0,0.6-0.3,0.8-0.8,0.9l0.6,0.9l0,0.2
	c0,0.2-0.1,0.3-0.4,0.3c-0.2,0-0.3-0.2-0.4-0.4l-0.5-0.9h-0.2V48.1z M196.9,49c1.2,0,2.2-1,2.2-2.2c0-1.2-1-2.2-2.2-2.2
	c-1.2,0-2.2,1-2.2,2.2C194.7,48.1,195.7,49,196.9,49z M196.9,44c1.6,0,2.9,1.3,2.9,2.9c0,1.6-1.3,2.9-2.9,2.9
	c-1.6,0-2.9-1.3-2.9-2.9C194,45.3,195.3,44,196.9,44z"/>
</svg>
