<svg xmlns="http://www.w3.org/2000/svg" viewBox="0 0 64 64"><title>twitter</title><g id="Play-2" data-name="Play"><g id="Icons"><g id="Black"><path id="Twitter" d="M64,11.65a25.65,25.65,0,0,1-7.54,2.12,13.43,13.43,0,0,0,5.77-7.45,25.86,25.86,0,0,1-8.34,3.26,13,13,0,0,0-9.58-4.25A13.3,13.3,0,0,0,31.18,18.8a13.74,13.74,0,0,0,.34,3.07A37,37,0,0,1,4.46,7.79a13.71,13.71,0,0,0-1.78,6.78A13.55,13.55,0,0,0,8.52,25.77a12.89,12.89,0,0,1-6-1.68v.17a13.39,13.39,0,0,0,10.54,13.2,12.52,12.52,0,0,1-3.46.47,12.75,12.75,0,0,1-2.47-.24A13.18,13.18,0,0,0,19.44,47,25.93,25.93,0,0,1,3.13,52.81,26.28,26.28,0,0,1,0,52.62a36.56,36.56,0,0,0,20.13,6c24.15,0,37.36-20.51,37.36-38.31,0-.59,0-1.17,0-1.75a27,27,0,0,0,6.55-7" style="fill:#fff"/></g></g></g></svg>