<svg xmlns="http://www.w3.org/2000/svg" viewBox="0 0 64 64"><title>user</title><g id="User"><path d="M42.79,35.51c3.7-3.57,6.05-10,6.05-16C48.85,8.71,44.08,0,32,0,19.6,0,15.15,8.71,15.15,19.46c0,6,2.36,12.48,6.05,16C10.39,39.17,2.74,47.05,2.74,57.58c0,.66,0,1.31,0,2,0,1.53,0,3,.12,4.46H61.14c.09-1.44.11-2.93.12-4.46,0-.65,0-1.3,0-2C61.26,47.05,53.61,39.17,42.79,35.51Zm-35.59,24c0-.64,0-1.29,0-2C7.2,49.68,13,43,22.64,39.73a4.46,4.46,0,0,0,1.67-7.44c-2.76-2.66-4.69-7.94-4.69-12.84,0-15,9.32-15,12.38-15,8.22,0,12.38,5,12.38,15,0,4.89-1.93,10.17-4.69,12.84a4.46,4.46,0,0,0,1.67,7.44C51,43,56.8,49.68,56.8,57.58c0,.66,0,1.31,0,2Z" style="fill:#fff"/></g></svg>