<svg xmlns="http://www.w3.org/2000/svg" viewBox="0 0 64 64"><title>youtube</title><g id="Play-2" data-name="Play"><g id="Icons"><g id="Black"><path id="Youtube" d="M25.79,40.86v-17L42,32.38Zm35.7-20s-.59-4.18-2.39-6a8.56,8.56,0,0,0-6-2.57C44.64,11.69,32,11.69,32,11.69h0s-12.63,0-21.05.61a8.57,8.57,0,0,0-6,2.57c-1.8,1.84-2.39,6-2.39,6a92.32,92.32,0,0,0-.6,9.81v4.6a92.27,92.27,0,0,0,.6,9.81s.59,4.18,2.39,6c2.29,2.41,5.3,2.34,6.64,2.59,4.81.47,20.46.61,20.46.61s12.64,0,21.07-.63a8.58,8.58,0,0,0,6-2.57c1.8-1.84,2.39-6,2.39-6a92.27,92.27,0,0,0,.6-9.81v-4.6a92.32,92.32,0,0,0-.6-9.81Z" style="fill:#E2001A"/></g></g></g></svg>