<svg id="Icons" xmlns="http://www.w3.org/2000/svg" viewBox="0 0 32 32"><title>basket--small</title><path id="Basket" d="M23.79,13.38A1,1,0,0,0,23,13H19.5L16.8,9.4a1,1,0,0,0-1.6,0L12.5,13H9a1,1,0,0,0-1,1.24l1.62,6.49A3,3,0,0,0,12.56,23h6.88a3,3,0,0,0,2.91-2.27L24,14.24A1,1,0,0,0,23.79,13.38ZM21.21,17A1,1,0,0,0,21,17H19.28l.5-2h1.94Zm-5.43,4-.5-2h1.44l-.5,2Zm-1-4-.5-2h3.44l-.5,2ZM16,11.67,17,13H15ZM12.22,15l.5,2H11a1,1,0,0,0-.21,0l-.51-2Zm-.63,5.24L11.28,19h1.94l.5,2H12.56A1,1,0,0,1,11.59,20.24Zm7.85.76H18.28l.5-2h1.94l-.31,1.24A1,1,0,0,1,19.44,21Z" style="fill:#444"/></svg>