<svg id="Icons" xmlns="http://www.w3.org/2000/svg" viewBox="0 0 32 32"><title>basket</title><g id="Online_Retailer" data-name="Online Retailer"><path d="M31.37,14.1a2.93,2.93,0,0,0-2.3-1.1H23.58L18.77,4.68a3.12,3.12,0,0,0-5.5-.06L8.42,13H2.93a2.93,2.93,0,0,0-2.3,1.1,2.84,2.84,0,0,0-.56,2.41l3,13.3A2.92,2.92,0,0,0,5.91,32H26.09a2.93,2.93,0,0,0,2.85-2.21l3-13.27A2.84,2.84,0,0,0,31.37,14.1ZM15,5.57A1.07,1.07,0,0,1,16,5a1.1,1.1,0,0,1,1,.62L21.27,13H10.73ZM2,16.07a.85.85,0,0,1,.17-.72A.94.94,0,0,1,2.93,15H7.11l.71,6H3.13ZM5.91,30a.92.92,0,0,1-.9-.65L3.58,23H8.05l.82,7ZM15,30H10.89l-.82-7H15Zm0-9H9.83l-.71-6H15Zm6.11,9H17V23h4.93Zm1.06-9H17V15h5.88ZM27,29.32a.92.92,0,0,1-.91.68h-3l.82-7h4.47Zm3-13.25L28.87,21H24.18l.71-6h4.18a.94.94,0,0,1,.74.35A.85.85,0,0,1,30,16.07Z" style="fill:#444"/></g></svg>