<svg id="Icons" xmlns="http://www.w3.org/2000/svg" viewBox="0 0 32 32"><title>food--2--small</title><path id="Food_2_" data-name="Food(2)" d="M22.92,8.62a1,1,0,0,0-1.63-.32L20,9.59,18.71,8.29a1,1,0,0,0-1.41,0L16,9.59,14.71,8.29a1,1,0,0,0-1.41,0L12,9.59,10.71,8.29A1,1,0,0,0,9,9V22a2,2,0,0,0,2,2H21a2,2,0,0,0,2-2V9A1,1,0,0,0,22.92,8.62ZM11,16H21v2H11Zm1.71-4.29L14,10.41l1.29,1.29a1,1,0,0,0,1.41,0L18,10.41l1.29,1.29a1,1,0,0,0,1.41,0l.29-.29V14H11V11.41l.29.29A1,1,0,0,0,12.71,11.71ZM11,22V20H21v2Z" style="fill:#444"/></svg>