<svg id="Icons" xmlns="http://www.w3.org/2000/svg" viewBox="0 0 32 32"><title>food</title><path id="Food" d="M31.5,24.41l-1.2-6A3,3,0,0,0,28,16.08V15a4,4,0,0,0-4-4l-1.14-.06a4,4,0,0,0-3-2.82A4,4,0,0,0,12.14,8H12a4,4,0,0,0-3.87,3H8a4,4,0,0,0-4,4v1.08a3,3,0,0,0-2.3,2.33l-1.2,6A3,3,0,0,0,3.44,28H28.56a3,3,0,0,0,2.94-3.59ZM8,13H9a1,1,0,0,0,1-1,2,2,0,0,1,4,0,1,1,0,0,0,2,0,4,4,0,0,0-2-3.42,2,2,0,0,1,3.78-.4,4,4,0,0,0-1.27.66,1,1,0,1,0,1.23,1.58A2,2,0,0,1,19,10a2,2,0,0,1,1.93,1.47A2,2,0,0,0,22.87,13H24a2,2,0,0,1,2,2v1H6V15A2,2,0,0,1,8,13ZM4.64,18H27.36a1,1,0,0,1,1,.8L29,22H3l.64-3.2A1,1,0,0,1,4.64,18Zm24.69,7.63a1,1,0,0,1-.77.37H3.44a1,1,0,0,1-1-1.2l.16-.8H29.38l.16.8A1,1,0,0,1,29.33,25.63Z" style="fill:#444"/></svg>