<svg id="Icons" xmlns="http://www.w3.org/2000/svg" viewBox="0 0 32 32"><title>food--2</title><path id="Food_2_" data-name="Food(2)" d="M26,8a1,1,0,0,0-.22-.59c0-.09-.06-.19-.1-.27L25.61,7,24,4.69V1A1,1,0,0,0,22.29.29L20.16,2.43l-1.32-2a1,1,0,0,0-1.66,0L16,2.2,14.83.45a1,1,0,0,0-1.66,0l-1.32,2L9.71.29A1,1,0,0,0,8,1V4.69L6.39,7l-.07.12A3,3,0,0,0,6,8.47V29a3,3,0,0,0,3,3H23a3,3,0,0,0,3-3V8.47a3,3,0,0,0,0-.3A1,1,0,0,0,26,8ZM9.82,5.57a.94.94,0,0,0,0-.09A1,1,0,0,0,10,5.1.93.93,0,0,0,10,5V3.41l1.29,1.29a1,1,0,0,0,1.54-.15L14,2.8l1.17,1.75a1,1,0,0,0,1.66,0L18,2.8l1.17,1.75a1,1,0,0,0,1.54.15L22,3.41V5a.93.93,0,0,0,0,.1,1,1,0,0,0,.12.38.93.93,0,0,0,0,.09l1,1.43H8.83ZM24,9V26H8V9ZM23,30H9a1,1,0,0,1-1-1V28H24v1A1,1,0,0,1,23,30Z" style="fill:#444"/></svg>