<svg id="Icons" xmlns="http://www.w3.org/2000/svg" viewBox="0 0 32 32"><title>groomer--small</title><path id="Groomer" d="M23.08,10.54l-.31-.31h0L21.13,8.59A1,1,0,0,0,19.71,10l1.64,1.64h0l.31.31a.88.88,0,0,1,0,1.24l-.78.78-2.81-2.81a1,1,0,0,0-1.41,1.41l2.81,2.81-1.4,1.4L15.26,14a1,1,0,0,0-1.41,1.41l2.81,2.81-1.4,1.4L12.45,16.8A1,1,0,0,0,11,18.21L13.84,21l-.78.78a.89.89,0,0,1-1.24,0l-.31-.31h0L9.63,19.61A1,1,0,0,0,8.22,21l1.88,1.88h0l.31.31a2.88,2.88,0,0,0,4.07,0L16,21.73h0l7.12-7.12A2.88,2.88,0,0,0,23.08,10.54Z" style="fill:#444"/></svg>