<svg id="Icons" xmlns="http://www.w3.org/2000/svg" viewBox="0 0 32 32"><title>groomer</title><path id="Groomer" d="M30.38,5l-.67-.67h0L26.21.79a1,1,0,0,0-1.41,1.41L27.59,5,26,6.59,22.71,3.29a1,1,0,0,0-1.41,1.41L24.59,8,23,9.59,19.71,6.29a1,1,0,0,0-1.41,1.41L21.59,11,20,12.59,16.71,9.29a1,1,0,0,0-1.41,1.41L18.59,14,17,15.59l-3.29-3.29a1,1,0,0,0-1.41,1.41L15.59,17,14,18.59l-3.29-3.29a1,1,0,0,0-1.41,1.41L12.59,20,11,21.59,7.71,18.29a1,1,0,0,0-1.41,1.41L9.59,23,8,24.59,4.71,21.29a1,1,0,0,0-1.41,1.41L6.59,26,5,27.59,1.71,24.29A1,1,0,0,0,.29,25.71l4,4h0l.67.67a5,5,0,0,0,7.07,0L30.38,12a5,5,0,0,0,0-7.07ZM29,10.62,10.62,29a3,3,0,0,1-4.2,0L29,6.42a3,3,0,0,1,0,4.2Z" style="fill:#444"/></svg>