<svg id="Icons" xmlns="http://www.w3.org/2000/svg" width="32" height="32" viewBox="0 0 32 32"><title>health-benefits</title><g id="Health_Benefits" data-name="Health Benefits"><path d="M31.84,6.84A8.51,8.51,0,0,0,16,4.5,8.5,8.5,0,0,0,.68,11.82a8.39,8.39,0,0,0,1.73,2.51l8.86,9.35a1,1,0,0,0,1.45-1.37L3.86,13A6.48,6.48,0,0,1,2.52,11a6.54,6.54,0,0,1-.4-3.81A6.46,6.46,0,0,1,7.21,2.12a6.55,6.55,0,0,1,5.43,1.37A6.48,6.48,0,0,1,15,8.5a1,1,0,0,0,2,0,6.49,6.49,0,0,1,2.36-5,6.56,6.56,0,0,1,5.43-1.37,6.46,6.46,0,0,1,5.09,5.09A6.54,6.54,0,0,1,29.5,11a6.4,6.4,0,0,1-1.34,1.93l-8.88,9.38a1,1,0,0,0,1.45,1.37l8.88-9.38a8.33,8.33,0,0,0,1.73-2.53A8.54,8.54,0,0,0,31.84,6.84Z" style="fill:#e2001a"/><path d="M23,30H17V16l2.4,1.8a1,1,0,0,0,1.2-1.6l-2.8-2.1a3,3,0,0,0-3.6,0l-2.8,2.1a1,1,0,1,0,1.2,1.6L15,16V30H9a1,1,0,0,0,0,2H23a1,1,0,0,0,0-2Z" style="fill:#e2001a"/></g></svg>