<svg id="Icons" xmlns="http://www.w3.org/2000/svg" viewBox="0 0 32 32"><title>health-benefits--small</title><g id="Health"><path d="M12.16,18a1,1,0,0,1-.72-.31L9.28,15.44a4.21,4.21,0,0,1-1.19-3.88,4.45,4.45,0,0,1,3.54-3.48,4.58,4.58,0,0,1,3.78,1,4.34,4.34,0,0,1,.59.59A4.34,4.34,0,0,1,16.59,9a4.58,4.58,0,0,1,3.78-1,4.45,4.45,0,0,1,3.54,3.46,4.2,4.2,0,0,1-1.19,3.89l-2.07,2.24a1,1,0,1,1-1.47-1.36l2.09-2.26a2.45,2.45,0,0,0,.53-.73A2.34,2.34,0,0,0,22,11.93,2.43,2.43,0,0,0,20,10a2.58,2.58,0,0,0-2.14.54A2.37,2.37,0,0,0,17,12.41a1,1,0,1,1-2,0,2.37,2.37,0,0,0-.87-1.83A2.58,2.58,0,0,0,12,10,2.46,2.46,0,0,0,10,11.94a2.34,2.34,0,0,0,.15,1.4,2.42,2.42,0,0,0,.51.71l2.17,2.26A1,1,0,0,1,12.16,18Z" style="fill:#444"/><path d="M20,22H17V19.41l.29.29a1,1,0,0,0,1.41-1.41l-2-2a1,1,0,0,0-1.42,0l-2,2a1,1,0,1,0,1.41,1.41l.29-.29V22H12a1,1,0,0,0,0,2h8a1,1,0,0,0,0-2Z" style="fill:#444"/></g></svg>