<svg id="Icons" xmlns="http://www.w3.org/2000/svg" viewBox="0 0 32 32"><title>health-benefits</title><g id="Health"><path d="M20,24a1,1,0,0,1-.73-1.69l8.88-9.38A6.4,6.4,0,0,0,29.5,11a6.54,6.54,0,0,0,.38-3.79,6.46,6.46,0,0,0-5.09-5.09,6.56,6.56,0,0,0-5.43,1.37A6.49,6.49,0,0,0,17,8.5a1,1,0,0,1-2,0,6.48,6.48,0,0,0-2.36-5A6.55,6.55,0,0,0,7.21,2.12,6.46,6.46,0,0,0,2.12,7.23,6.54,6.54,0,0,0,2.52,11,6.48,6.48,0,0,0,3.86,13l8.87,9.36a1,1,0,0,1-1.45,1.37L2.41,14.34A8.39,8.39,0,0,1,.68,11.82,8.5,8.5,0,0,1,16,4.5a8.5,8.5,0,0,1,15.34,7.29,8.33,8.33,0,0,1-1.73,2.53l-8.88,9.38A1,1,0,0,1,20,24Z" style="fill:#444"/><path d="M23,30H17V16l2.4,1.8a1,1,0,0,0,1.2-1.6l-2.8-2.1a3,3,0,0,0-3.6,0l-2.8,2.1a1,1,0,1,0,1.2,1.6L15,16V30H9a1,1,0,0,0,0,2H23a1,1,0,0,0,0-2Z" style="fill:#444"/></g></svg>