<svg id="Icons" xmlns="http://www.w3.org/2000/svg" viewBox="0 0 32 32"><title>home</title><g id="Home"><path d="M30.83,10.61,18.06.8a3.07,3.07,0,0,0-4.13,0L8,5.36V3A1,1,0,0,0,7,2H3A1,1,0,0,0,2,3v7l-.83.64A3,3,0,0,0,0,13V29.08A3,3,0,0,0,3,32H29a3,3,0,0,0,3-2.92V13A3,3,0,0,0,30.83,10.61ZM4,4H6V6.9L4,8.43ZM30,29.08A1,1,0,0,1,29,30H3a1,1,0,0,1-1-.92V13a1,1,0,0,1,.39-.79L15.2,2.36l.08-.07a1.06,1.06,0,0,1,1.44,0l.08.07,12.8,9.83A1,1,0,0,1,30,13Z" style="fill:#444"/><path d="M19,32a1,1,0,0,1-1-1V26a2,2,0,0,0-4,0v5a1,1,0,0,1-2,0V26a4,4,0,0,1,8,0v5A1,1,0,0,1,19,32Z" style="fill:#444"/><path d="M9,20H5a1,1,0,0,1-1-1V15a1,1,0,0,1,1-1H9a1,1,0,0,1,1,1v4A1,1,0,0,1,9,20ZM6,18H8V16H6Z" style="fill:#444"/><path d="M18,20H14a1,1,0,0,1-1-1V15a1,1,0,0,1,1-1h4a1,1,0,0,1,1,1v4A1,1,0,0,1,18,20Zm-3-2h2V16H15Z" style="fill:#444"/><path d="M27,20H23a1,1,0,0,1-1-1V15a1,1,0,0,1,1-1h4a1,1,0,0,1,1,1v4A1,1,0,0,1,27,20Zm-3-2h2V16H24Z" style="fill:#444"/><path d="M9,28H5a1,1,0,0,1-1-1V23a1,1,0,0,1,1-1H9a1,1,0,0,1,1,1v4A1,1,0,0,1,9,28ZM6,26H8V24H6Z" style="fill:#444"/><path d="M27,28H23a1,1,0,0,1-1-1V23a1,1,0,0,1,1-1h4a1,1,0,0,1,1,1v4A1,1,0,0,1,27,28Zm-3-2h2V24H24Z" style="fill:#444"/></g></svg>