<svg id="Icons" xmlns="http://www.w3.org/2000/svg" viewBox="0 0 32 32"><title>nutritional-philosophy</title><path id="Nutritional" d="M29,0H3A3,3,0,0,0,0,3V29a3,3,0,0,0,3,3H29a3,3,0,0,0,3-3V3A3,3,0,0,0,29,0Zm1,3V15H27.73a4.5,4.5,0,1,0-8.45,0H17V11a1,1,0,0,0-.31-.72v0a1,1,0,0,0-1.41,0,2.5,2.5,0,1,1,0-3.52,1,1,0,0,0,1.41,0A1,1,0,0,0,17,6s0,0,0,0V2H29A1,1,0,0,1,30,3ZM3,2H15V4.27a4.5,4.5,0,1,0,0,8.45V15H11a1,1,0,0,0-.72.31h0a1,1,0,0,0,0,1.41,2.5,2.5,0,1,1-3.52,0,1,1,0,0,0,0-1.41A1,1,0,0,0,6,15H2V3A1,1,0,0,1,3,2ZM2,29V17H4.27a4.5,4.5,0,1,0,8.45,0H15v4a1,1,0,0,0,.31.72v0a1,1,0,0,0,1.41,0,2.5,2.5,0,1,1,0,3.52,1,1,0,0,0-1.41,0A1,1,0,0,0,15,26s0,0,0,0v4H3A1,1,0,0,1,2,29Zm27,1H17V27.73a4.5,4.5,0,1,0,0-8.45V17h4a1,1,0,0,0,.72-.31h0a1,1,0,0,0,0-1.41,2.5,2.5,0,1,1,3.52,0,1,1,0,0,0,.7,1.71H30V29A1,1,0,0,1,29,30Z" style="fill:#444"/></svg>