<svg id="Icons" xmlns="http://www.w3.org/2000/svg" viewBox="0 0 32 32"><title>pharmacy</title><g id="Pharmacy"><path d="M19,32H13a3,3,0,0,1-3-3V23a1,1,0,0,0-1-1H3a3,3,0,0,1-3-3V13a3,3,0,0,1,3-3H9a1,1,0,0,0,1-1V3a3,3,0,0,1,3-3h6a3,3,0,0,1,3,3V9a1,1,0,0,0,1,1h6a3,3,0,0,1,3,3v6a3,3,0,0,1-3,3H23a1,1,0,0,0-1,1v6A3,3,0,0,1,19,32ZM3,12a1,1,0,0,0-1,1v6a1,1,0,0,0,1,1H9a3,3,0,0,1,3,3v6a1,1,0,0,0,1,1h6a1,1,0,0,0,1-1V23a3,3,0,0,1,3-3h6a1,1,0,0,0,1-1V13a1,1,0,0,0-1-1H23a3,3,0,0,1-3-3V3a1,1,0,0,0-1-1H13a1,1,0,0,0-1,1V9a3,3,0,0,1-3,3Z" style="fill:#444"/></g></svg>