<svg id="Icons" xmlns="http://www.w3.org/2000/svg" width="32" height="32" viewBox="0 0 32 32"><title>pharmacy</title><path id="Pharmacy" d="M29,10H23a1,1,0,0,1-1-1V3a3,3,0,0,0-3-3H13a3,3,0,0,0-3,3V9a1,1,0,0,1-1,1H3a3,3,0,0,0-3,3v6a3,3,0,0,0,3,3H9a1,1,0,0,1,1,1v6a3,3,0,0,0,3,3h6a3,3,0,0,0,3-3V23a1,1,0,0,1,1-1h6a3,3,0,0,0,3-3V13A3,3,0,0,0,29,10Zm1,9a1,1,0,0,1-1,1H23a3,3,0,0,0-3,3v6a1,1,0,0,1-1,1H13a1,1,0,0,1-1-1V23a3,3,0,0,0-3-3H3a1,1,0,0,1-1-1V13a1,1,0,0,1,1-1H9a3,3,0,0,0,3-3V3a1,1,0,0,1,1-1h6a1,1,0,0,1,1,1V9a3,3,0,0,0,3,3h6a1,1,0,0,1,1,1Z" style="fill:#e2001a"/></svg>