<svg id="Icons" xmlns="http://www.w3.org/2000/svg" width="32" height="32" viewBox="0 0 32 32"><title>shop</title><g id="Shop"><path d="M29,0H3A3,3,0,0,0,0,3V29a3,3,0,0,0,3,3H29a3,3,0,0,0,3-3V3A3,3,0,0,0,29,0ZM20,2h4v9a2,2,0,0,1-4,0ZM14,2h4v9a2,2,0,0,1-4,0ZM8,2h4v9a2,2,0,0,1-4,0ZM2,3A1,1,0,0,1,3,2H6v9a2,2,0,0,1-4,0ZM18,30H14V26a2,2,0,0,1,4,0Zm12-1a1,1,0,0,1-1,1H20V26a4,4,0,0,0-8,0v4H3a1,1,0,0,1-1-1V14.44a3.92,3.92,0,0,0,5-.83,3.95,3.95,0,0,0,6,0,3.95,3.95,0,0,0,6,0,3.95,3.95,0,0,0,6,0,3.92,3.92,0,0,0,5,.83Zm0-18a2,2,0,0,1-4,0V2h3a1,1,0,0,1,1,1Z" style="fill:#e2001a"/><path d="M9,21H5a1,1,0,0,0-1,1v4a1,1,0,0,0,1,1H9a1,1,0,0,0,1-1V22A1,1,0,0,0,9,21ZM8,25H6V23H8Z" style="fill:#e2001a"/><path d="M27,21H23a1,1,0,0,0-1,1v4a1,1,0,0,0,1,1h4a1,1,0,0,0,1-1V22A1,1,0,0,0,27,21Zm-1,4H24V23h2Z" style="fill:#e2001a"/><path d="M20,18H12a1,1,0,0,0,0,2h8a1,1,0,0,0,0-2Z" style="fill:#e2001a"/></g></svg>