<svg id="Icons" xmlns="http://www.w3.org/2000/svg" viewBox="0 0 32 32"><title>sustainable-development--small</title><path id="Sustainable_Development" data-name="Sustainable Development" d="M21,18a1,1,0,0,0-1,1,1,1,0,0,1-1,1H18a3,3,0,0,0-1,.18v-.76c.86-.86,3-3.23,3-5.42,0-2.58-3-5.42-3.32-5.73a1,1,0,0,0-1.36,0C15,8.58,12,11.42,12,14c0,2.19,2.14,4.56,3,5.42V23a1,1,0,1,0,2,0,1,1,0,0,1,1-1h1a3,3,0,0,0,3-3A1,1,0,0,0,21,18Zm-5-7.57c1,1,2,2.54,2,3.57s-1,2.53-2,3.57c-1-1-2-2.54-2-3.57S15,11.47,16,10.43Z" style="fill:#444"/></svg>