<svg id="Icons" xmlns="http://www.w3.org/2000/svg" width="32" height="32" viewBox="0 0 32 32"><title>vet</title><g id="Vet"><path d="M28,22a4,4,0,1,0-5,3.85,4.49,4.49,0,0,1-9-.35V19h.13A9.67,9.67,0,0,0,23,9.21V3a3,3,0,0,0-3-3,1,1,0,0,0,0,2,1,1,0,0,1,1,1V9.21A7.67,7.67,0,0,1,14,17,7.5,7.5,0,0,1,6,9.5V3A1,1,0,0,1,7,2,1,1,0,0,0,7,0,3,3,0,0,0,4,3V9.5a9.53,9.53,0,0,0,3,6.93,9.4,9.4,0,0,0,5,2.44V25.5a6.5,6.5,0,0,0,13,.36A4,4,0,0,0,28,22Zm-4,2a2,2,0,1,1,2-2A2,2,0,0,1,24,24Z" style="fill:#e2001a"/></g></svg>