<svg id="Icons" xmlns="http://www.w3.org/2000/svg" viewBox="0 0 32 32"><title>weight--small</title><g id="Weight"><path d="M18.33,15.6a1,1,0,0,1-1-1,1.33,1.33,0,1,0-2.67,0,1,1,0,0,1-2,0,3.33,3.33,0,1,1,6.67,0A1,1,0,0,1,18.33,15.6Z" style="fill:#444"/><path d="M22.07,24H9.93A1.94,1.94,0,0,1,8,22.07v-9.8a1.94,1.94,0,0,1,1.93-1.93h2A4.62,4.62,0,0,1,16,8a4.75,4.75,0,0,1,4.09,2.35l2,0A1.94,1.94,0,0,1,24,12.27v9.8A1.94,1.94,0,0,1,22.07,24ZM9.93,12.33,10,22.07,22.07,22,22,12.33H20a2,2,0,0,1-1.67-1,2.73,2.73,0,0,0-4.72,0,2,2,0,0,1-1.68,1Zm12.13,0h0Z" style="fill:#444"/></g></svg>