<svg id="Icons" xmlns="http://www.w3.org/2000/svg" viewBox="0 0 32 32"><title>weight</title><g id="Text_-_Decrease" data-name="Text - Decrease"><path d="M29,32H3a3,3,0,0,1-3-3V8A3,3,0,0,1,3,5H7.35a1,1,0,0,0,.88-.53,9,9,0,0,1,15.55,0,1,1,0,0,0,.88.53H29a3,3,0,0,1,3,3V29A3,3,0,0,1,29,32ZM3,7A1,1,0,0,0,2,8V29a1,1,0,0,0,1,1H29a1,1,0,0,0,1-1V8a1,1,0,0,0-1-1H24.65A3,3,0,0,1,22,5.48,7,7,0,0,0,10,5.48,3,3,0,0,1,7.35,7Z" style="fill:#444"/><path d="M16,5a6,6,0,1,0,6,6A6,6,0,0,0,16,5Zm0,10a4,4,0,0,1-1-7.86V11a1,1,0,0,0,2,0V7.14A4,4,0,0,1,16,15Z" style="fill:#444"/></g></svg>